<svg width="21" height="20" viewBox="0 0 21 20" fill="none" xmlns="http://www.w3.org/2000/svg">
<g clip-path="url(#clip0_265:1192)">
<path d="M4.65624 12.5H5.90624C6.59687 12.5 7.15624 11.94 7.15624 11.25V9.99998C7.15624 9.30936 6.59687 8.74999 5.90624 8.74999H4.65624C3.96562 8.74999 3.40625 9.30936 3.40625 9.99998V11.25C3.40625 11.94 3.96562 12.5 4.65624 12.5ZM4.65624 9.99998H5.90624V11.25H4.65624V9.99998ZM14.6562 17.4999H15.9062C16.5969 17.4999 17.1563 16.9406 17.1563 16.25V15C17.1563 14.3094 16.5969 13.75 15.9062 13.75H14.6562C13.9662 13.75 13.4062 14.3094 13.4062 15V16.25C13.4062 16.9406 13.9656 17.4999 14.6562 17.4999ZM14.6562 15H15.9062V16.25H14.6562V15ZM14.6562 12.5H15.9062C16.5969 12.5 17.1563 11.94 17.1563 11.25V9.99998C17.1563 9.30936 16.5969 8.74999 15.9062 8.74999H14.6562C13.9662 8.74999 13.4062 9.30936 13.4062 9.99998V11.25C13.4062 11.94 13.9656 12.5 14.6562 12.5ZM14.6562 9.99998H15.9062V11.25H14.6562V9.99998ZM17.1563 1.25H14.6562V0.624999C14.6562 0.279993 14.3762 0 14.0313 0C13.6863 0 13.4063 0.279993 13.4063 0.624999V1.25H7.15627V0.624999C7.15624 0.279993 6.87625 0 6.53124 0C6.18624 0 5.90624 0.279993 5.90624 0.624999V1.25H3.40625C2.02564 1.25 0.90625 2.36939 0.90625 3.74999V17.4999C0.90625 18.8806 2.02564 20 3.40625 20H17.1562C18.5368 20 19.6562 18.8806 19.6562 17.4999V3.74999C19.6562 2.36936 18.5369 1.25 17.1563 1.25ZM18.4063 17.4999C18.4063 18.1906 17.8469 18.75 17.1563 18.75H3.40625C2.71562 18.75 2.15625 18.19 2.15625 17.4999V6.24999H18.4062V17.4999H18.4063ZM18.4063 4.99999H2.15625V3.74999C2.15625 3.05937 2.71562 2.5 3.40625 2.5H5.90624V3.12499C5.90624 3.47 6.18624 3.74999 6.53124 3.74999C6.87625 3.74999 7.15624 3.47 7.15624 3.12499V2.5H13.4062V3.12499C13.4062 3.47 13.6863 3.74999 14.0312 3.74999C14.3762 3.74999 14.6562 3.47 14.6562 3.12499V2.5H17.1563C17.8469 2.5 18.4063 3.05937 18.4063 3.74999V4.99999ZM9.65624 17.4999H10.9062C11.5969 17.4999 12.1562 16.9406 12.1562 16.25V15C12.1562 14.3094 11.5969 13.75 10.9062 13.75H9.65624C8.96626 13.75 8.40624 14.3094 8.40624 15V16.25C8.40624 16.9406 8.96561 17.4999 9.65624 17.4999ZM9.65624 15H10.9062V16.25H9.65624V15ZM9.65624 12.5H10.9062C11.5969 12.5 12.1562 11.94 12.1562 11.25V9.99998C12.1562 9.30936 11.5969 8.74999 10.9062 8.74999H9.65624C8.96626 8.74999 8.40624 9.30936 8.40624 9.99998V11.25C8.40624 11.94 8.96561 12.5 9.65624 12.5ZM9.65624 9.99998H10.9062V11.25H9.65624V9.99998ZM4.65624 17.4999H5.90624C6.59687 17.4999 7.15624 16.9406 7.15624 16.25V15C7.15624 14.3094 6.59687 13.75 5.90624 13.75H4.65624C3.96562 13.75 3.40625 14.3094 3.40625 15V16.25C3.40625 16.9406 3.96562 17.4999 4.65624 17.4999ZM4.65624 15H5.90624V16.25H4.65624V15Z" fill="black" fill-opacity="0.6"/>
</g>
<defs>
<clipPath id="clip0_265:1192">
<rect width="20" height="20" fill="white" transform="translate(0.28125)"/>
</clipPath>
</defs>
</svg>
