<svg width="21" height="20" viewBox="0 0 21 20" fill="none" xmlns="http://www.w3.org/2000/svg">
<path fill-rule="evenodd" clip-rule="evenodd" d="M0.744141 1.20084C0.744141 0.880452 1.00387 0.620728 1.32425 0.620728H5.2843C5.54175 0.620728 5.7684 0.790409 5.84092 1.03744L6.93533 4.76552H19.9708C20.1496 4.76552 20.3185 4.84803 20.4284 4.98915C20.5383 5.13027 20.577 5.3142 20.5332 5.48763L18.8831 12.0236C18.818 12.2813 18.5863 12.4618 18.3206 12.4618H8.41974C8.16229 12.4618 7.93564 12.2921 7.86312 12.045L4.85 1.78095H1.32425C1.00387 1.78095 0.744141 1.52123 0.744141 1.20084ZM7.27593 5.92574L8.85404 11.3015H17.8688L19.226 5.92574H7.27593Z" fill="white"/>
<path fill-rule="evenodd" clip-rule="evenodd" d="M11.6977 17.177C11.6977 18.6759 10.4826 19.8911 8.98363 19.8911C7.48468 19.8911 6.26953 18.6759 6.26953 17.177C6.26953 15.678 7.48468 14.4629 8.98363 14.4629C10.4826 14.4629 11.6977 15.678 11.6977 17.177ZM8.98363 18.7309C9.84181 18.7309 10.5375 18.0352 10.5375 17.177C10.5375 16.3188 9.84181 15.6231 8.98363 15.6231C8.12545 15.6231 7.42975 16.3188 7.42975 17.177C7.42975 18.0352 8.12545 18.7309 8.98363 18.7309Z" fill="white"/>
<path fill-rule="evenodd" clip-rule="evenodd" d="M19.9145 17.1769C19.9145 18.6759 18.6994 19.891 17.2004 19.891C15.7015 19.891 14.4863 18.6759 14.4863 17.1769C14.4863 15.678 15.7015 14.4628 17.2004 14.4628C18.6994 14.4628 19.9145 15.678 19.9145 17.1769ZM17.2004 18.7308C18.0586 18.7308 18.7543 18.0351 18.7543 17.1769C18.7543 16.3187 18.0586 15.6231 17.2004 15.6231C16.3422 15.6231 15.6466 16.3187 15.6466 17.1769C15.6466 18.0351 16.3422 18.7308 17.2004 18.7308Z" fill="white"/>
</svg>
