<svg width="31" height="32" viewBox="0 0 31 32" fill="none" xmlns="http://www.w3.org/2000/svg">
<path fill-rule="evenodd" clip-rule="evenodd" d="M0.296875 13.5092V25.0092C0.296875 26.1137 1.19337 27.0092 2.29794 27.0092C5.3099 27.0092 7.31329 27.0092 10.3843 27.0092H17.0995C17.9279 27.0092 18.5995 26.3376 18.5995 25.5092V25.5092V25.5092C18.5995 24.6807 17.9279 24.0092 17.0995 24.0092H10.9734H3.34731V13.5092V3.00916H14.0238H24.7004V6.00916V7.48394C24.7004 8.32629 25.3832 9.00916 26.2256 9.00916V9.00916V9.00916C27.0679 9.00916 27.7508 8.32629 27.7508 7.48394V5.42978C27.7508 3.72871 27.7508 3.0967 27.7508 2.00969C27.7508 0.905117 26.8554 0.00915527 25.7508 0.00915527H14.0238H2.29687C1.1923 0.00915527 0.296875 0.904586 0.296875 2.00916L0.296875 13.5092ZM9.44818 7.50916V7.50916C9.44818 8.33758 10.1198 9.00916 10.9482 9.00916H14.0238H17.0995C17.9279 9.00916 18.5995 8.33758 18.5995 7.50916V7.50916V7.50916C18.5995 6.68073 17.9279 6.00916 17.0995 6.00916H14.0238H10.9482C10.1198 6.00916 9.44818 6.68073 9.44818 7.50916V7.50916ZM25.4481 13.4154C25.4378 14.1602 25.0939 14.6567 24.2111 15.203C20.8271 17.297 21.5641 20.9285 25.8854 23.4519C27.4072 24.3399 27.8648 26.1005 26.7777 26.8824C25.8637 27.5394 24.7004 26.8682 24.7004 25.6835C24.7004 24.8552 24.5421 24.7592 23.1751 24.7592C21.4467 24.7592 21.3098 25.1079 22.2081 27.2222C22.5891 28.1192 23.1942 28.712 24.1147 29.09C25.1457 29.5138 25.463 29.8637 25.463 30.5765C25.463 31.259 25.6673 31.5092 26.2256 31.5092C26.8055 31.5092 26.9882 31.259 26.9882 30.4663C26.9882 29.6507 27.2387 29.3304 28.1386 28.9963C28.9046 28.7124 29.4857 28.1072 29.8762 27.188C30.9278 24.7123 29.9124 22.5804 26.8837 20.9064C25.3795 20.0747 24.8361 18.9864 25.2635 17.6612C25.6895 16.3415 27.3695 16.9783 27.3695 18.4592C27.3695 18.9973 27.6806 19.1342 28.9019 19.1342C30.3784 19.1342 30.4256 19.0967 30.1911 18.1029C29.8361 16.5984 28.9843 15.4082 27.9212 14.9319C27.2501 14.6312 26.9882 14.2145 26.9882 13.4488C26.9882 12.6343 26.809 12.3842 26.2256 12.3842C25.6513 12.3842 25.4591 12.6392 25.4481 13.4154Z" fill="black"/>
</svg>
