<svg width="421" height="406" viewBox="0 0 421 406" fill="none" xmlns="http://www.w3.org/2000/svg">
<g clip-path="url(#clip0_348:886)">
<path d="M-41.2051 350.074H458.795V350.324H-41.2051V350.074Z" fill="#EBEBEB"/>
<path d="M221.794 305.474H414.884C416.397 305.471 417.846 304.869 418.915 303.798C419.984 302.728 420.584 301.277 420.584 299.764V28.3341C420.571 26.8301 419.965 25.3921 418.898 24.3323C417.83 23.2725 416.388 22.6766 414.884 22.6741H221.794C220.28 22.6741 218.827 23.2757 217.756 24.3465C216.686 25.4173 216.084 26.8697 216.084 28.3841V299.764C216.084 301.278 216.686 302.731 217.756 303.802C218.827 304.872 220.28 305.474 221.794 305.474ZM414.884 22.8741C416.33 22.8767 417.717 23.4531 418.738 24.4768C419.76 25.5005 420.334 26.8877 420.334 28.3341V299.764C420.334 301.21 419.76 302.598 418.738 303.621C417.717 304.645 416.33 305.221 414.884 305.224H221.794C220.347 305.221 218.959 304.645 217.936 303.622C216.913 302.599 216.337 301.211 216.334 299.764V28.3341C216.337 26.8868 216.913 25.4996 217.936 24.4762C218.959 23.4528 220.347 22.8767 221.794 22.8741H414.884Z" fill="#EBEBEB"/>
<path d="M5.48492 305.474H198.585C200.099 305.471 201.549 304.869 202.62 303.799C203.69 302.728 204.292 301.278 204.295 299.764V28.3341C204.279 26.8292 203.671 25.3911 202.602 24.3317C201.533 23.2722 200.09 22.6766 198.585 22.6741H5.48492C3.98264 22.6793 2.54291 23.2763 1.47781 24.3358C0.41272 25.3953 -0.191925 26.8318 -0.205078 28.3341V299.764C-0.205093 301.275 0.393753 302.724 1.46027 303.795C2.52678 304.865 3.974 305.469 5.48492 305.474ZM198.585 22.8741C200.032 22.8767 201.419 23.4528 202.443 24.4762C203.466 25.4996 204.042 26.8868 204.045 28.3341V299.764C204.042 301.211 203.466 302.599 202.443 303.622C201.419 304.645 200.032 305.221 198.585 305.224H5.48492C4.03766 305.221 2.65042 304.645 1.62704 303.622C0.603668 302.599 0.0275726 301.211 0.0249329 299.764V28.3341C0.0275726 26.8868 0.603668 25.4996 1.62704 24.4762C2.65042 23.4528 4.03766 22.8767 5.48492 22.8741H198.585Z" fill="#EBEBEB"/>
<path d="M258.355 359.594H284.355V359.844H258.355V359.594Z" fill="#EBEBEB"/>
<path d="M352.234 356.884H406.334V357.134H352.234V356.884Z" fill="#EBEBEB"/>
<path d="M285.356 368.884H311.676V369.134H285.356V368.884Z" fill="#EBEBEB"/>
<path d="M161.734 367.204H200.564V367.454H161.734V367.204Z" fill="#EBEBEB"/>
<path d="M142.144 367.204H152.834V367.454H142.144V367.204Z" fill="#EBEBEB"/>
<path d="M8.88531 362.984H63.4453V363.234H8.88531V362.984Z" fill="#EBEBEB"/>
<path d="M343.155 126.344H269.155C267.651 126.344 266.209 126.941 265.146 128.005C264.082 129.068 263.485 130.51 263.485 132.014V350.074H348.795V132.004C348.792 130.507 348.198 129.072 347.141 128.012C346.085 126.951 344.652 126.352 343.155 126.344Z" fill="#F5F5F5"/>
<path d="M330.734 139.564H341.734V164.054H330.734V139.564Z" fill="#EBEBEB"/>
<path d="M270.574 139.564H281.574V164.054H270.574V139.564Z" fill="#EBEBEB"/>
<path d="M310.686 139.564H321.686V164.054H310.686V139.564Z" fill="#EBEBEB"/>
<path d="M290.625 139.564H301.625V164.054H290.625V139.564Z" fill="#EBEBEB"/>
<path d="M330.734 178.224H341.734V202.714H330.734V178.224Z" fill="#EBEBEB"/>
<path d="M270.574 178.224H281.574V202.714H270.574V178.224Z" fill="#EBEBEB"/>
<path d="M310.686 178.224H321.686V202.714H310.686V178.224Z" fill="#EBEBEB"/>
<path d="M290.625 178.224H301.625V202.714H290.625V178.224Z" fill="#EBEBEB"/>
<path d="M330.734 216.884H341.734V241.374H330.734V216.884Z" fill="#EBEBEB"/>
<path d="M270.574 216.884H281.574V241.374H270.574V216.884Z" fill="#EBEBEB"/>
<path d="M310.686 216.884H321.686V241.374H310.686V216.884Z" fill="#EBEBEB"/>
<path d="M290.625 216.884H301.625V241.374H290.625V216.884Z" fill="#EBEBEB"/>
<path d="M330.734 255.544H341.734V280.034H330.734V255.544Z" fill="#EBEBEB"/>
<path d="M270.574 255.544H281.574V280.034H270.574V255.544Z" fill="#EBEBEB"/>
<path d="M310.686 255.544H321.686V280.034H310.686V255.544Z" fill="#EBEBEB"/>
<path d="M290.625 255.544H301.625V280.034H290.625V255.544Z" fill="#EBEBEB"/>
<path d="M330.734 294.204H341.734V318.694H330.734V294.204Z" fill="#EBEBEB"/>
<path d="M270.574 294.204H281.574V318.694H270.574V294.204Z" fill="#EBEBEB"/>
<path d="M310.686 294.204H321.686V318.694H310.686V294.204Z" fill="#EBEBEB"/>
<path d="M290.625 294.204H301.625V318.694H290.625V294.204Z" fill="#EBEBEB"/>
<path d="M80.7955 146.674H27.7955C27.1901 146.674 26.5906 146.793 26.0313 147.025C25.472 147.257 24.9638 147.596 24.5357 148.024C24.1076 148.452 23.768 148.961 23.5364 149.52C23.3047 150.079 23.1855 150.679 23.1855 151.284V350.074H85.3555V151.294C85.3582 150.078 84.8805 148.911 84.0265 148.045C83.1724 147.18 82.0112 146.687 80.7955 146.674Z" fill="#F5F5F5"/>
<path d="M67.4746 158.694H77.4746V180.954H67.4746V158.694Z" fill="#EBEBEB"/>
<path d="M49.2441 158.694H59.2441V180.954H49.2441V158.694Z" fill="#EBEBEB"/>
<path d="M31.0156 158.694H41.0156V180.954H31.0156V158.694Z" fill="#EBEBEB"/>
<path d="M67.4746 193.844H77.4746V216.104H67.4746V193.844Z" fill="#EBEBEB"/>
<path d="M49.2441 193.844H59.2441V216.104H49.2441V193.844Z" fill="#EBEBEB"/>
<path d="M31.0156 193.844H41.0156V216.104H31.0156V193.844Z" fill="#EBEBEB"/>
<path d="M67.4746 228.994H77.4746V251.254H67.4746V228.994Z" fill="#EBEBEB"/>
<path d="M49.2441 228.994H59.2441V251.254H49.2441V228.994Z" fill="#EBEBEB"/>
<path d="M31.0156 228.994H41.0156V251.254H31.0156V228.994Z" fill="#EBEBEB"/>
<path d="M67.4746 264.134H77.4746V286.394H67.4746V264.134Z" fill="#EBEBEB"/>
<path d="M49.2441 264.134H59.2441V286.394H49.2441V264.134Z" fill="#EBEBEB"/>
<path d="M31.0156 264.134H41.0156V286.394H31.0156V264.134Z" fill="#EBEBEB"/>
<path d="M67.4746 299.284H77.4746V321.544H67.4746V299.284Z" fill="#EBEBEB"/>
<path d="M49.2441 299.284H59.2441V321.544H49.2441V299.284Z" fill="#EBEBEB"/>
<path d="M31.0156 299.284H41.0156V321.544H31.0156V299.284Z" fill="#EBEBEB"/>
<path d="M202.205 89.7841H116.115C114.367 89.7841 112.691 90.4784 111.455 91.7142C110.219 92.9501 109.525 94.6263 109.525 96.3741V350.074H208.795V96.3741C208.795 94.6263 208.101 92.9501 206.865 91.7142C205.629 90.4784 203.953 89.7841 202.205 89.7841Z" fill="#F5F5F5"/>
<path d="M187.755 105.164H200.555V133.654H187.755V105.164Z" fill="#EBEBEB"/>
<path d="M117.764 105.164H130.564V133.654H117.764V105.164Z" fill="#EBEBEB"/>
<path d="M164.425 105.164H177.225V133.654H164.425V105.164Z" fill="#EBEBEB"/>
<path d="M141.095 105.164H153.895V133.654H141.095V105.164Z" fill="#EBEBEB"/>
<path d="M187.755 150.144H200.555V178.634H187.755V150.144Z" fill="#EBEBEB"/>
<path d="M117.764 150.144H130.564V178.634H117.764V150.144Z" fill="#EBEBEB"/>
<path d="M164.425 150.144H177.225V178.634H164.425V150.144Z" fill="#EBEBEB"/>
<path d="M141.095 150.144H153.895V178.634H141.095V150.144Z" fill="#EBEBEB"/>
<path d="M187.755 195.124H200.555V223.614H187.755V195.124Z" fill="#EBEBEB"/>
<path d="M117.764 195.124H130.564V223.614H117.764V195.124Z" fill="#EBEBEB"/>
<path d="M164.425 195.124H177.225V223.614H164.425V195.124Z" fill="#EBEBEB"/>
<path d="M141.095 195.124H153.895V223.614H141.095V195.124Z" fill="#EBEBEB"/>
<path d="M187.755 240.104H200.555V268.594H187.755V240.104Z" fill="#EBEBEB"/>
<path d="M117.764 240.104H130.564V268.594H117.764V240.104Z" fill="#EBEBEB"/>
<path d="M164.425 240.104H177.225V268.594H164.425V240.104Z" fill="#EBEBEB"/>
<path d="M141.095 240.104H153.895V268.594H141.095V240.104Z" fill="#EBEBEB"/>
<path d="M187.755 285.074H200.555V313.564H187.755V285.074Z" fill="#EBEBEB"/>
<path d="M117.764 285.074H130.564V313.564H117.764V285.074Z" fill="#EBEBEB"/>
<path d="M164.425 285.074H177.225V313.564H164.425V285.074Z" fill="#EBEBEB"/>
<path d="M141.095 285.074H153.895V313.564H141.095V285.074Z" fill="#EBEBEB"/>
<path d="M208.794 183.004H263.484V350.074H208.794V183.004Z" fill="#E6E6E6"/>
<path d="M85.3556 200.894H109.516V350.074H85.3556V200.894Z" fill="#E6E6E6"/>
<path d="M348.826 350.074H396.686V280.324L348.826 264.134V350.074Z" fill="#E6E6E6"/>
<path d="M37.7952 62.054C29.9652 55.524 14.0352 42.784 27.7352 40.964C40.8952 39.214 60.2852 46.914 66.4752 53.674C66.4752 47.204 69.5252 41.044 81.1452 36.064C99.0252 28.384 101.795 56.294 100.855 61.414C108.045 57.964 130.745 58.604 115.095 68.334H35.6552C35.6552 68.334 19.2552 58.084 37.7952 62.054Z" fill="#F5F5F5"/>
<path d="M396.196 95.6741C396.256 91.9541 396.656 84.6741 390.076 83.6741C383.756 82.6741 379.466 87.0641 380.186 90.9141C377.026 87.2241 372.766 83.7241 365.506 80.9141C354.316 76.5341 366.766 92.4341 369.666 95.3541C364.996 93.3541 355.876 93.7441 367.126 99.2841H400.126C400.126 99.2841 401.936 93.4041 396.196 95.6741Z" fill="#FAFAFA"/>
<path d="M257.725 51.534H364.025C364.025 51.534 357.865 44.054 348.245 46.414C352.775 40.644 355.185 19.014 340.025 16.314C332.315 14.944 323.215 28.964 323.025 36.314C319.225 18.724 308.725 -3.62599 292.605 0.754013C276.485 5.13401 288.975 37.054 288.975 37.054C288.975 37.054 273.485 14.494 260.625 24.504C252.965 30.504 267.345 44.184 267.345 44.184C267.345 44.184 249.735 44.054 257.725 51.534Z" fill="#F5F5F5"/>
<path d="M208.796 395.234C101.713 395.234 14.9055 390.166 14.9055 383.914C14.9055 377.662 101.713 372.594 208.796 372.594C315.878 372.594 402.686 377.662 402.686 383.914C402.686 390.166 315.878 395.234 208.796 395.234Z" fill="#F5F5F5"/>
<path d="M260.606 307.304C266.197 307.425 271.519 309.731 275.431 313.728C279.343 317.726 281.533 323.096 281.533 328.689C281.533 334.282 279.343 339.652 275.431 343.65C271.519 347.647 266.197 349.953 260.606 350.074H256.326V307.304H260.606Z" fill="#263238"/>
<path d="M104.794 307.304C107.641 307.242 110.472 307.75 113.121 308.797C115.769 309.844 118.182 311.409 120.217 313.401C122.252 315.393 123.87 317.771 124.974 320.397C126.078 323.022 126.646 325.841 126.646 328.689C126.646 331.537 126.078 334.356 124.974 336.981C123.87 339.606 122.252 341.985 120.217 343.977C118.182 345.968 115.769 347.534 113.121 348.581C110.472 349.628 107.641 350.136 104.794 350.074H100.524V307.304H104.794Z" fill="#263238"/>
<path d="M175.395 350.064C163.588 350.064 154.015 340.492 154.015 328.684C154.015 316.876 163.588 307.304 175.395 307.304C187.203 307.304 196.775 316.876 196.775 328.684C196.775 340.492 187.203 350.064 175.395 350.064Z" fill="#263238"/>
<path d="M331.216 350.064C319.408 350.064 309.836 340.492 309.836 328.684C309.836 316.876 319.408 307.304 331.216 307.304C343.024 307.304 352.596 316.876 352.596 328.684C352.596 340.492 343.024 350.064 331.216 350.064Z" fill="#263238"/>
<path d="M152.175 215.334H233.305V318.414H152.175V215.334Z" fill="#407BFF"/>
<path opacity="0.2" d="M152.175 215.334H233.305V318.414H152.175V215.334Z" fill="black"/>
<path d="M70.2818 240.967L71.043 241.615L67.8133 245.406L67.0521 244.758L70.2818 240.967Z" fill="#407BFF"/>
<path d="M83.442 225.498L84.2031 226.147L74.1425 237.951L73.3814 237.303L83.442 225.498Z" fill="#407BFF"/>
<path d="M152.176 318.404H51.4158V273.674C51.4142 270.353 52.5986 267.14 54.7558 264.614L86.1058 227.774C89.4292 223.873 93.5604 220.74 98.2135 218.592C102.867 216.444 107.931 215.333 113.056 215.334H152.176V318.404Z" fill="#407BFF"/>
<path d="M135.664 269.424V231.524C135.664 230.708 135.503 229.899 135.19 229.145C134.878 228.391 134.419 227.706 133.842 227.129C133.264 226.552 132.578 226.095 131.824 225.784C131.069 225.472 130.26 225.313 129.444 225.314H119.794C114.744 225.314 109.753 226.41 105.168 228.527C100.582 230.644 96.5104 233.73 93.2341 237.574L69.5241 265.394C68.5717 266.509 68.0471 267.927 68.0441 269.394C68.0441 271.042 68.698 272.622 69.8623 273.789C71.0266 274.955 72.6061 275.611 74.2541 275.614H129.444C131.089 275.614 132.666 274.963 133.832 273.803C134.997 272.643 135.656 271.068 135.664 269.424Z" fill="white"/>
<path d="M51.4141 306.224H63.8541C64.5267 306.224 65.1876 306.048 65.7712 305.713C66.3549 305.379 66.8411 304.898 67.1816 304.318C67.5221 303.738 67.7052 303.079 67.7127 302.407C67.7201 301.734 67.5517 301.071 67.2241 300.484L65.1241 296.724C64.7921 296.12 64.3044 295.616 63.7118 295.264C63.1192 294.913 62.4432 294.726 61.7541 294.724H51.4141V306.224Z" fill="white"/>
<path d="M170.086 198.014H366.176V318.404H170.086V198.014Z" fill="#407BFF"/>
<path opacity="0.6" d="M170.086 198.014H366.176V318.404H170.086V198.014Z" fill="white"/>
<path opacity="0.5" d="M279.704 300.054H313.074V307.304H279.704V300.054Z" fill="#407BFF"/>
<path opacity="0.5" d="M357.016 300.054H366.176V307.304H357.016V300.054Z" fill="#407BFF"/>
<path opacity="0.4" d="M298.436 198.014H366.176V318.404H298.436V198.014Z" fill="#407BFF"/>
<path opacity="0.4" d="M335.734 198.014H336.824V318.404H335.734V198.014Z" fill="#407BFF"/>
<path d="M50.4349 318.404H367.155C368.061 318.404 368.795 319.138 368.795 320.044V325.114C368.795 326.02 368.061 326.754 367.155 326.754H50.4349C49.5292 326.754 48.7949 326.02 48.7949 325.114V320.044C48.7949 319.138 49.5292 318.404 50.4349 318.404Z" fill="#263238"/>
<path d="M100.505 350.064C88.6969 350.064 79.1248 340.492 79.1248 328.684C79.1248 316.876 88.6969 307.304 100.505 307.304C112.313 307.304 121.885 316.876 121.885 328.684C121.885 340.492 112.313 350.064 100.505 350.064Z" fill="#263238"/>
<path d="M100.506 342.444C92.9062 342.444 86.7456 336.283 86.7456 328.684C86.7456 321.085 92.9062 314.924 100.506 314.924C108.105 314.924 114.266 321.085 114.266 328.684C114.266 336.283 108.105 342.444 100.506 342.444Z" fill="white"/>
<path d="M256.325 350.064C244.517 350.064 234.945 340.492 234.945 328.684C234.945 316.876 244.517 307.304 256.325 307.304C268.133 307.304 277.705 316.876 277.705 328.684C277.705 340.492 268.133 350.064 256.325 350.064Z" fill="#263238"/>
<path d="M256.324 342.444C248.725 342.444 242.564 336.283 242.564 328.684C242.564 321.085 248.725 314.924 256.324 314.924C263.923 314.924 270.084 321.085 270.084 328.684C270.084 336.283 263.923 342.444 256.324 342.444Z" fill="white"/>
<path d="M228.454 375.204L236.954 375.074L239.264 355.364L230.774 355.504L228.454 375.204Z" fill="#407BFF"/>
<path d="M237.174 374.094L227.914 374.234C227.75 374.233 227.592 374.293 227.47 374.402C227.348 374.511 227.271 374.661 227.254 374.824L226.444 382.404C226.428 382.596 226.453 382.789 226.517 382.971C226.581 383.152 226.682 383.319 226.814 383.459C226.945 383.6 227.105 383.711 227.283 383.786C227.46 383.86 227.651 383.897 227.844 383.894C231.174 383.784 235.984 383.514 240.184 383.454C245.094 383.374 244.614 383.574 250.374 383.454C253.854 383.404 254.374 379.854 252.914 379.564C246.114 378.214 245.434 378.144 239.294 374.694C238.652 374.311 237.921 374.104 237.174 374.094Z" fill="#263238"/>
<path d="M245.473 121.184C248.253 127.124 251.233 132.734 254.543 138.334C256.203 141.114 257.913 143.884 259.763 146.604C260.663 147.964 261.633 149.314 262.593 150.664C263.553 152.014 264.593 153.344 265.703 154.664L266.523 155.664C266.939 156.178 267.387 156.666 267.863 157.124C268.177 157.432 268.511 157.72 268.863 157.984C269.248 158.279 269.656 158.543 270.083 158.774C271.018 159.293 272.031 159.654 273.083 159.844C274.996 160.16 276.96 159.924 278.743 159.164C279.971 158.631 281.118 157.931 282.153 157.084C283.714 155.795 285.105 154.313 286.293 152.674C287.344 151.253 288.318 149.778 289.213 148.254C290.879 145.365 292.366 142.376 293.663 139.304C294.948 136.289 296.073 133.208 297.033 130.074C297.269 129.267 297.207 128.402 296.857 127.637C296.507 126.872 295.894 126.259 295.129 125.909C294.364 125.559 293.499 125.497 292.692 125.733C291.885 125.969 291.189 126.487 290.733 127.194L290.673 127.284C287.53 132.467 284.104 137.475 280.413 142.284C279.55 143.379 278.628 144.427 277.653 145.424C276.872 146.246 276.004 146.98 275.063 147.614C274.703 147.824 274.413 147.924 274.393 147.884C274.373 147.844 274.753 147.654 275.393 147.724C275.82 147.797 276.228 147.953 276.593 148.184C276.643 148.184 276.693 148.254 276.403 147.854L275.783 146.964C272.446 141.971 269.365 136.811 266.553 131.504C263.633 126.144 260.763 120.584 258.033 115.194V115.094C257.22 113.424 255.778 112.146 254.022 111.54C252.267 110.935 250.343 111.051 248.673 111.864C247.004 112.677 245.726 114.12 245.12 115.875C244.514 117.63 244.63 119.554 245.443 121.224L245.473 121.184Z" fill="#407BFF"/>
<path d="M290.404 129.674L292.684 120.214L301.574 124.044C301.574 124.044 300.784 131.554 294.574 132.484L290.404 129.674Z" fill="#263238"/>
<path d="M290.874 127.344C290.874 127.344 287.984 131.064 287.274 132.084C288.274 133.084 294.824 136.394 295.344 136.084C296.174 133.714 297.344 130.584 297.344 130.584L290.874 127.344Z" fill="#263238"/>
<path d="M299.334 114.194L302.604 117.334C302.863 117.589 303.047 117.911 303.137 118.263C303.227 118.615 303.219 118.986 303.114 119.334L301.574 124.004L292.684 120.174L296.334 114.524C296.497 114.289 296.709 114.091 296.955 113.945C297.2 113.799 297.475 113.707 297.759 113.676C298.043 113.644 298.331 113.674 298.603 113.764C298.875 113.853 299.124 114 299.334 114.194Z" fill="#263238"/>
<path d="M294.295 125.244C294.605 123.324 292.685 117.304 291.075 116.444C289.465 115.584 290.385 119.734 290.175 121.134C289.595 124.974 289.395 128.634 291.365 128.434C293.335 128.234 293.795 128.584 294.295 125.244Z" fill="#263238"/>
<path opacity="0.2" d="M239.264 355.374L238.074 365.534L229.574 365.664L230.764 355.504L239.264 355.374Z" fill="black"/>
<path d="M252.344 109.834C236.184 107.834 220.544 109.994 212.024 111.644C211.166 111.812 210.35 112.149 209.623 112.636C208.896 113.122 208.274 113.749 207.792 114.478C207.309 115.208 206.977 116.027 206.815 116.886C206.652 117.745 206.662 118.628 206.844 119.484C213.184 149.784 212.194 180.264 212.724 186.744L258.164 186.014C261.274 148.864 259.314 125.204 258.114 115.554C257.927 114.094 257.257 112.739 256.212 111.703C255.167 110.667 253.806 110.009 252.344 109.834Z" fill="#407BFF"/>
<path d="M223.643 88.4139C225.083 94.5239 226.723 105.784 222.523 110.244C226.023 113.344 230.583 116.884 237.973 116.594C245.363 116.304 243.883 111.344 241.833 108.814C234.833 107.674 234.833 102.534 235.833 97.6339L223.643 88.4139Z" fill="#FFB573"/>
<path opacity="0.2" d="M228.625 92.174L235.865 97.674C235.608 98.8114 235.451 99.9691 235.395 101.134C232.735 100.954 228.995 98.324 228.605 95.584C228.404 94.4556 228.41 93.2999 228.625 92.174Z" fill="black"/>
<path d="M221.584 79.1439C222.654 87.4939 222.844 92.4439 227.374 96.4339C234.174 102.434 244.284 97.8239 245.744 89.3039C247.054 81.6239 245.094 69.3039 236.654 66.5239C234.786 65.9206 232.794 65.8012 230.867 66.1767C228.94 66.5523 227.139 67.4106 225.633 68.6713C224.128 69.932 222.967 71.554 222.259 73.3856C221.55 75.2171 221.318 77.1983 221.584 79.1439Z" fill="#FFB573"/>
<path d="M221.093 86.394C224.393 88.394 228.163 87.394 228.473 85.294C228.783 83.194 226.333 79.564 225.413 77.794C225.673 74.794 227.793 73.914 227.413 71.794C229.883 72.024 243.353 72.6339 243.033 69.5939C242.713 66.5539 237.373 63.424 231.033 64.214C224.693 65.004 220.543 67.7639 221.143 71.6239C217.603 71.0539 215.973 77.044 221.093 86.394Z" fill="#263238"/>
<path d="M218.144 87.6739C218.704 88.562 219.434 89.3304 220.292 89.9346C221.15 90.5388 222.12 90.9668 223.144 91.1939C225.884 91.7839 227.144 89.2939 226.234 86.7939C225.444 84.5339 223.064 81.5139 220.364 82.0439C219.777 82.1664 219.229 82.433 218.77 82.8198C218.311 83.2066 217.955 83.7015 217.735 84.2599C217.515 84.8183 217.437 85.4226 217.509 86.0186C217.58 86.6146 217.799 87.1834 218.144 87.6739Z" fill="#FFB573"/>
<path d="M231.794 270.334C232.134 227.614 222.684 186.584 222.684 186.584L258.104 186.014C258.104 186.014 254.034 247.714 252.614 273.564C251.144 300.434 241.434 363.564 241.434 363.564L227.054 363.774C227.054 363.774 229.794 304.054 231.794 270.334Z" fill="#407BFF"/>
<path opacity="0.4" d="M231.794 270.334C232.134 227.614 222.684 186.584 222.684 186.584L258.104 186.014C258.104 186.014 254.034 247.714 252.614 273.564C251.144 300.434 241.434 363.564 241.434 363.564L227.054 363.774C227.054 363.774 229.794 304.054 231.794 270.334Z" fill="black"/>
<path opacity="0.2" d="M230.414 210.094C240.514 223.914 235.974 249.914 231.834 268.294C231.669 248.028 229.947 227.806 226.684 207.804L230.414 210.094Z" fill="black"/>
<path d="M243.354 357.964L242.424 363.824L226.524 364.094L225.624 358.554L243.354 357.964Z" fill="#263238"/>
<path d="M232.795 80.5439C232.795 81.2239 233.235 81.7539 233.685 81.7139C234.135 81.6739 234.455 81.1039 234.405 80.4239C234.355 79.7439 233.965 79.2139 233.515 79.2439C233.065 79.2739 232.715 79.8539 232.795 80.5439Z" fill="#263238"/>
<path d="M241.604 79.5539C241.604 80.2439 242.044 80.7639 242.494 80.7339C242.944 80.7039 243.264 80.1139 243.214 79.4339C243.164 78.7539 242.774 78.2239 242.324 78.2539C241.874 78.2839 241.554 78.8739 241.604 79.5539Z" fill="#263238"/>
<path d="M239.793 80.1039C240.743 82.1317 241.971 84.0166 243.443 85.7039C242.999 86.0717 242.48 86.339 241.923 86.4874C241.365 86.6359 240.782 86.662 240.213 86.5639L239.793 80.1039Z" fill="#ED893E"/>
<path d="M237.435 88.9839C236.666 88.9462 235.913 88.749 235.225 88.4047C234.536 88.0603 233.927 87.5765 233.435 86.9839C233.403 86.9415 233.39 86.8882 233.397 86.8357C233.405 86.7831 233.433 86.7358 233.475 86.7039C233.517 86.6721 233.571 86.6585 233.623 86.666C233.676 86.6735 233.723 86.7015 233.755 86.7439C234.318 87.3806 235.024 87.8741 235.815 88.1837C236.606 88.4932 237.46 88.6098 238.305 88.5239C238.336 88.5171 238.368 88.5173 238.398 88.5244C238.429 88.5315 238.457 88.5455 238.482 88.5651C238.506 88.5848 238.526 88.6097 238.54 88.6381C238.553 88.6664 238.561 88.6975 238.561 88.7289C238.561 88.7604 238.553 88.7914 238.54 88.8198C238.526 88.8481 238.506 88.8731 238.482 88.8928C238.457 88.9124 238.429 88.9263 238.398 88.9335C238.368 88.9406 238.336 88.9408 238.305 88.9339C238.016 88.9698 237.726 88.9865 237.435 88.9839Z" fill="#263238"/>
<path d="M231.355 78.2539C231.287 78.2527 231.221 78.2319 231.165 78.1939C231.121 78.1647 231.083 78.1269 231.053 78.0828C231.024 78.0387 231.003 77.9891 230.993 77.937C230.983 77.8848 230.983 77.8312 230.994 77.7791C231.004 77.7271 231.025 77.6777 231.055 77.6339C231.391 77.0869 231.853 76.6288 232.403 76.2981C232.953 75.9674 233.575 75.7739 234.215 75.7339C234.321 75.7339 234.423 75.776 234.498 75.851C234.573 75.9261 234.615 76.0278 234.615 76.1339C234.615 76.2426 234.572 76.3469 234.495 76.4238C234.418 76.5007 234.314 76.5439 234.205 76.5439C233.701 76.586 233.213 76.7465 232.782 77.0123C232.351 77.2781 231.989 77.6418 231.725 78.0739C231.686 78.1346 231.63 78.1834 231.565 78.2151C231.5 78.2468 231.427 78.2602 231.355 78.2539Z" fill="#263238"/>
<path d="M245.395 76.3839C245.33 76.3932 245.264 76.3862 245.203 76.3635C245.142 76.3408 245.087 76.3031 245.045 76.2539C244.726 75.8621 244.318 75.5523 243.856 75.3505C243.393 75.1487 242.888 75.0607 242.385 75.0939C242.279 75.1053 242.173 75.0752 242.089 75.0099C242.005 74.9446 241.949 74.8492 241.935 74.7439C241.928 74.6913 241.931 74.6379 241.945 74.5866C241.959 74.5354 241.983 74.4875 242.015 74.4456C242.048 74.4037 242.088 74.3688 242.135 74.3427C242.181 74.3167 242.232 74.3001 242.285 74.2939C242.92 74.2468 243.557 74.352 244.143 74.6008C244.729 74.8495 245.247 75.2345 245.655 75.7239C245.722 75.8051 245.754 75.9093 245.745 76.0142C245.735 76.119 245.685 76.2159 245.605 76.2839C245.548 76.3402 245.474 76.3755 245.395 76.3839Z" fill="#263238"/>
<path d="M183.433 375.204L191.943 375.074L195.443 355.364L186.933 355.504L183.433 375.204Z" fill="#407BFF"/>
<path d="M192.404 374.094L183.144 374.234C182.979 374.235 182.819 374.295 182.694 374.403C182.57 374.511 182.488 374.661 182.464 374.824L181.394 382.404C181.369 382.593 181.386 382.785 181.442 382.966C181.499 383.148 181.594 383.315 181.721 383.457C181.849 383.599 182.005 383.711 182.18 383.786C182.354 383.862 182.543 383.898 182.734 383.894C186.074 383.784 187.124 383.514 191.324 383.454C196.244 383.374 193.964 383.574 199.734 383.454C203.214 383.404 203.894 379.874 202.414 379.564C197.734 378.564 196.564 376.694 194.504 374.694C193.909 374.228 193.155 374.013 192.404 374.094Z" fill="#263238"/>
<path d="M190.633 374.984C192.103 375.034 192.893 374.984 193.273 374.314C193.653 373.644 194.983 371.694 194.883 370.964C194.783 370.234 188.813 369.634 188.223 370.814C187.633 371.994 187.633 374.904 190.633 374.984Z" fill="#263238"/>
<path d="M237.494 374.984C238.414 375.034 238.904 374.984 239.124 374.314C239.581 373.243 239.897 372.117 240.064 370.964C239.994 370.224 236.244 369.634 235.894 370.814C235.544 371.994 235.624 374.904 237.494 374.984Z" fill="#263238"/>
<path opacity="0.2" d="M195.443 355.374L193.633 365.534L185.123 365.664L186.933 355.504L195.443 355.374Z" fill="black"/>
<path d="M197.985 265.284C201.985 226.804 206.685 195.284 212.705 186.744L242.795 186.264C242.795 186.264 225.245 246.624 218.485 272.064C211.485 298.514 197.675 361.004 197.675 361.004L183.975 361.194C183.975 361.194 189.645 295.344 197.985 265.284Z" fill="#407BFF"/>
<path opacity="0.4" d="M197.985 265.284C201.985 226.804 206.685 195.284 212.705 186.744L242.795 186.264C242.795 186.264 225.245 246.624 218.485 272.064C211.485 298.514 197.675 361.004 197.675 361.004L183.975 361.194C183.975 361.194 189.645 295.344 197.985 265.284Z" fill="black"/>
<path d="M199.395 357.964L198.285 363.824L182.905 364.094L182.225 358.554L199.395 357.964Z" fill="#263238"/>
<path d="M232.623 122.774C232.713 120.634 235.173 117.774 236.773 116.604C224.923 113.334 222.703 109.034 222.703 109.034C221.852 109.255 221.034 109.592 220.273 110.034C219.573 116.674 227.793 121.244 232.623 122.774Z" fill="white"/>
<path d="M239.615 116.434C242.273 117.671 244.454 119.743 245.825 122.334C250.755 113.534 243.825 108.454 243.825 108.454C243.058 108.237 242.254 108.183 241.465 108.294C242.795 111.234 241.265 115.104 239.615 116.434Z" fill="white"/>
<path d="M169.266 126.605L244.541 138.245L236.106 192.797L160.83 181.157L169.266 126.605Z" fill="#407BFF"/>
<path opacity="0.9" d="M169.266 126.605L244.541 138.245L236.106 192.797L160.83 181.157L169.266 126.605Z" fill="white"/>
<path opacity="0.2" d="M169.26 126.6L208.504 132.668L200.069 187.22L160.825 181.152L169.26 126.6Z" fill="#407BFF"/>
<path opacity="0.3" d="M224.127 175.576L233.574 177.037L232.15 186.247L222.702 184.786L224.127 175.576Z" fill="#407BFF"/>
<path opacity="0.3" d="M225.894 164.149L235.342 165.61L233.918 174.821L224.47 173.36L225.894 164.149Z" fill="#407BFF"/>
<path opacity="0.5" d="M220.278 134.497L233.6 136.557L232.889 141.152L219.567 139.092L220.278 134.497Z" fill="#407BFF"/>
<path opacity="0.5" d="M178.61 128.043L187.969 129.49L187.258 134.085L177.899 132.638L178.61 128.043Z" fill="#407BFF"/>
<path d="M209.563 112.674C203.793 115.43 198.229 118.599 192.913 122.154C190.122 123.982 187.45 125.986 184.913 128.154C183.523 129.356 182.214 130.649 180.993 132.024C180.295 132.834 179.65 133.689 179.063 134.584C178.307 135.72 177.711 136.955 177.293 138.254C177.007 139.134 176.839 140.049 176.793 140.974C176.779 141.134 176.779 141.294 176.793 141.454V141.794V142.484L176.843 143.864L176.963 145.154C177.043 146.014 177.133 146.874 177.273 147.684C177.413 148.494 177.503 149.334 177.663 150.124C178.193 153.354 178.973 156.424 179.753 159.484C181.379 165.547 183.383 171.502 185.753 177.314C186.071 178.099 186.662 178.741 187.418 179.122C188.174 179.503 189.042 179.597 189.862 179.385C190.681 179.173 191.396 178.671 191.872 177.972C192.349 177.273 192.556 176.424 192.453 175.584V175.504C191.743 169.504 190.873 163.444 190.243 157.504C189.893 154.504 189.623 151.574 189.443 148.704C189.383 147.984 189.383 147.294 189.343 146.584C189.303 145.874 189.343 145.194 189.343 144.524V143.524V142.604V142.144V141.914C189.343 141.914 189.343 141.684 189.343 141.814C189.352 141.974 189.352 142.134 189.343 142.294C189.343 142.404 189.453 142.184 189.693 141.914C190.003 141.558 190.338 141.224 190.693 140.914C191.572 140.056 192.504 139.255 193.483 138.514C195.603 136.904 197.983 135.324 200.433 133.814C205.343 130.814 210.623 127.934 215.773 125.204H215.843C217.443 124.336 218.641 122.881 219.185 121.145C219.73 119.409 219.577 117.529 218.759 115.904C217.941 114.279 216.523 113.036 214.805 112.439C213.086 111.842 211.203 111.937 209.553 112.704L209.563 112.674Z" fill="#407BFF"/>
<path d="M191.724 173.984L196.824 180.904L187.144 184.444C187.144 184.444 183.284 177.614 186.584 174.984L191.724 173.984Z" fill="#263238"/>
<path d="M195.545 189.744L191.945 190.414C191.251 190.537 190.536 190.412 189.926 190.061C189.315 189.71 188.847 189.155 188.605 188.494L187.145 184.494L196.795 180.904L197.895 186.214C198.051 186.994 197.891 187.803 197.45 188.465C197.01 189.127 196.324 189.587 195.545 189.744Z" fill="#263238"/>
<path d="M192.564 175.904C192.564 175.904 192.384 171.194 192.264 169.964C190.854 169.874 183.714 171.524 183.534 172.104C184.414 174.464 185.534 177.604 185.534 177.604L192.564 175.904Z" fill="#263238"/>
<path d="M216.984 77.6739C221.814 77.1339 241.654 72.3039 243.494 70.3939C243.624 66.7039 241.494 62.9739 240.184 62.1339C236.534 59.7339 228.504 59.6439 225.954 60.3639C223.404 61.0839 216.424 64.6339 215.264 68.0539C214.364 70.7639 216.984 77.6739 216.984 77.6739Z" fill="#407BFF"/>
<path d="M237.014 69.2439C243.104 68.2939 248.894 68.7139 250.944 71.7939C253.234 75.2339 245.694 70.1239 241.194 72.3239C233.664 76.0239 235.454 76.6039 224.044 76.3239C229.914 73.3439 229.954 70.3439 237.014 69.2439Z" fill="#407BFF"/>
<path opacity="0.6" d="M237.014 69.2439C243.104 68.2939 248.894 68.7139 250.944 71.7939C253.234 75.2339 245.694 70.1239 241.194 72.3239C233.664 76.0239 235.454 76.6039 224.044 76.3239C229.914 73.3439 229.954 70.3439 237.014 69.2439Z" fill="white"/>
<path d="M223.434 83.5639C223.314 83.4774 223.232 83.3477 223.206 83.2022C223.18 83.0566 223.211 82.9066 223.294 82.7839C223.38 82.6634 223.511 82.582 223.657 82.5577C223.803 82.5333 223.953 82.5679 224.074 82.6539C226.162 84.095 228.107 85.7325 229.884 87.5439C232.064 85.2739 238.194 82.8839 241.404 82.9339C243.694 82.9339 245.214 82.8239 246.924 84.5139C248.384 85.9439 247.174 93.5139 246.254 95.6539C245.723 96.8278 244.934 97.8665 243.945 98.6925C242.956 99.5185 241.793 100.11 240.544 100.424C237.164 101.034 229.944 101.424 229.644 96.4839C229.581 95.3749 229.437 94.272 229.214 93.1839C228.735 93.2659 228.25 93.3094 227.764 93.3139C226.302 93.3456 224.872 92.8842 223.704 92.0039C223.645 91.9597 223.596 91.9043 223.56 91.841C223.523 91.7776 223.499 91.7076 223.49 91.6349C223.48 91.5622 223.486 91.4885 223.505 91.4179C223.525 91.3473 223.558 91.2813 223.604 91.2239C223.649 91.1651 223.705 91.1158 223.769 91.0789C223.834 91.0421 223.905 91.0183 223.978 91.009C224.051 90.9997 224.126 91.005 224.197 91.0248C224.269 91.0445 224.336 91.0782 224.394 91.1239C225.051 91.5894 225.795 91.9179 226.582 92.0897C227.369 92.2615 228.182 92.2731 228.974 92.1239C228.654 90.6639 228.494 89.7239 229.204 88.5039C227.45 86.6686 225.517 85.0137 223.434 83.5639Z" fill="#407BFF"/>
<path opacity="0.6" d="M223.434 83.5639C223.314 83.4774 223.232 83.3477 223.206 83.2022C223.18 83.0566 223.211 82.9066 223.294 82.7839C223.38 82.6634 223.511 82.582 223.657 82.5577C223.803 82.5333 223.953 82.5679 224.074 82.6539C226.162 84.095 228.107 85.7325 229.884 87.5439C232.064 85.2739 238.194 82.8839 241.404 82.9339C243.694 82.9339 245.214 82.8239 246.924 84.5139C248.384 85.9439 247.174 93.5139 246.254 95.6539C245.723 96.8278 244.934 97.8665 243.945 98.6925C242.956 99.5185 241.793 100.11 240.544 100.424C237.164 101.034 229.944 101.424 229.644 96.4839C229.581 95.3749 229.437 94.272 229.214 93.1839C228.735 93.2659 228.25 93.3094 227.764 93.3139C226.302 93.3456 224.872 92.8842 223.704 92.0039C223.645 91.9597 223.596 91.9043 223.56 91.841C223.523 91.7776 223.499 91.7076 223.49 91.6349C223.48 91.5622 223.486 91.4885 223.505 91.4179C223.525 91.3473 223.558 91.2813 223.604 91.2239C223.649 91.1651 223.705 91.1158 223.769 91.0789C223.834 91.0421 223.905 91.0183 223.978 91.009C224.051 90.9997 224.126 91.005 224.197 91.0248C224.269 91.0445 224.336 91.0782 224.394 91.1239C225.051 91.5894 225.795 91.9179 226.582 92.0897C227.369 92.2615 228.182 92.2731 228.974 92.1239C228.654 90.6639 228.494 89.7239 229.204 88.5039C227.45 86.6686 225.517 85.0137 223.434 83.5639Z" fill="white"/>
</g>
<defs>
<clipPath id="clip0_348:886">
<rect width="421" height="406" fill="white" transform="matrix(-1 0 0 1 421 0)"/>
</clipPath>
</defs>
</svg>
