<svg width="26" height="26" viewBox="0 0 26 26" fill="none" xmlns="http://www.w3.org/2000/svg">
<path fill-rule="evenodd" clip-rule="evenodd" d="M4.57109 9.78328C4.57109 9.78328 4.78126 14.8262 4.93943 18.6309C5.05426 21.3869 6.56334 25.2692 10.2287 25.2692C12.0487 25.2692 14.1786 25.2692 15.9986 25.2692C19.7378 25.2692 20.8774 21.3869 20.9923 18.6309C21.1504 14.8262 21.3606 9.78328 21.3606 9.78328C21.3801 9.33586 21.0313 8.9567 20.5828 8.93828C20.1353 8.91878 19.7562 9.26761 19.7378 9.71611C19.7378 9.71611 19.5276 14.759 19.3683 18.5626C19.2903 20.4487 18.8657 23.6442 15.9986 23.6442C14.1786 23.6442 12.0487 23.6442 10.2287 23.6442C7.43543 23.6442 6.64134 20.4487 6.56334 18.5626C6.40409 14.759 6.19393 9.71611 6.19393 9.71611C6.17551 9.26761 5.79634 8.91878 5.34893 8.93828C4.90043 8.9567 4.55159 9.33586 4.57109 9.78328Z" fill="white"/>
<path fill-rule="evenodd" clip-rule="evenodd" d="M8.06366 5.6875L8.46882 4.47417C8.87399 3.25758 10.0126 2.4375 11.2952 2.4375C12.3179 2.4375 13.6482 2.4375 14.6709 2.4375C15.9536 2.4375 17.0922 3.25758 17.4973 4.47417L17.9025 5.6875H21.6497C22.0982 5.6875 22.4622 6.0515 22.4622 6.5C22.4622 6.9485 22.0982 7.3125 21.6497 7.3125H4.31641C3.86791 7.3125 3.50391 6.9485 3.50391 6.5C3.50391 6.0515 3.86791 5.6875 4.31641 5.6875H8.06366ZM16.1887 5.6875L15.9557 4.98875C15.7716 4.43517 15.2548 4.0625 14.6709 4.0625C13.6482 4.0625 12.3179 4.0625 11.2952 4.0625C10.7113 4.0625 10.1946 4.43517 10.0104 4.98875L9.77749 5.6875H16.1887Z" fill="white"/>
<path fill-rule="evenodd" clip-rule="evenodd" d="M10.0039 11.9146V17.3312C10.0039 17.7797 10.3679 18.1437 10.8164 18.1437C11.2649 18.1437 11.6289 17.7797 11.6289 17.3312V11.9146C11.6289 11.4661 11.2649 11.1021 10.8164 11.1021C10.3679 11.1021 10.0039 11.4661 10.0039 11.9146Z" fill="white"/>
<path fill-rule="evenodd" clip-rule="evenodd" d="M14.3203 11.9146V17.3312C14.3203 17.7797 14.6843 18.1437 15.1328 18.1437C15.5813 18.1437 15.9453 17.7797 15.9453 17.3312V11.9146C15.9453 11.4661 15.5813 11.1021 15.1328 11.1021C14.6843 11.1021 14.3203 11.4661 14.3203 11.9146Z" fill="white"/>
</svg>
