<svg width="28" height="28" viewBox="0 0 28 28" fill="none" xmlns="http://www.w3.org/2000/svg">
<path d="M1.28906 1.48734H6.7224L8.39181 7.37044M8.39181 7.37044L11.0243 16.6476H24.6087L26.8728 7.37044H8.39181Z" stroke="white" stroke-width="1.3" stroke-linecap="round" stroke-linejoin="round"/>
<path d="M11.798 27.0195C13.3551 27.0195 14.58 25.72 14.58 24.1639C14.58 22.6078 13.3551 21.3083 11.798 21.3083C10.2409 21.3083 9.01602 22.6078 9.01602 24.1639C9.01602 25.72 10.2409 27.0195 11.798 27.0195Z" stroke="white" stroke-width="1.3"/>
<path d="M23.0734 27.0195C24.6304 27.0195 25.8554 25.72 25.8554 24.1639C25.8554 22.6078 24.6304 21.3083 23.0734 21.3083C21.5163 21.3083 20.2914 22.6078 20.2914 24.1639C20.2914 25.72 21.5163 27.0195 23.0734 27.0195Z" stroke="white" stroke-width="1.3"/>
</svg>
