<svg width="41" height="36" viewBox="0 0 41 36" fill="none" xmlns="http://www.w3.org/2000/svg">
<path d="M32.8081 29.4297C32.8081 36.2407 27.185 37.2915 20.3732 33.9133C19.7608 33.6095 19.0359 33.6096 18.4234 33.9131C11.6049 37.2915 5.91016 36.2408 5.91016 29.4297C5.91016 26.3125 9.20749 23.6307 11.122 21.3991C13.5887 18.5241 13.6166 14.4443 19.3983 14.4443C25.1801 14.4443 25.208 18.5241 27.6746 21.3991C30.1413 24.2742 32.8081 26.3125 32.8081 29.4297Z" fill="#241F1F"/>
<ellipse rx="4.13837" ry="3.10876" transform="matrix(0.641337 0.767259 -0.772673 0.634804 5.58798 14.2597)" fill="#241F1F"/>
<ellipse rx="3.71819" ry="4.92059" transform="matrix(0.966838 -0.255388 0.25954 0.965732 14.37 5.92373)" fill="#241F1F"/>
<ellipse rx="3.61853" ry="4.79028" transform="matrix(0.957083 0.289814 -0.294428 0.955674 25.9083 5.84881)" fill="#241F1F"/>
<ellipse rx="4.14596" ry="3.10307" transform="matrix(0.789489 -0.613765 0.620364 0.784314 35.333 14.3335)" fill="#241F1F"/>
</svg>
