<svg width="41" height="40" viewBox="0 0 41 40" fill="none" xmlns="http://www.w3.org/2000/svg">
<path d="M32.9468 31.4297C32.9468 38.2407 27.3237 39.2915 20.5119 35.9133C19.8994 35.6095 19.1746 35.6096 18.5621 35.9131C11.7436 39.2915 6.04883 38.2408 6.04883 31.4297C6.04883 28.3125 9.34616 25.6307 11.2607 23.3991C13.7274 20.5241 13.7552 16.4443 19.537 16.4443C25.3188 16.4443 25.3466 20.5241 27.8133 23.3991C30.28 26.2742 32.9468 28.3125 32.9468 31.4297Z" fill="#241F1F"/>
<ellipse rx="4.13837" ry="3.10876" transform="matrix(0.641337 0.767259 -0.772673 0.634804 5.72665 16.2597)" fill="#241F1F"/>
<ellipse rx="3.71819" ry="4.92059" transform="matrix(0.966838 -0.255388 0.25954 0.965732 14.5087 7.92373)" fill="#241F1F"/>
<ellipse rx="3.61853" ry="4.79028" transform="matrix(0.957083 0.289814 -0.294428 0.955674 26.047 7.84881)" fill="#241F1F"/>
<ellipse rx="4.14596" ry="3.10307" transform="matrix(0.789489 -0.613765 0.620364 0.784314 35.4717 16.3335)" fill="#241F1F"/>
</svg>
