<svg width="41" height="36" viewBox="0 0 41 36" fill="none" xmlns="http://www.w3.org/2000/svg">
<path d="M33.1855 29.3869C33.1855 36.1978 27.5625 37.2487 20.7506 33.8705C20.1382 33.5667 19.4134 33.5667 18.8008 33.8703C11.9824 37.2487 6.2876 36.198 6.2876 29.3869C6.2876 26.2697 9.58493 23.5878 11.4995 21.3563C13.9662 18.4813 13.994 14.4015 19.7758 14.4015C25.5575 14.4015 25.5854 18.4813 28.0521 21.3563C30.5187 24.2314 33.1855 26.2697 33.1855 29.3869Z" fill="white"/>
<ellipse rx="4.13837" ry="3.10876" transform="matrix(0.641337 0.767259 -0.772673 0.634804 5.96444 14.2168)" fill="white"/>
<ellipse rx="3.71819" ry="4.92059" transform="matrix(0.966838 -0.255388 0.25954 0.965732 14.746 5.88088)" fill="white"/>
<ellipse rx="3.61853" ry="4.79028" transform="matrix(0.957083 0.289814 -0.294428 0.955674 26.2853 5.80594)" fill="white"/>
<ellipse rx="4.14596" ry="3.10307" transform="matrix(0.789489 -0.613765 0.620364 0.784314 35.7099 14.2907)" fill="white"/>
</svg>
