<svg width="501" height="501" viewBox="0 0 501 501" fill="none" xmlns="http://www.w3.org/2000/svg">
<path d="M465.975 477.904C465.975 478.054 369.645 478.164 250.845 478.164C132.045 478.164 35.6953 478.054 35.6953 477.904C35.6953 477.754 132.005 477.644 250.845 477.644C369.685 477.644 465.975 477.764 465.975 477.904Z" fill="#263238"/>
<path d="M419.436 66.0043H390.436C388.533 66.0541 386.726 66.857 385.414 68.2368C384.102 69.6166 383.391 71.4607 383.436 73.3643V78.6243C383.482 80.528 382.77 82.3721 381.458 83.7519C380.146 85.1317 378.34 85.9346 376.436 85.9843H319.886C317.976 85.9371 316.161 85.1353 314.84 83.7542C313.519 82.3732 312.799 80.5252 312.836 78.6143V73.3043C312.874 71.4029 312.16 69.5633 310.849 68.1853C309.539 66.8072 307.737 66.0019 305.836 65.9443H295.636H270.246C264.189 65.9443 258.38 68.349 254.096 72.6299C249.811 76.9108 247.401 82.7176 247.396 88.7743L247.326 454.944C247.326 460.997 249.73 466.803 254.009 471.084C258.289 475.365 264.093 477.772 270.146 477.774L419.486 477.864C422.485 477.867 425.454 477.279 428.225 476.133C430.996 474.987 433.514 473.307 435.635 471.188C437.756 469.068 439.439 466.552 440.587 463.782C441.735 461.012 442.326 458.043 442.326 455.044L442.396 88.8643C442.4 85.8528 441.808 82.8702 440.655 80.0883C439.501 77.3065 437.808 74.7804 435.674 72.6555C433.54 70.5307 431.007 68.8491 428.22 67.7076C425.433 66.566 422.448 65.9872 419.436 66.0043Z" fill="white"/>
<path d="M419.436 66.0044C419.436 66.0044 419.696 66.0044 420.216 66.0044C420.989 66.0031 421.761 66.0599 422.526 66.1744C425.563 66.5571 428.484 67.5796 431.096 69.1744C433.033 70.3104 434.786 71.7332 436.296 73.3944C438.144 75.388 439.617 77.6982 440.646 80.2144C441.833 83.1582 442.414 86.3109 442.356 89.4844C442.356 92.8544 442.356 96.4844 442.356 100.244C442.356 130.664 442.406 174.674 442.436 229.044C442.466 283.414 442.436 348.184 442.436 420.044V454.264C442.49 456.628 442.197 458.986 441.566 461.264C440.929 463.548 439.944 465.72 438.646 467.704C437.323 469.68 435.724 471.454 433.896 472.974C430.141 476.015 425.529 477.805 420.706 478.094C415.926 478.234 411.166 478.094 406.366 478.154H377.326H317.656H271.726C266.438 478.424 261.207 476.952 256.836 473.964C252.511 470.933 249.339 466.527 247.836 461.464C247.123 458.955 246.803 456.351 246.886 453.744V446.044C246.886 435.804 246.886 425.628 246.886 415.514C246.886 395.314 246.886 375.421 246.886 355.834C246.886 316.704 246.886 278.964 246.886 243.004C246.886 207.044 246.886 172.884 246.886 140.904C246.886 124.904 246.886 109.484 246.886 94.6444C246.886 92.7844 246.886 90.9344 246.886 89.1044C246.886 88.1844 246.966 87.2544 247.016 86.3344C247.066 85.4144 247.246 84.5044 247.476 83.6144C248.3 80.056 249.948 76.7406 252.286 73.9344C254.556 71.235 257.413 69.0896 260.638 67.6616C263.863 66.2336 267.371 65.5608 270.896 65.6944H290.796H305.056C306.652 65.6092 308.232 66.0482 309.556 66.9444C310.843 67.8498 311.818 69.132 312.346 70.6144C312.784 72.0748 312.941 73.6055 312.806 75.1244V77.4244C312.784 78.1518 312.807 78.8799 312.876 79.6044C313.09 81.0322 313.727 82.363 314.706 83.4244C315.616 84.4907 316.836 85.2459 318.196 85.5844C318.867 85.7452 319.556 85.8158 320.246 85.7944H330.596H360.696H373.966C375.016 85.7944 376.086 85.7944 377.076 85.7944C378.068 85.6702 379.021 85.3288 379.866 84.7944C380.679 84.2791 381.38 83.6069 381.93 82.817C382.479 82.0271 382.866 81.1355 383.066 80.1944C383.231 79.2774 383.291 78.3449 383.246 77.4144C383.246 76.4944 383.246 75.5844 383.246 74.6844C383.206 73.7959 383.246 72.9056 383.366 72.0244C383.51 71.1676 383.801 70.3422 384.226 69.5844C385.034 68.1503 386.308 67.0354 387.836 66.4244C389.302 65.9623 390.846 65.7991 392.376 65.9444H407.186H416.286H419.396H416.286H407.186H392.376C390.916 65.9444 389.376 65.7944 387.916 66.4344C386.413 67.0378 385.165 68.144 384.386 69.5644C383.981 70.307 383.701 71.111 383.556 71.9444C383.448 72.8133 383.411 73.6895 383.446 74.5644C383.446 75.4644 383.446 76.3744 383.446 77.2944C383.485 78.2414 383.425 79.1899 383.266 80.1244C383.061 81.0989 382.663 82.0227 382.096 82.8418C381.53 83.6608 380.806 84.3586 379.966 84.8944C379.082 85.4394 378.088 85.781 377.056 85.8944C375.996 85.9844 374.976 85.8944 373.916 85.8944H320.246C319.523 85.9228 318.8 85.8521 318.096 85.6844C316.659 85.3323 315.371 84.5341 314.416 83.4044C313.434 82.2772 312.804 80.8862 312.606 79.4044C312.544 78.7463 312.52 78.0852 312.536 77.4244V75.1644C312.66 73.6924 312.508 72.2102 312.086 70.7944C311.589 69.3911 310.666 68.178 309.446 67.3244C308.188 66.4791 306.69 66.0651 305.176 66.1444H271.016C267.558 66.0141 264.116 66.6762 260.953 68.0801C257.79 69.4839 254.989 71.5924 252.766 74.2444C250.483 76.9941 248.876 80.2411 248.076 83.7244C247.846 84.5944 247.776 85.4944 247.616 86.3844C247.456 87.2744 247.506 88.1844 247.496 89.1044V94.6444C247.496 109.484 247.496 124.904 247.496 140.904C247.496 172.904 247.496 207.054 247.496 243.004V355.834C247.496 375.394 247.496 395.288 247.496 415.514V453.744C247.409 456.29 247.72 458.834 248.416 461.284C249.895 466.211 252.996 470.493 257.216 473.434C261.478 476.325 266.574 477.731 271.716 477.434H287.136H317.646H377.316H406.396C411.186 477.434 415.986 477.514 420.706 477.374C425.4 477.09 429.887 475.341 433.536 472.374C435.319 470.897 436.878 469.169 438.166 467.244C439.427 465.315 440.385 463.204 441.006 460.984C441.618 458.771 441.904 456.48 441.856 454.184C441.856 451.864 441.856 449.564 441.856 447.254C441.856 438.054 441.856 428.958 441.856 419.964C441.856 348.074 441.926 283.314 441.956 228.964C441.986 174.614 442.056 130.584 442.086 100.164C442.086 96.3644 442.086 92.7744 442.086 89.4044C442.151 86.2568 441.583 83.1282 440.416 80.2044C439.403 77.7061 437.95 75.4098 436.126 73.4244C432.558 69.4931 427.724 66.9381 422.466 66.2044C421.704 66.0863 420.936 66.0162 420.166 65.9944C419.696 66.0344 419.436 66.0044 419.436 66.0044Z" fill="#263238"/>
<path d="M284.225 102.984C284.225 103.074 280.445 103.194 275.795 103.224C271.145 103.254 267.365 103.224 267.365 103.124C267.365 103.024 271.135 102.914 275.795 102.874C280.455 102.834 284.225 102.884 284.225 102.984Z" fill="#263238"/>
<path d="M284.256 107.294C284.256 107.394 280.486 107.504 275.836 107.544C271.186 107.584 267.406 107.544 267.406 107.434C267.406 107.324 271.176 107.224 275.826 107.184C280.476 107.144 284.256 107.194 284.256 107.294Z" fill="#263238"/>
<path d="M284.296 111.604C284.296 111.704 280.526 111.814 275.866 111.854C271.206 111.894 267.436 111.854 267.436 111.744C267.436 111.634 271.206 111.534 275.866 111.494C280.526 111.454 284.296 111.504 284.296 111.604Z" fill="#263238"/>
<path d="M339.575 385.324H264.525V460.374H339.575V385.324Z" fill="#F5F5F5"/>
<path d="M330.716 428.264C324.606 419.734 311.636 413.894 301.096 415.464C292.556 416.734 284.996 420.704 280.856 429.184C280.578 429.738 280.438 430.35 280.448 430.969C280.457 431.588 280.616 432.196 280.91 432.741C281.205 433.285 281.626 433.751 282.139 434.098C282.652 434.445 283.24 434.663 283.856 434.734C298.085 436.433 312.468 436.386 326.686 434.594C328.876 434.314 331.486 433.704 331.636 430.994C331.649 430.006 331.325 429.043 330.716 428.264Z" fill="#034498"/>
<g opacity="0.5">
<path opacity="0.5" d="M330.715 428.264C324.605 419.734 311.635 413.894 301.095 415.464C292.555 416.734 284.995 420.704 280.855 429.184" fill="white"/>
</g>
<path d="M296.976 427.834C296.926 427.834 296.486 427.444 295.906 426.644C295.132 425.586 294.58 424.382 294.286 423.104C294.036 421.834 293.929 420.539 293.966 419.244C293.921 418.711 293.965 418.173 294.096 417.654C294.262 418.164 294.344 418.698 294.336 419.234C294.403 420.493 294.554 421.746 294.786 422.984C295.083 424.202 295.562 425.369 296.206 426.444C296.521 426.873 296.78 427.34 296.976 427.834Z" fill="#F5F5F5"/>
<path d="M306.027 427.424C305.877 427.424 306.097 425.004 305.777 422.064C305.457 419.124 304.777 416.814 304.907 416.764C306.377 420.116 306.768 423.841 306.027 427.424Z" fill="#F5F5F5"/>
<path d="M315.386 426.034C315.236 425.974 315.946 424.365 316.116 422.245C316.286 420.125 315.896 418.415 316.046 418.375C316.549 419.613 316.751 420.952 316.636 422.284C316.522 423.615 316.093 424.901 315.386 426.034Z" fill="#F5F5F5"/>
<g opacity="0.3">
<path opacity="0.3" d="M304.365 415.864L304.445 416.014L304.365 415.864Z" fill="black"/>
</g>
<path d="M340.445 142.714H264.525V256.524H340.445V142.714Z" fill="#F5F5F5"/>
<path d="M340.445 265.104H264.525V378.914H340.445V265.104Z" fill="#F5F5F5"/>
<path d="M423.596 243.614H347.676V349.874H423.596V243.614Z" fill="#F5F5F5"/>
<path d="M422.977 357.344H347.057V460.364H422.977V357.344Z" fill="#F5F5F5"/>
<path d="M423.596 142.714H347.676V236.714H423.596V142.714Z" fill="#F5F5F5"/>
<path d="M314.416 176.744V208.294C314.416 209.674 313.306 211.104 311.266 212.184C308.533 213.468 305.535 214.091 302.516 214.004H302.466C295.016 214.004 290.566 211.064 290.566 208.294V176.684C290.566 173.604 292.836 170.394 295.116 167.214C296.646 165.094 297.016 162.044 297.116 160.214C297.116 160.004 297.116 159.814 297.116 159.634H296.906C296.469 159.668 296.036 159.526 295.703 159.242C295.369 158.957 295.162 158.552 295.126 158.114V156.784C295.16 156.345 295.366 155.936 295.699 155.648C296.032 155.359 296.466 155.214 296.906 155.244H308.096C308.429 155.235 308.757 155.317 309.046 155.481C309.335 155.644 309.574 155.884 309.736 156.174C309.828 156.365 309.876 156.573 309.876 156.784V158.114C309.838 158.551 309.63 158.954 309.297 159.238C308.964 159.523 308.533 159.665 308.096 159.634H307.836C307.836 159.814 307.836 160.004 307.836 160.214C307.906 162.014 308.276 165.064 309.836 167.214C312.116 170.394 314.376 173.604 314.386 176.684L314.416 176.744Z" fill="#FAFAFA"/>
<path d="M314.415 176.744V176.424C314.388 176.109 314.345 175.795 314.285 175.484C314.017 174.291 313.572 173.145 312.965 172.084C311.989 170.396 310.911 168.77 309.735 167.214C308.359 164.941 307.665 162.321 307.735 159.664V159.484H307.835C308.229 159.544 308.631 159.455 308.964 159.236C309.296 159.016 309.536 158.68 309.635 158.294C309.635 157.894 309.635 157.404 309.635 156.954C309.659 156.748 309.63 156.539 309.552 156.346C309.473 156.154 309.347 155.985 309.185 155.854C308.844 155.58 308.413 155.441 307.975 155.464H303.465H297.025C296.774 155.442 296.522 155.473 296.284 155.556C296.046 155.639 295.828 155.771 295.645 155.944C295.479 156.119 295.368 156.338 295.325 156.574C295.309 156.847 295.309 157.121 295.325 157.394C295.325 157.674 295.325 158.004 295.325 158.234C295.357 158.478 295.465 158.706 295.635 158.884C295.821 159.072 296.048 159.215 296.297 159.304C296.546 159.392 296.812 159.423 297.075 159.394H297.305V159.644C297.293 160.935 297.153 162.222 296.885 163.484C296.625 164.81 296.113 166.073 295.375 167.204C293.693 169.344 292.304 171.698 291.245 174.204C291.02 174.851 290.872 175.523 290.805 176.204C290.805 176.874 290.805 177.614 290.805 178.324V182.664C290.805 185.598 290.805 188.571 290.805 191.584C290.805 196.884 290.805 202.064 290.805 207.064C290.775 207.666 290.801 208.268 290.885 208.864C291.03 209.424 291.316 209.937 291.715 210.354C292.529 211.219 293.518 211.901 294.615 212.354C296.777 213.221 299.077 213.692 301.405 213.744C303.622 213.86 305.844 213.661 308.005 213.154C310.045 212.751 311.918 211.748 313.385 210.274C313.699 209.912 313.937 209.49 314.085 209.034C314.197 208.57 314.238 208.091 314.205 207.614V204.714C314.205 202.814 314.205 200.994 314.205 199.254C314.205 192.324 314.265 186.714 314.285 182.794C314.285 180.874 314.285 179.374 314.285 178.314C314.285 177.254 314.335 176.754 314.335 176.754C314.387 177.273 314.407 177.794 314.395 178.314C314.395 179.374 314.395 180.874 314.445 182.794C314.445 186.714 314.445 192.324 314.525 199.254C314.525 200.994 314.525 202.814 314.525 204.714V207.614C314.563 208.131 314.523 208.65 314.405 209.154C314.242 209.669 313.977 210.145 313.625 210.554C312.105 212.098 310.152 213.144 308.025 213.554C305.823 214.084 303.557 214.296 301.295 214.184C298.895 214.137 296.524 213.656 294.295 212.764C293.13 212.297 292.08 211.584 291.215 210.674C290.762 210.192 290.435 209.604 290.265 208.964C290.168 208.329 290.135 207.686 290.165 207.044C290.165 202.044 290.165 196.864 290.165 191.564C290.165 188.544 290.165 185.571 290.165 182.644V178.304C290.165 177.574 290.165 176.894 290.165 176.144C290.23 175.421 290.385 174.709 290.625 174.024C291.701 171.475 293.118 169.084 294.835 166.914C296.123 164.709 296.767 162.187 296.695 159.634L296.935 159.874C296.607 159.902 296.277 159.857 295.969 159.741C295.661 159.625 295.383 159.441 295.155 159.204C294.922 158.956 294.772 158.642 294.725 158.304C294.725 157.954 294.725 157.704 294.725 157.404C294.706 157.108 294.706 156.811 294.725 156.514C294.784 156.186 294.941 155.882 295.175 155.644C295.398 155.426 295.665 155.258 295.958 155.151C296.252 155.045 296.564 155.001 296.875 155.024H303.315H307.825C308.352 155.009 308.866 155.183 309.275 155.514C309.475 155.684 309.631 155.898 309.732 156.14C309.833 156.381 309.875 156.643 309.855 156.904C309.855 157.374 309.855 157.794 309.855 158.294C309.745 158.764 309.464 159.176 309.066 159.45C308.669 159.724 308.183 159.839 307.705 159.774L307.875 159.604C307.78 162.2 308.432 164.769 309.755 167.004C310.916 168.584 311.978 170.234 312.935 171.944C313.533 173.026 313.952 174.198 314.175 175.414C314.226 175.729 314.256 176.046 314.265 176.364C314.339 176.48 314.39 176.609 314.415 176.744Z" fill="#263238"/>
<path d="M307.246 159.594C303.922 159.944 300.57 159.944 297.246 159.594C300.57 159.245 303.922 159.245 307.246 159.594Z" fill="#263238"/>
<path d="M313.416 180.954C312.881 180.693 312.288 180.569 311.692 180.596C311.097 180.622 310.517 180.797 310.006 181.104C308.985 181.726 307.88 182.201 306.726 182.514C305.318 182.645 303.908 182.292 302.726 181.514C301.548 180.745 300.307 180.076 299.016 179.514C297.735 179.079 296.358 179.012 295.04 179.321C293.723 179.631 292.519 180.304 291.566 181.264V208.264C291.566 208.264 293.056 212.874 303.516 212.154C313.976 211.434 313.146 206.814 313.146 206.814L313.416 180.954Z" fill="#034498"/>
<path d="M394.246 395.674V426.964C394.246 428.344 393.146 429.754 391.106 430.834C388.393 432.115 385.415 432.736 382.416 432.644C375.006 432.644 370.586 429.714 370.586 426.964V395.714C370.586 395.714 370.586 395.714 370.586 395.644C370.586 392.584 372.846 389.394 375.106 386.244C376.636 384.134 376.996 381.094 377.106 379.314C377.106 379.104 377.106 378.914 377.106 378.744H376.836C376.4 378.775 375.97 378.632 375.639 378.348C375.308 378.063 375.102 377.66 375.066 377.224V375.904C375.099 375.468 375.304 375.063 375.636 374.778C375.968 374.493 376.4 374.351 376.836 374.384H387.956C388.286 374.374 388.612 374.454 388.9 374.616C389.187 374.778 389.425 375.016 389.586 375.304C389.674 375.492 389.718 375.697 389.716 375.904V377.224C389.683 377.659 389.479 378.062 389.149 378.347C388.82 378.632 388.391 378.775 387.956 378.744H387.746C387.746 378.914 387.746 379.104 387.746 379.314C387.816 381.094 388.176 384.134 389.696 386.244C391.966 389.394 394.206 392.584 394.226 395.644C394.256 395.634 394.246 395.654 394.246 395.674Z" fill="#FAFAFA"/>
<path d="M394.246 395.674C394.253 395.568 394.253 395.461 394.246 395.354C394.224 395.039 394.184 394.725 394.126 394.414C393.858 393.232 393.417 392.097 392.816 391.044C391.847 389.363 390.772 387.747 389.596 386.204C388.225 383.947 387.531 381.344 387.596 378.704V378.514H387.766C388.157 378.573 388.557 378.484 388.886 378.264C389.215 378.044 389.451 377.709 389.546 377.324C389.546 376.934 389.546 376.444 389.546 375.994C389.565 375.79 389.533 375.584 389.455 375.394C389.377 375.204 389.253 375.036 389.096 374.904C388.756 374.635 388.33 374.496 387.896 374.514H383.416H377.016C376.766 374.492 376.515 374.524 376.279 374.606C376.043 374.689 375.827 374.821 375.646 374.994C375.478 375.167 375.366 375.387 375.326 375.624C375.31 375.894 375.31 376.164 375.326 376.434C375.326 376.704 375.326 377.034 375.326 377.264C375.358 377.508 375.466 377.736 375.636 377.914C375.82 378.099 376.043 378.239 376.289 378.326C376.535 378.412 376.797 378.443 377.056 378.414H377.296V378.664C377.284 379.945 377.143 381.222 376.876 382.474C376.619 383.79 376.11 385.043 375.376 386.164C373.701 388.303 372.322 390.657 371.276 393.164C371.048 393.81 370.903 394.482 370.846 395.164C370.846 395.824 370.846 396.564 370.846 397.264C370.846 398.684 370.846 400.124 370.846 401.584V410.424C370.846 415.694 370.846 420.844 370.846 425.814C370.815 426.409 370.842 427.005 370.926 427.594C371.073 428.153 371.359 428.665 371.756 429.084C372.565 429.946 373.546 430.627 374.636 431.084C376.772 431.924 379.041 432.377 381.336 432.424C383.539 432.539 385.748 432.341 387.896 431.834C389.923 431.44 391.784 430.443 393.236 428.974C393.55 428.616 393.788 428.197 393.936 427.744C394.044 427.283 394.081 426.807 394.046 426.334C394.046 425.334 394.046 424.394 394.046 423.454C394.046 421.564 394.046 419.764 394.046 418.034C394.046 411.144 394.106 405.564 394.126 401.674C394.126 399.764 394.126 398.274 394.176 397.234C394.226 396.194 394.176 395.684 394.176 395.684C394.235 396.199 394.256 396.717 394.236 397.234C394.236 398.234 394.236 399.764 394.236 401.674C394.236 405.564 394.286 411.144 394.326 418.034C394.326 419.764 394.326 421.564 394.326 423.454C394.326 424.394 394.326 425.354 394.326 426.334C394.365 426.848 394.321 427.365 394.196 427.864C394.035 428.374 393.773 428.847 393.426 429.254C391.918 430.793 389.98 431.838 387.866 432.254C385.677 432.783 383.424 432.996 381.176 432.884C378.803 432.835 376.459 432.357 374.256 431.474C373.152 430.999 372.157 430.302 371.336 429.424C370.888 428.943 370.565 428.36 370.396 427.724C370.299 427.096 370.266 426.459 370.296 425.824V397.244C370.296 396.524 370.296 395.844 370.296 395.104C370.362 394.381 370.517 393.67 370.756 392.984C371.824 390.456 373.231 388.085 374.936 385.934C376.21 383.742 376.851 381.239 376.786 378.704L377.016 378.934C376.692 378.961 376.366 378.916 376.062 378.802C375.757 378.688 375.482 378.507 375.256 378.274C375.022 378.028 374.875 377.712 374.836 377.374C374.836 377.034 374.836 376.784 374.836 376.484C374.816 376.188 374.816 375.891 374.836 375.594C374.899 375.27 375.055 374.971 375.286 374.734C375.508 374.518 375.773 374.35 376.065 374.243C376.356 374.137 376.666 374.093 376.976 374.114H383.376H387.856C388.379 374.097 388.892 374.271 389.296 374.604C389.494 374.772 389.651 374.985 389.751 375.225C389.852 375.465 389.895 375.725 389.876 375.984C389.876 376.454 389.876 376.874 389.876 377.364C389.754 377.826 389.472 378.228 389.079 378.5C388.687 378.771 388.21 378.893 387.736 378.844L387.906 378.674C387.813 381.248 388.458 383.795 389.766 386.014C390.927 387.579 391.983 389.219 392.926 390.924C393.522 392 393.94 393.165 394.166 394.374C394.219 394.685 394.246 394.999 394.246 395.314C394.276 395.564 394.266 395.674 394.246 395.674Z" fill="#263238"/>
<path d="M387.127 378.624C383.836 378.971 380.517 378.971 377.227 378.624C380.517 378.278 383.836 378.278 387.127 378.624Z" fill="#263238"/>
<path d="M393.255 399.854C392.724 399.591 392.135 399.466 391.542 399.49C390.95 399.515 390.373 399.688 389.865 399.994C388.853 400.613 387.759 401.088 386.615 401.404C385.207 401.531 383.798 401.178 382.615 400.404C381.445 399.633 380.21 398.964 378.925 398.404C377.653 397.974 376.286 397.909 374.979 398.219C373.672 398.528 372.479 399.199 371.535 400.154V427.014C371.535 427.014 373.005 431.604 383.395 430.884C393.785 430.164 392.975 425.574 392.975 425.574L393.255 399.854Z" fill="#034498"/>
<g opacity="0.5">
<path opacity="0.5" d="M393.255 399.854C392.724 399.591 392.135 399.466 391.542 399.49C390.95 399.515 390.373 399.688 389.865 399.994C388.853 400.613 387.759 401.088 386.615 401.404C385.207 401.531 383.798 401.178 382.615 400.404C381.445 399.633 380.21 398.964 378.925 398.404C377.653 397.974 376.286 397.909 374.979 398.219C373.672 398.528 372.479 399.199 371.535 400.154V427.014C371.535 427.014 373.005 431.604 383.395 430.884C393.785 430.164 392.975 425.574 392.975 425.574L393.255 399.854Z" fill="white"/>
</g>
<path d="M410.526 281.964C410.184 281.825 409.812 281.774 409.445 281.816C409.078 281.858 408.728 281.991 408.426 282.204C408.276 282.304 408.116 282.424 407.966 282.544C402.889 286.298 396.719 288.277 390.406 288.174C378.116 288.174 367.936 281.284 366.116 272.284V270.584C366.131 270.414 366.111 270.243 366.056 270.081C366.002 269.919 365.914 269.77 365.799 269.644C365.684 269.518 365.543 269.417 365.387 269.348C365.231 269.279 365.062 269.244 364.891 269.244C364.72 269.244 364.551 269.279 364.395 269.348C364.238 269.417 364.098 269.518 363.983 269.644C363.867 269.77 363.78 269.919 363.725 270.081C363.671 270.243 363.65 270.414 363.666 270.584V275.344C363.674 275.457 363.697 275.568 363.736 275.674C362.891 277.542 362.445 279.565 362.426 281.614C362.426 292.004 373.426 300.444 387.036 300.444C398.446 300.444 408.036 294.514 410.836 286.444C410.87 286.409 410.891 286.363 410.896 286.314C411.22 285.671 411.4 284.965 411.426 284.244C411.5 283.818 411.455 283.38 411.297 282.978C411.138 282.576 410.871 282.225 410.526 281.964Z" fill="#034498"/>
<g opacity="0.3">
<path opacity="0.3" d="M365.195 276.924C365.195 276.924 376.785 303.584 408.195 284.924C408.195 284.924 400.105 293.324 389.555 295.364C379.995 297.194 365.835 291.804 365.195 276.924Z" fill="black"/>
</g>
<path d="M411.386 283.304C411.196 283.764 410.446 283.894 409.716 283.584C408.986 283.274 408.546 282.644 408.716 282.184C408.886 281.724 409.656 281.604 410.386 281.914C411.116 282.224 411.586 282.844 411.386 283.304Z" fill="#263238"/>
<path d="M423.097 111.424C423.014 111.439 422.929 111.439 422.847 111.424H422.137H419.507L410.677 111.504H410.607V111.434C410.537 110.964 410.467 110.434 410.387 109.974C409.777 105.694 409.237 101.874 408.877 99.3743H408.927H405.927C405.857 99.3829 405.787 99.3829 405.717 99.3743H405.927H406.557H408.907H408.957V99.4243C409.327 101.914 409.897 105.734 410.537 110.004C410.607 110.504 410.677 111.004 410.747 111.464L410.667 111.394H419.497H423.087L423.097 111.424Z" fill="#263238"/>
<path d="M410.295 108.924C410.295 108.924 410.295 108.924 410.365 108.924H410.545H411.255H413.915L423.075 108.834L422.995 108.904C423.255 107.354 423.545 105.684 423.835 103.964C423.985 103.074 424.135 102.194 424.285 101.364L424.365 101.464H413.565H409.275C409.225 101.464 409.205 101.464 409.205 101.464H409.505H410.365H413.565L424.365 101.374H424.465V101.474L424.025 104.064C423.725 105.794 423.435 107.464 423.175 109.064V109.124H423.105H413.945H410.325L410.295 108.924Z" fill="#263238"/>
<path d="M413.835 114.844C413.835 114.844 413.835 114.734 413.765 114.544C413.689 114.285 413.527 114.059 413.305 113.904C413.146 113.792 412.962 113.719 412.769 113.693C412.575 113.667 412.379 113.688 412.195 113.754C411.973 113.838 411.781 113.988 411.645 114.183C411.51 114.379 411.438 114.611 411.438 114.849C411.438 115.087 411.51 115.32 411.645 115.515C411.781 115.711 411.973 115.861 412.195 115.944C412.379 116.015 412.577 116.037 412.771 116.009C412.965 115.981 413.149 115.904 413.305 115.784C413.522 115.626 413.68 115.401 413.755 115.144C413.815 114.954 413.815 114.844 413.825 114.844C413.851 114.946 413.851 115.053 413.825 115.154C413.763 115.442 413.604 115.699 413.375 115.884C413.204 116.018 413.001 116.107 412.787 116.144C412.572 116.18 412.352 116.163 412.145 116.094C411.886 116.006 411.662 115.839 411.503 115.617C411.343 115.394 411.258 115.128 411.258 114.854C411.258 114.581 411.343 114.314 411.503 114.092C411.662 113.87 411.886 113.703 412.145 113.614C412.352 113.541 412.574 113.521 412.791 113.556C413.008 113.591 413.212 113.68 413.385 113.814C413.615 113.994 413.775 114.249 413.835 114.534C413.864 114.636 413.864 114.743 413.835 114.844Z" fill="#263238"/>
<path d="M421.835 114.794C421.835 114.794 421.835 114.684 421.765 114.504C421.691 114.244 421.529 114.017 421.305 113.864C421.147 113.749 420.963 113.675 420.769 113.649C420.576 113.623 420.378 113.645 420.195 113.714C420.03 113.767 419.878 113.856 419.751 113.974C419.625 114.093 419.526 114.238 419.462 114.4C419.398 114.561 419.371 114.735 419.383 114.908C419.395 115.081 419.445 115.249 419.529 115.401C419.614 115.552 419.732 115.683 419.873 115.784C420.015 115.884 420.177 115.952 420.348 115.982C420.519 116.012 420.694 116.003 420.862 115.957C421.029 115.911 421.184 115.828 421.315 115.714C421.532 115.551 421.693 115.323 421.775 115.064C421.825 114.874 421.825 114.764 421.835 114.764C421.861 114.866 421.861 114.973 421.835 115.074C421.778 115.361 421.622 115.62 421.395 115.804C421.204 115.955 420.975 116.049 420.733 116.077C420.491 116.104 420.246 116.064 420.026 115.96C419.806 115.856 419.619 115.693 419.487 115.489C419.354 115.285 419.281 115.048 419.275 114.804C419.275 114.532 419.358 114.266 419.514 114.042C419.669 113.819 419.89 113.649 420.145 113.554C420.351 113.481 420.571 113.461 420.786 113.496C421.001 113.531 421.204 113.62 421.375 113.754C421.61 113.93 421.771 114.186 421.825 114.474C421.859 114.578 421.863 114.689 421.835 114.794Z" fill="#263238"/>
<path d="M424.425 103.5C426.336 103.087 427.551 101.204 427.138 99.2925C426.726 97.3814 424.842 96.1666 422.931 96.579C421.02 96.9915 419.805 98.8752 420.218 100.786C420.63 102.697 422.514 103.912 424.425 103.5Z" fill="#034498"/>
<path d="M424.115 98.6943V101.384H423.485V99.1943H422.945V98.6943H424.115Z" fill="white"/>
<path d="M396.355 426.014H292.985C285.32 426.014 279.105 432.229 279.105 439.894V446.554C279.105 454.22 285.32 460.434 292.985 460.434H396.355C404.021 460.434 410.235 454.22 410.235 446.554V439.894C410.235 432.229 404.021 426.014 396.355 426.014Z" fill="#034498"/>
<g opacity="0.3">
<path opacity="0.3" d="M396.355 426.014H292.985C285.32 426.014 279.105 432.229 279.105 439.894V446.554C279.105 454.22 285.32 460.434 292.985 460.434H396.355C404.021 460.434 410.235 454.22 410.235 446.554V439.894C410.235 432.229 404.021 426.014 396.355 426.014Z" fill="black"/>
</g>
<path d="M391.266 426.014H287.896C280.23 426.014 274.016 432.229 274.016 439.894V446.554C274.016 454.22 280.23 460.434 287.896 460.434H391.266C398.931 460.434 405.146 454.22 405.146 446.554V439.894C405.146 432.229 398.931 426.014 391.266 426.014Z" fill="#034498"/>
<path d="M335.636 441.334C335.636 443.094 334.356 444.164 332.246 444.164H330.246V446.634H329.086V438.494H332.266C334.356 438.494 335.636 439.564 335.636 441.334ZM334.476 441.334C334.476 440.164 333.696 439.504 332.206 439.504H330.206V443.154H332.206C333.696 443.154 334.476 442.494 334.476 441.334Z" fill="white"/>
<path d="M342.126 444.594H337.836L336.946 446.594H335.746L339.436 438.454H340.586L344.276 446.594H343.056L342.126 444.594ZM341.716 443.664L339.966 439.664L338.206 443.664H341.716Z" fill="white"/>
<path d="M348.075 443.814V446.634H346.925V443.794L343.695 438.494H344.935L347.535 442.784L350.155 438.494H351.305L348.075 443.814Z" fill="white"/>
<path d="M305.016 303.834C305.312 301.917 305.226 299.96 304.763 298.075C304.3 296.191 303.469 294.417 302.317 292.856C301.165 291.294 299.716 289.976 298.053 288.977C296.39 287.978 294.545 287.318 292.626 287.034C292.414 286.952 292.182 286.934 291.96 286.984C291.738 287.034 291.536 287.149 291.38 287.315C291.224 287.48 291.122 287.689 291.085 287.913C291.049 288.138 291.08 288.368 291.176 288.574C291.525 292.313 293.052 295.845 295.535 298.663C298.018 301.48 301.33 303.438 304.996 304.254" fill="#455A64"/>
<path d="M284.406 330.984C288.116 338.634 293.406 343.784 300.056 344.034C301.376 344.034 302.376 343.214 303.636 343.134C304.373 343.302 305.084 343.571 305.746 343.934C306.098 344.083 306.474 344.168 306.856 344.184C313.676 343.814 319.496 339.014 323.416 330.984C328.866 319.734 327.186 307.654 319.656 303.984C318.665 303.49 317.631 303.089 316.566 302.784C315.35 302.445 314.088 302.296 312.826 302.344C309.889 302.531 307 303.182 304.266 304.274L303.896 304.414C297.776 301.704 292.896 301.694 288.146 303.984C280.616 307.654 278.946 319.734 284.406 330.984Z" fill="#034498"/>
<path d="M284.535 319.594C284.182 318.889 283.971 318.121 283.915 317.334C283.692 315.432 283.921 313.503 284.585 311.706C285.249 309.909 286.328 308.295 287.735 306.994C288.284 306.427 288.944 305.981 289.675 305.684C289.725 305.754 288.975 306.244 287.985 307.254C286.71 308.575 285.721 310.145 285.083 311.866C284.444 313.587 284.169 315.422 284.275 317.254C284.375 318.704 284.625 319.564 284.535 319.594Z" fill="#FAFAFA"/>
<path d="M285.916 324.934C285.776 324.934 285.536 324.434 285.376 323.754C285.216 323.074 285.206 322.484 285.376 322.444C285.546 322.404 285.756 322.944 285.916 323.634C286.076 324.324 286.056 324.904 285.916 324.934Z" fill="#FAFAFA"/>
<path d="M320.585 285.424C320.585 285.524 319.165 286.064 317.045 287.334C315.809 288.084 314.629 288.923 313.515 289.844C312.183 290.997 310.952 292.262 309.835 293.624C308.709 295.001 307.705 296.473 306.835 298.024C306.151 299.295 305.562 300.616 305.075 301.974C304.245 304.314 304.005 305.834 303.905 305.814C303.898 305.451 303.938 305.088 304.025 304.734C304.079 304.312 304.163 303.895 304.275 303.484C304.397 302.937 304.548 302.396 304.725 301.864C305.166 300.46 305.731 299.098 306.415 297.794C308.098 294.594 310.411 291.767 313.215 289.484C314.35 288.563 315.561 287.74 316.835 287.024C317.324 286.743 317.828 286.49 318.345 286.264C318.725 286.075 319.116 285.908 319.515 285.764C319.857 285.61 320.216 285.496 320.585 285.424Z" fill="#263238"/>
<path d="M413.197 180.774C407.087 172.254 394.117 166.414 383.577 167.984C375.037 169.254 367.477 173.224 363.337 181.704C363.062 182.258 362.923 182.87 362.934 183.488C362.945 184.106 363.104 184.713 363.398 185.257C363.692 185.801 364.112 186.266 364.624 186.614C365.135 186.962 365.723 187.181 366.337 187.254C380.566 188.953 394.949 188.906 409.167 187.114C411.367 186.834 413.967 186.224 414.117 183.514C414.13 182.523 413.806 181.557 413.197 180.774Z" fill="#034498"/>
<path d="M379.457 180.354C379.407 180.354 378.967 179.964 378.387 179.164C377.614 178.105 377.063 176.901 376.767 175.624C376.517 174.354 376.409 173.059 376.447 171.764C376.409 171.227 376.453 170.688 376.577 170.164C376.746 170.673 376.828 171.208 376.817 171.744C376.888 173.006 377.042 174.262 377.277 175.504C377.565 176.725 378.044 177.893 378.697 178.964C379.009 179.393 379.264 179.86 379.457 180.354Z" fill="#263238"/>
<path d="M388.515 179.934C388.355 179.934 388.575 177.514 388.265 174.574C387.955 171.634 387.265 169.324 387.395 169.274C388.204 170.91 388.673 172.693 388.775 174.514C389.049 176.32 388.961 178.163 388.515 179.934Z" fill="#263238"/>
<path d="M397.837 178.554C397.697 178.494 398.397 176.874 398.567 174.754C398.737 172.634 398.347 170.924 398.497 170.894C399 172.132 399.202 173.472 399.087 174.804C398.972 176.135 398.544 177.42 397.837 178.554Z" fill="#263238"/>
<g opacity="0.3">
<path opacity="0.3" d="M386.836 168.424L386.916 168.574L386.836 168.424Z" fill="black"/>
</g>
<g opacity="0.3">
<path opacity="0.3" d="M386.926 168.534C385.992 170.246 385.634 172.212 385.904 174.142C386.174 176.073 387.058 177.865 388.426 179.254C389.311 175.621 388.774 171.786 386.926 168.534Z" fill="black"/>
</g>
<g opacity="0.3">
<path opacity="0.3" d="M378.227 178.854C377.257 177.095 376.677 175.148 376.527 173.144C376.537 172.26 376.409 171.379 376.147 170.534C375.095 171.843 374.577 173.5 374.697 175.174C374.839 176.933 375.665 178.567 376.997 179.724C377.196 179.91 377.435 180.047 377.697 180.124C377.828 180.157 377.967 180.148 378.094 180.1C378.22 180.052 378.33 179.966 378.407 179.854C378.587 179.544 378.407 179.164 378.227 178.854Z" fill="black"/>
</g>
<g opacity="0.3">
<path opacity="0.3" d="M398.685 171.684C398.65 171.335 398.548 170.995 398.385 170.684C398.301 170.533 398.175 170.409 398.023 170.328C397.87 170.246 397.697 170.21 397.525 170.224C397.055 170.304 396.825 170.834 396.685 171.294C395.898 173.268 395.66 175.417 395.995 177.514C396.105 177.984 396.415 178.514 396.905 178.514C397.395 178.514 397.525 178.114 397.695 177.784C398.654 175.904 399.001 173.771 398.685 171.684Z" fill="black"/>
</g>
<path d="M282.316 235.714V236.654H281.626V235.724C280.887 235.706 280.172 235.461 279.576 235.024L279.946 234.184C280.437 234.545 281.019 234.763 281.626 234.814V233.144C280.696 232.914 279.696 232.614 279.696 231.444C279.696 230.594 280.316 229.844 281.626 229.724V228.724H282.316V229.654C282.916 229.684 283.499 229.859 284.016 230.164L283.666 231.014C283.253 230.771 282.793 230.618 282.316 230.564V232.254C283.246 232.474 284.256 232.774 284.256 233.934C284.256 234.844 283.626 235.574 282.316 235.714ZM281.626 232.124V230.634C281.036 230.724 280.776 231.034 280.776 231.394C280.776 231.754 281.136 231.984 281.626 232.124ZM283.186 234.064C283.186 233.654 282.816 233.454 282.316 233.314V234.794C282.926 234.704 283.186 234.424 283.186 234.064Z" fill="#263238"/>
<path d="M289.266 229.784V235.644H288.176V230.694H286.936V229.784H289.266Z" fill="#263238"/>
<path d="M291.765 235.004C291.751 235.258 291.686 235.506 291.575 235.734L291.145 236.914H290.465L290.805 235.624C290.684 235.574 290.581 235.488 290.511 235.377C290.441 235.266 290.407 235.135 290.415 235.004C290.404 234.909 290.412 234.812 290.441 234.72C290.469 234.628 290.517 234.543 290.581 234.471C290.645 234.399 290.723 234.341 290.811 234.302C290.899 234.262 290.994 234.242 291.09 234.242C291.186 234.242 291.282 234.262 291.369 234.302C291.457 234.341 291.535 234.399 291.599 234.471C291.663 234.543 291.711 234.628 291.739 234.72C291.768 234.812 291.777 234.909 291.765 235.004Z" fill="#263238"/>
<path d="M296.737 233.844C296.737 234.844 295.997 235.734 294.417 235.734C293.63 235.747 292.859 235.509 292.217 235.054L292.677 234.204C293.172 234.586 293.781 234.79 294.407 234.784C295.177 234.784 295.647 234.444 295.647 233.884C295.647 233.324 295.277 232.974 294.067 232.974H292.657L292.957 229.784H296.397V230.694H293.837L293.707 232.054H294.267C296.047 232.054 296.737 232.804 296.737 233.844Z" fill="#263238"/>
<path d="M297.365 232.714C297.365 230.784 298.425 229.714 299.815 229.714C301.205 229.714 302.265 230.804 302.265 232.714C302.265 234.624 301.215 235.714 299.815 235.714C298.415 235.714 297.365 234.644 297.365 232.714ZM301.175 232.714C301.175 231.294 300.615 230.644 299.815 230.644C299.015 230.644 298.465 231.294 298.465 232.714C298.465 234.134 299.015 234.784 299.815 234.784C300.615 234.784 301.175 234.124 301.175 232.714Z" fill="#263238"/>
<path d="M326.506 243.114C326.506 243.264 315.756 243.374 302.506 243.374C289.256 243.374 278.506 243.264 278.506 243.114C278.506 242.964 289.256 242.854 302.506 242.854C315.756 242.854 326.506 242.974 326.506 243.114Z" fill="#263238"/>
<path d="M300.835 247.024C300.835 247.174 295.835 247.284 289.685 247.284C283.535 247.284 278.525 247.174 278.525 247.024C278.525 246.874 283.525 246.764 289.685 246.764C295.845 246.764 300.835 246.884 300.835 247.024Z" fill="#263238"/>
<path d="M366.486 211.734V212.674H365.836V211.744C365.116 211.714 364.421 211.474 363.836 211.054L364.206 210.204C364.693 210.574 365.276 210.797 365.886 210.844V209.164C364.956 208.944 363.956 208.634 363.956 207.474C363.956 206.624 364.576 205.874 365.886 205.744V204.804H366.576V205.734C367.177 205.756 367.763 205.931 368.276 206.244L367.926 207.084C367.512 206.841 367.053 206.688 366.576 206.634V208.324C367.506 208.554 368.516 208.844 368.516 210.014C368.426 210.864 367.836 211.604 366.486 211.734ZM365.796 208.154V206.664C365.196 206.754 364.946 207.054 364.946 207.424C364.946 207.794 365.306 208.014 365.836 208.154H365.796ZM367.356 210.084C367.356 209.674 366.986 209.484 366.486 209.344V210.824C367.096 210.734 367.356 210.424 367.356 210.084Z" fill="#263238"/>
<path d="M375.655 210.754V211.674H371.325V210.944L373.655 208.734C374.225 208.184 374.325 207.844 374.325 207.514C374.325 206.984 373.955 206.674 373.235 206.674C372.975 206.661 372.715 206.709 372.477 206.815C372.239 206.921 372.029 207.082 371.865 207.284L371.105 206.694C371.371 206.365 371.711 206.104 372.096 205.93C372.482 205.756 372.903 205.675 373.325 205.694C374.605 205.694 375.425 206.334 375.425 207.374C375.414 207.739 375.318 208.096 375.144 208.417C374.97 208.739 374.724 209.015 374.425 209.224L372.855 210.724L375.655 210.754Z" fill="#263238"/>
<path d="M377.706 211.034C377.69 211.284 377.626 211.529 377.516 211.754L377.086 212.934H376.406L376.746 211.654C376.624 211.605 376.52 211.519 376.448 211.408C376.376 211.297 376.341 211.166 376.346 211.034C376.346 210.854 376.418 210.681 376.545 210.553C376.673 210.426 376.846 210.354 377.026 210.354C377.207 210.354 377.38 210.426 377.507 210.553C377.635 210.681 377.706 210.854 377.706 211.034Z" fill="#263238"/>
<path d="M382.745 210.754V211.674H378.415V210.944L380.745 208.734C381.315 208.184 381.415 207.844 381.415 207.514C381.415 206.984 381.045 206.674 380.325 206.674C380.065 206.661 379.805 206.709 379.567 206.815C379.329 206.921 379.119 207.082 378.955 207.284L378.195 206.694C378.462 206.364 378.803 206.101 379.191 205.928C379.578 205.754 380.001 205.674 380.425 205.694C381.695 205.694 382.515 206.334 382.515 207.374C382.504 207.739 382.407 208.096 382.234 208.417C382.06 208.739 381.814 209.015 381.515 209.224L379.945 210.724L382.745 210.754Z" fill="#263238"/>
<path d="M387.635 209.874C387.635 210.874 386.895 211.754 385.315 211.754C384.528 211.771 383.756 211.533 383.115 211.074L383.575 210.234C384.069 210.611 384.674 210.812 385.295 210.804C386.075 210.804 386.535 210.464 386.535 209.914C386.535 209.364 386.175 208.994 384.965 208.994H383.545L383.855 205.804H387.295V206.724H384.775L384.645 208.074H385.205C386.945 208.074 387.635 208.834 387.635 209.874Z" fill="#263238"/>
<path d="M410.676 219.144C410.676 219.284 399.926 219.404 386.676 219.404C373.426 219.404 362.676 219.284 362.676 219.144C362.676 219.004 373.436 218.884 386.676 218.884C399.916 218.884 410.676 219.004 410.676 219.144Z" fill="#263238"/>
<path d="M385.027 223.054C385.027 223.194 380.027 223.314 373.867 223.314C367.707 223.314 362.717 223.194 362.717 223.054C362.717 222.914 367.717 222.794 373.867 222.794C380.017 222.794 385.027 222.914 385.027 223.054Z" fill="#263238"/>
<path d="M280.396 357.424V358.364H279.706V357.424C278.968 357.404 278.253 357.16 277.656 356.724L278.036 355.884C278.521 356.249 279.101 356.468 279.706 356.514V354.844C278.776 354.614 277.786 354.314 277.786 353.154C277.786 352.294 278.406 351.554 279.706 351.424V350.474H280.396V351.424C280.996 351.454 281.58 351.629 282.096 351.934L281.756 352.784C281.339 352.543 280.876 352.39 280.396 352.334V354.024C281.326 354.254 282.336 354.544 282.336 355.704C282.336 356.544 281.716 357.284 280.396 357.424ZM279.706 353.834V352.344C279.116 352.444 278.866 352.744 278.866 353.114C278.866 353.484 279.226 353.684 279.706 353.824V353.834ZM281.266 355.774C281.266 355.364 280.896 355.174 280.396 355.024V356.514C281.006 356.424 281.266 356.124 281.266 355.764V355.774Z" fill="#263238"/>
<path d="M285.316 354.424C285.316 352.494 286.376 351.424 287.766 351.424C289.156 351.424 290.216 352.504 290.216 354.424C290.216 356.344 289.166 357.424 287.766 357.424C286.366 357.424 285.316 356.344 285.316 354.424ZM289.126 354.424C289.126 353.014 288.566 352.354 287.766 352.354C286.966 352.354 286.416 353.014 286.416 354.424C286.416 355.834 286.966 356.494 287.766 356.494C288.566 356.494 289.126 355.834 289.126 354.424Z" fill="#263238"/>
<path d="M292.197 356.714C292.181 356.965 292.117 357.209 292.007 357.434L291.577 358.614H290.907L291.237 357.334C291.117 357.282 291.016 357.195 290.946 357.085C290.877 356.974 290.842 356.845 290.847 356.714C290.835 356.619 290.844 356.522 290.872 356.43C290.901 356.338 290.949 356.253 291.013 356.181C291.076 356.109 291.155 356.052 291.243 356.012C291.33 355.973 291.426 355.952 291.522 355.952C291.618 355.952 291.713 355.973 291.801 356.012C291.889 356.052 291.967 356.109 292.031 356.181C292.095 356.253 292.142 356.338 292.171 356.43C292.2 356.522 292.208 356.619 292.197 356.714Z" fill="#263238"/>
<path d="M297.166 355.544C297.166 356.544 296.426 357.434 294.846 357.434C294.059 357.451 293.287 357.212 292.646 356.754L293.106 355.904C293.599 356.285 294.204 356.489 294.826 356.484C295.606 356.484 296.066 356.144 296.066 355.584C296.066 355.024 295.706 354.674 294.496 354.674H293.076L293.386 351.484H296.836V352.424H294.316L294.186 353.784H294.746C296.476 353.754 297.166 354.504 297.166 355.544Z" fill="#263238"/>
<path d="M297.836 354.424C297.836 352.494 298.896 351.424 300.286 351.424C301.676 351.424 302.736 352.504 302.736 354.424C302.736 356.344 301.686 357.424 300.286 357.424C298.886 357.424 297.836 356.344 297.836 354.424ZM301.646 354.424C301.646 353.014 301.086 352.354 300.286 352.354C299.486 352.354 298.936 353.014 298.936 354.424C298.936 355.834 299.486 356.494 300.286 356.494C301.086 356.494 301.606 355.834 301.606 354.424H301.646Z" fill="#263238"/>
<path d="M324.596 364.824C324.596 364.964 313.836 365.084 300.596 365.084C287.356 365.084 276.596 364.964 276.596 364.824C276.596 364.684 287.346 364.564 300.596 364.564C313.846 364.564 324.596 364.674 324.596 364.824Z" fill="#263238"/>
<path d="M298.937 368.734C298.937 368.874 293.937 368.994 287.787 368.994C281.637 368.994 276.637 368.874 276.637 368.734C276.637 368.594 281.637 368.474 287.787 368.474C293.937 368.474 298.937 368.584 298.937 368.734Z" fill="#263238"/>
<path d="M362.586 325.684V326.624H361.906V325.694C361.164 325.675 360.446 325.431 359.846 324.994L360.226 324.154C360.714 324.521 361.297 324.739 361.906 324.784V323.114C360.976 322.884 359.976 322.584 359.976 321.424C359.976 320.564 360.596 319.824 361.906 319.694V318.744H362.586V319.674C363.185 319.704 363.769 319.879 364.286 320.184L363.946 321.034C363.529 320.791 363.065 320.638 362.586 320.584V322.274C363.516 322.504 364.526 322.794 364.526 323.954C364.526 324.814 363.906 325.554 362.586 325.684ZM361.906 322.094V320.604C361.306 320.704 361.056 321.004 361.056 321.374C361.056 321.744 361.416 321.954 361.906 322.094ZM363.456 324.034C363.456 323.624 363.086 323.434 362.586 323.284V324.774C363.196 324.674 363.456 324.424 363.456 324.034Z" fill="#263238"/>
<path d="M369.535 319.754V325.614H368.445V320.664H367.205V319.754H369.535Z" fill="#263238"/>
<path d="M372.046 324.984C372.03 325.235 371.966 325.479 371.856 325.704L371.426 326.884H370.746L371.076 325.604C370.956 325.552 370.855 325.465 370.785 325.355C370.716 325.244 370.681 325.115 370.686 324.984C370.686 324.804 370.758 324.631 370.885 324.504C371.013 324.376 371.186 324.304 371.366 324.304C371.546 324.304 371.719 324.376 371.847 324.504C371.974 324.631 372.046 324.804 372.046 324.984Z" fill="#263238"/>
<path d="M372.646 322.684C372.646 320.754 373.706 319.684 375.096 319.684C376.486 319.684 377.546 320.764 377.546 322.684C377.546 324.604 376.546 325.684 375.096 325.684C373.646 325.684 372.646 324.614 372.646 322.684ZM376.456 322.684C376.456 321.274 375.896 320.614 375.096 320.614C374.296 320.614 373.746 321.274 373.746 322.684C373.746 324.094 374.296 324.754 375.096 324.754C375.896 324.754 376.456 324.104 376.456 322.684Z" fill="#263238"/>
<path d="M378.285 322.684C378.285 320.754 379.345 319.684 380.735 319.684C382.125 319.684 383.185 320.764 383.185 322.684C383.185 324.604 382.135 325.684 380.735 325.684C379.335 325.684 378.285 324.614 378.285 322.684ZM382.095 322.684C382.095 321.274 381.535 320.614 380.735 320.614C379.935 320.614 379.385 321.274 379.385 322.684C379.385 324.094 379.935 324.754 380.735 324.754C381.535 324.754 382.095 324.104 382.095 322.684Z" fill="#263238"/>
<path d="M406.836 333.094C406.836 333.234 396.076 333.354 382.836 333.354C369.596 333.354 358.836 333.234 358.836 333.094C358.836 332.954 369.586 332.824 382.836 332.824C396.086 332.824 406.836 332.944 406.836 333.094Z" fill="#263238"/>
<path d="M381.126 337.004C381.126 337.144 376.126 337.264 369.976 337.264C363.826 337.264 358.826 337.144 358.826 337.004C358.826 336.864 363.826 336.734 369.976 336.734C376.126 336.734 381.126 336.854 381.126 337.004Z" fill="#263238"/>
<path d="M370.596 108.954C370.596 109.094 359.006 109.214 344.716 109.214C330.426 109.214 318.826 109.094 318.826 108.954C318.826 108.814 330.416 108.694 344.716 108.694C359.016 108.694 370.596 108.804 370.596 108.954Z" fill="#034498"/>
<path d="M33.4358 419.474C31.8887 419.537 30.4075 420.118 29.2292 421.122C28.0508 422.126 27.2432 423.497 26.9358 425.014C26.2859 427.453 25.7751 429.927 25.4058 432.424C25.4058 432.424 19.5358 437.704 25.4058 439.114C31.2758 440.524 33.4058 432.614 33.4058 432.614L34.3058 419.434L33.4358 419.474Z" fill="#FFBE9D"/>
<path d="M92.2148 318.424C92.2148 318.424 110.555 256.834 112.425 254.184C115.505 249.794 145.195 236.594 145.195 236.594L153.195 220.354L202.505 212.424L214.735 228.164L249.105 253.424L246.705 340.544L245.425 401.374L251.935 477.314L95.8348 477.024L102.895 461.024L110.305 322.904L92.2148 318.424Z" fill="#034498"/>
<path d="M113.366 310.114C113.321 309.952 113.3 309.783 113.306 309.614C113.306 309.224 113.306 308.754 113.226 308.184C113.226 306.944 113.116 305.184 113.076 302.934C112.996 298.494 112.996 292.364 113.186 285.594C113.376 278.824 113.736 272.704 114.076 268.274C114.236 266.064 114.396 264.274 114.526 263.044L114.676 261.624C114.691 261.459 114.721 261.295 114.766 261.134C114.794 261.3 114.794 261.469 114.766 261.634C114.766 262.014 114.766 262.484 114.706 263.054C114.636 264.374 114.536 266.144 114.416 268.304C114.176 272.734 113.876 278.844 113.686 285.614C113.496 292.384 113.436 298.494 113.426 302.934C113.426 305.094 113.426 306.864 113.426 308.184C113.426 308.754 113.426 309.184 113.426 309.614C113.43 309.783 113.41 309.951 113.366 310.114Z" fill="#263238"/>
<g opacity="0.3">
<path opacity="0.3" d="M148.726 292.424C148.688 291.735 148.889 291.053 149.296 290.494C149.981 289.655 150.919 289.061 151.971 288.802C153.022 288.542 154.129 288.631 155.126 289.054C157.736 290.304 159.036 293.304 159.566 296.154C160.136 299.274 160.056 302.494 160.646 305.614C161.236 308.734 162.646 311.914 165.396 313.524C168.786 315.524 173.236 314.624 176.796 316.304C182.096 318.794 183.326 325.684 183.596 331.544C184.096 342.634 183.596 353.734 183.136 364.824L180.076 435.644L177.286 471.174L162.926 477.274L143.926 352.424L148.726 292.424Z" fill="black"/>
</g>
<path d="M152.836 282.304C152.729 282.396 152.602 282.465 152.466 282.504C152.076 282.644 151.657 282.685 151.246 282.624C150.495 282.491 149.794 282.155 149.22 281.653C148.645 281.151 148.219 280.501 147.986 279.774C147.678 278.779 147.579 277.73 147.696 276.694C147.829 275.535 148.022 274.383 148.276 273.244C148.756 270.824 149.276 268.184 149.836 265.414C150.956 259.864 151.996 254.844 152.776 251.214L153.776 246.924C153.873 246.395 154.01 245.873 154.186 245.364C154.166 245.903 154.095 246.439 153.976 246.964C153.766 248.074 153.506 249.534 153.186 251.294C152.496 254.934 151.506 259.964 150.386 265.514C149.816 268.284 149.276 270.924 148.786 273.334C148.296 275.744 147.786 277.924 148.376 279.664C148.578 280.343 148.956 280.957 149.473 281.442C149.99 281.927 150.626 282.266 151.316 282.424C151.826 282.497 152.345 282.456 152.836 282.304Z" fill="#263238"/>
<path d="M157.896 259.134C157.896 259.184 157.486 259.184 156.806 259.394C155.852 259.71 155.013 260.301 154.396 261.094C153.932 261.657 153.62 262.33 153.491 263.048C153.361 263.766 153.418 264.505 153.656 265.194C153.918 266.05 154.43 266.807 155.128 267.368C155.825 267.928 156.675 268.266 157.567 268.337C158.458 268.408 159.351 268.209 160.129 267.767C160.906 267.324 161.532 266.658 161.926 265.854C162.27 265.212 162.444 264.492 162.43 263.764C162.416 263.035 162.215 262.323 161.846 261.694C161.366 260.811 160.631 260.093 159.736 259.634C159.096 259.314 158.736 259.254 158.736 259.204C158.736 259.154 158.836 259.204 159.026 259.204C159.309 259.242 159.585 259.32 159.846 259.434C160.832 259.849 161.656 260.571 162.196 261.494C162.578 262.131 162.814 262.845 162.886 263.584C162.965 264.442 162.791 265.304 162.386 266.064C161.957 266.963 161.266 267.71 160.403 268.207C159.541 268.705 158.548 268.929 157.555 268.849C156.563 268.77 155.617 268.392 154.844 267.764C154.072 267.137 153.507 266.289 153.226 265.334C152.945 264.519 152.91 263.639 153.126 262.804C153.357 261.932 153.818 261.137 154.459 260.502C155.101 259.867 155.901 259.416 156.776 259.194C157.053 259.12 157.339 259.087 157.626 259.094C157.718 259.092 157.809 259.105 157.896 259.134Z" fill="#263238"/>
<path d="M174.686 322.804L84.5256 306.484L42.4355 315.724L136.616 332.674L174.686 322.804Z" fill="#034498"/>
<g opacity="0.6">
<path opacity="0.6" d="M174.686 322.804L84.5256 306.484L42.4355 315.724L136.616 332.674L174.686 322.804Z" fill="black"/>
</g>
<path d="M117.035 362.124C118.255 345.504 122.815 303.294 126.235 286.984C127.235 282.104 128.435 277.114 131.235 272.984C134.035 268.854 138.975 265.834 143.895 266.594C148.295 267.274 151.835 270.844 153.615 274.924C155.354 279.052 156.131 283.522 155.885 287.994C155.035 308.154 153.295 330.734 153.315 349.424" fill="#455A64"/>
<path d="M147.566 322.544C146.472 322.955 145.357 323.309 144.226 323.604C138.845 325.267 133.694 327.602 128.896 330.554C127.929 331.213 126.928 331.821 125.896 332.374C125.896 332.374 126.126 332.124 126.606 331.744C127.086 331.364 127.796 330.854 128.696 330.244C131.059 328.675 133.544 327.297 136.126 326.124C138.71 324.95 141.386 323.99 144.126 323.254C145.176 322.974 146.036 322.774 146.626 322.664C146.933 322.584 147.249 322.543 147.566 322.544Z" fill="#263238"/>
<path d="M149.066 303.364C149.066 303.444 147.716 303.744 145.556 304.414C139.918 306.147 134.652 308.914 130.026 312.574C128.256 313.974 127.226 314.934 127.166 314.874C127.353 314.6 127.571 314.348 127.816 314.124C128.256 313.664 128.926 313.034 129.816 312.294C132.079 310.359 134.551 308.682 137.186 307.294C139.822 305.91 142.602 304.82 145.476 304.044C146.342 303.802 147.22 303.605 148.106 303.454C148.42 303.375 148.743 303.345 149.066 303.364Z" fill="#263238"/>
<path d="M147.045 287.924C147.045 288.014 145.975 288.064 144.285 288.374C142.088 288.782 139.957 289.492 137.955 290.484C135.958 291.487 134.107 292.759 132.455 294.264C131.185 295.424 130.455 296.264 130.455 296.194C130.455 296.124 130.575 295.944 130.865 295.554C131.276 295.002 131.727 294.481 132.215 293.994C135.451 290.736 139.667 288.628 144.215 287.994C144.898 287.9 145.586 287.853 146.275 287.854C146.775 287.864 147.035 287.884 147.045 287.924Z" fill="#263238"/>
<path d="M135.836 336.004C135.832 336.034 135.832 336.064 135.836 336.094V393.794C135.836 396.324 133.836 398.934 130.046 400.914C126.256 402.894 120.846 404.244 114.046 404.254H113.956C100.306 404.254 92.1465 398.864 92.1465 393.794V336.094C92.1489 336.064 92.1489 336.034 92.1465 336.004C92.1465 336.004 92.1465 335.934 92.1465 335.894C92.1465 330.254 96.3165 324.364 100.496 318.544C103.296 314.664 103.966 309.064 104.096 305.784C104.096 305.384 104.096 305.034 104.096 304.714H103.716C103.319 304.748 102.919 304.703 102.539 304.58C102.16 304.458 101.808 304.261 101.506 304.001C101.203 303.742 100.955 303.424 100.777 303.068C100.598 302.711 100.493 302.322 100.466 301.924V299.484C100.49 299.085 100.594 298.694 100.771 298.335C100.949 297.976 101.196 297.656 101.499 297.394C101.802 297.132 102.154 296.933 102.535 296.81C102.916 296.686 103.318 296.64 103.716 296.674H124.216C124.826 296.654 125.428 296.804 125.958 297.105C126.488 297.407 126.923 297.85 127.216 298.384C127.38 298.728 127.466 299.104 127.466 299.484V301.924C127.44 302.323 127.334 302.713 127.155 303.07C126.976 303.427 126.727 303.745 126.424 304.005C126.12 304.265 125.767 304.462 125.387 304.584C125.006 304.705 124.605 304.75 124.206 304.714H123.836C123.836 305.034 123.836 305.384 123.836 305.784C123.966 309.064 124.636 314.664 127.446 318.544C131.616 324.364 135.766 330.254 135.796 335.894C135.836 335.934 135.836 335.984 135.836 336.004Z" fill="#FAFAFA"/>
<path d="M135.837 336.004C135.85 335.808 135.85 335.611 135.837 335.414C135.8 334.837 135.73 334.263 135.627 333.694C135.147 331.5 134.341 329.39 133.237 327.434C131.462 324.329 129.491 321.34 127.337 318.484C126.063 316.6 125.154 314.493 124.657 312.274C124.064 309.801 123.755 307.268 123.737 304.724V304.544H123.917C124.675 304.595 125.431 304.417 126.087 304.034C126.417 303.843 126.7 303.582 126.918 303.269C127.136 302.957 127.282 302.6 127.347 302.224C127.347 301.454 127.347 300.584 127.347 299.754C127.381 299.354 127.318 298.951 127.163 298.58C127.008 298.209 126.766 297.881 126.457 297.624C125.803 297.094 124.977 296.823 124.137 296.864H115.837H104.027C103.542 296.821 103.054 296.883 102.595 297.045C102.136 297.207 101.717 297.466 101.367 297.804C101.033 298.151 100.81 298.59 100.727 299.064C100.701 299.574 100.701 300.084 100.727 300.594C100.727 301.104 100.727 301.684 100.727 302.154C100.797 302.64 101.013 303.093 101.347 303.454C101.704 303.818 102.138 304.097 102.618 304.27C103.097 304.443 103.61 304.506 104.117 304.454H104.357V304.704C104.34 307.057 104.086 309.402 103.597 311.704C103.112 314.099 102.175 316.38 100.837 318.424C99.4267 320.424 97.9767 322.424 96.6367 324.544C95.25 326.65 94.1092 328.908 93.2367 331.274C92.8125 332.475 92.5404 333.725 92.4267 334.994C92.3567 336.244 92.4267 337.584 92.4267 338.884V363.184C92.4267 372.894 92.4267 382.384 92.4267 391.544C92.3725 392.663 92.4261 393.785 92.5867 394.894C92.8678 395.95 93.4074 396.919 94.1567 397.714C95.6643 399.317 97.4946 400.581 99.5267 401.424C101.522 402.259 103.6 402.88 105.727 403.274C107.809 403.668 109.919 403.905 112.037 403.984C116.116 404.192 120.203 403.818 124.177 402.874C126.075 402.411 127.916 401.741 129.667 400.874C131.362 400.066 132.878 398.927 134.127 397.524C134.71 396.836 135.155 396.041 135.437 395.184C135.647 394.318 135.721 393.424 135.657 392.534V387.214C135.657 383.744 135.657 380.404 135.657 377.214C135.657 364.494 135.717 354.214 135.737 347.054C135.757 339.894 135.827 335.994 135.827 335.994C135.857 336.237 135.857 336.482 135.827 336.724C135.827 337.224 135.827 337.934 135.827 338.854C135.827 340.744 135.827 343.504 135.827 347.054C135.827 354.194 135.827 364.494 135.907 377.214C135.907 380.394 135.907 383.734 135.907 387.214V393.894C135.894 394.372 135.82 394.845 135.687 395.304C135.392 396.218 134.92 397.064 134.297 397.794C133.018 399.25 131.456 400.431 129.707 401.264C127.928 402.131 126.06 402.802 124.137 403.264C120.171 404.214 116.091 404.604 112.017 404.424C109.875 404.35 107.742 404.112 105.637 403.714C103.473 403.311 101.358 402.681 99.3267 401.834C97.2219 400.986 95.3252 399.693 93.7667 398.044C92.9603 397.202 92.3791 396.17 92.0767 395.044C91.8984 393.897 91.838 392.734 91.8967 391.574V338.904C91.8967 337.584 91.8967 336.304 91.8967 334.974C92.0178 333.664 92.3 332.375 92.7367 331.134C93.6226 328.728 94.7836 326.433 96.1967 324.294C97.5367 322.164 99.0067 320.154 100.417 318.164C101.71 316.164 102.616 313.939 103.087 311.604C103.569 309.342 103.827 307.037 103.857 304.724L104.087 304.954C103.516 305.005 102.94 304.928 102.402 304.729C101.864 304.53 101.378 304.214 100.977 303.804C100.577 303.376 100.322 302.834 100.247 302.254C100.247 301.664 100.247 301.174 100.247 300.634C100.217 300.098 100.217 299.56 100.247 299.024C100.35 298.462 100.618 297.944 101.017 297.534C101.412 297.152 101.883 296.858 102.401 296.672C102.918 296.486 103.469 296.411 104.017 296.454H115.827H124.077C125.006 296.42 125.917 296.725 126.637 297.314C126.985 297.608 127.258 297.981 127.432 298.402C127.606 298.823 127.676 299.28 127.637 299.734C127.637 300.594 127.637 301.384 127.637 302.254C127.567 302.681 127.403 303.087 127.158 303.443C126.912 303.8 126.591 304.097 126.217 304.314C125.503 304.728 124.68 304.916 123.857 304.854L124.017 304.694C124.107 309.964 125.127 314.844 127.507 318.304C129.647 321.174 131.597 324.181 133.347 327.304C134.445 329.28 135.228 331.416 135.667 333.634C135.763 334.226 135.82 334.824 135.837 335.424C135.871 335.616 135.871 335.812 135.837 336.004Z" fill="#263238"/>
<path d="M122.715 304.574C119.682 304.838 116.637 304.925 113.595 304.834C110.549 304.924 107.501 304.838 104.465 304.574C107.501 304.317 110.549 304.23 113.595 304.314C116.637 304.23 119.682 304.317 122.715 304.574Z" fill="#263238"/>
<path d="M134.016 343.714C132.176 342.514 129.746 343.044 127.766 343.984C125.786 344.924 123.916 346.234 121.766 346.574C119.236 346.984 116.686 345.974 114.436 344.704C112.186 343.434 110.056 341.864 107.636 340.994C105.289 340.201 102.766 340.082 100.355 340.652C97.9438 341.221 95.7407 342.455 93.9961 344.214V393.754C93.9961 393.754 96.7161 402.204 115.876 400.884C135.036 399.564 133.526 391.094 133.526 391.094L134.016 343.714Z" fill="#034498"/>
<path d="M83.2567 309.994C83.5401 308.166 83.4582 306.299 83.0158 304.502C82.5733 302.706 81.7791 301.015 80.679 299.527C79.5789 298.039 78.1948 296.784 76.6067 295.834C75.0186 294.885 73.258 294.259 71.4267 293.994C71.0911 293.908 70.7354 293.947 70.4267 294.104C70.0167 294.384 70.0067 294.974 70.0467 295.464C70.3817 299.038 71.8392 302.414 74.2103 305.108C76.5815 307.803 79.7447 309.678 83.2467 310.464" fill="#455A64"/>
<path d="M63.5863 335.904C67.1263 343.204 72.2163 348.124 78.5263 348.364C79.7863 348.364 80.7363 347.574 81.9363 347.504C82.634 347.667 83.3067 347.923 83.9363 348.264C84.2526 348.404 84.5913 348.485 84.9363 348.504C91.4563 348.154 97.0063 343.574 100.746 335.904C105.956 325.174 104.346 313.644 97.1563 310.134C96.2127 309.664 95.2288 309.279 94.2163 308.984C93.0531 308.671 91.8504 308.53 90.6463 308.564C87.8665 308.763 85.1342 309.39 82.5463 310.424L82.1963 310.554C76.3463 307.974 71.6863 307.954 67.1963 310.144C59.9663 313.644 58.3663 325.174 63.5863 335.904Z" fill="#034498"/>
<path d="M63.7061 325.034C63.3648 324.361 63.1609 323.627 63.1061 322.874C62.8934 321.058 63.1131 319.217 63.7475 317.501C64.3818 315.786 65.4127 314.245 66.7561 313.004C67.2861 312.467 67.9186 312.042 68.6161 311.754C68.6161 311.834 67.9561 312.294 67.0061 313.264C65.7921 314.534 64.8496 316.038 64.2361 317.684C63.6274 319.333 63.3685 321.09 63.4761 322.844C63.5561 324.184 63.8361 325.004 63.7061 325.034Z" fill="#FAFAFA"/>
<path d="M65.035 330.134C64.895 330.134 64.655 329.664 64.505 329.004C64.355 328.344 64.345 327.794 64.505 327.764C64.665 327.734 64.875 328.234 65.035 328.894C65.195 329.554 65.175 330.104 65.035 330.134Z" fill="#FAFAFA"/>
<path d="M98.1151 292.424C98.1151 292.514 96.7751 293.034 94.7451 294.254C93.564 294.965 92.4406 295.768 91.3851 296.654C90.1009 297.751 88.9132 298.955 87.8351 300.254C86.7785 301.572 85.8351 302.977 85.0151 304.454C84.3578 305.665 83.7961 306.926 83.3351 308.224C82.5451 310.444 82.3351 311.904 82.2051 311.884C82.2054 311.548 82.2423 311.213 82.3151 310.884C82.3641 310.482 82.4443 310.084 82.5551 309.694C82.6705 309.167 82.814 308.646 82.9851 308.134C83.4058 306.796 83.9446 305.497 84.5951 304.254C86.1934 301.195 88.4023 298.496 91.0851 296.324C92.1742 295.436 93.3424 294.649 94.5751 293.974C95.0851 293.664 95.5751 293.454 96.0151 293.244C96.3776 293.063 96.7517 292.906 97.1351 292.774C97.4467 292.619 97.7757 292.502 98.1151 292.424Z" fill="#263238"/>
<path d="M42.4355 315.724L31.1055 458.644L136.705 484.174C136.705 484.174 173.545 471.684 174.045 470.834C174.545 469.984 174.685 322.834 174.685 322.834L136.615 332.704L42.4355 315.724Z" fill="#034498"/>
<g opacity="0.4">
<path opacity="0.4" d="M42.4355 315.724L31.1055 458.644L136.705 484.174C136.705 484.174 173.545 471.684 174.045 470.834C174.545 469.984 174.685 322.834 174.685 322.834L136.615 332.704L42.4355 315.724Z" fill="black"/>
</g>
<path d="M208.066 149.244L202.176 232.654C201.713 239.217 198.779 245.361 193.965 249.846C189.151 254.332 182.816 256.825 176.236 256.824C172.674 256.832 169.148 256.107 165.877 254.696C162.607 253.284 159.661 251.215 157.223 248.618C154.785 246.021 152.907 242.95 151.705 239.597C150.503 236.243 150.003 232.679 150.236 229.124C150.756 221.184 151.236 214.674 151.236 214.674C151.236 214.674 131.046 211.534 130.796 191.344C130.656 179.684 132.666 153.224 134.386 132.954C134.951 126.333 137.984 120.167 142.883 115.678C147.783 111.19 154.191 108.708 160.836 108.724H173.026C178.011 109.017 182.887 110.306 187.366 112.515C191.844 114.724 195.835 117.809 199.101 121.586C202.368 125.363 204.844 129.757 206.384 134.507C207.924 139.258 208.496 144.269 208.066 149.244Z" fill="#FFBE9D"/>
<path d="M151.276 214.674C151.276 214.674 164.006 215.424 177.566 206.904C177.566 206.904 171.066 221.594 150.916 219.774L151.276 214.674Z" fill="#EB996E"/>
<path d="M138.215 153.774C138.575 154.154 140.755 152.534 143.865 152.544C146.975 152.554 149.235 154.104 149.575 153.724C149.735 153.554 149.375 152.884 148.385 152.154C147.041 151.229 145.447 150.737 143.815 150.744C142.201 150.746 140.627 151.253 139.315 152.194C138.365 152.934 138.045 153.614 138.215 153.774Z" fill="#263238"/>
<path d="M171.836 157.344C171.833 158.095 172.121 158.817 172.639 159.36C173.157 159.903 173.866 160.223 174.616 160.254C174.985 160.286 175.356 160.243 175.708 160.128C176.06 160.014 176.385 159.83 176.665 159.587C176.944 159.345 177.173 159.049 177.336 158.717C177.499 158.385 177.595 158.024 177.616 157.654C177.624 156.902 177.338 156.177 176.819 155.633C176.299 155.089 175.588 154.77 174.836 154.744C174.467 154.711 174.095 154.753 173.743 154.867C173.39 154.981 173.064 155.165 172.784 155.408C172.504 155.65 172.276 155.947 172.113 156.28C171.95 156.612 171.856 156.974 171.836 157.344Z" fill="#263238"/>
<path d="M141.016 157.344C141.01 158.096 141.297 158.82 141.816 159.363C142.335 159.906 143.045 160.226 143.796 160.254C144.165 160.287 144.537 160.245 144.889 160.131C145.241 160.017 145.567 159.833 145.847 159.591C146.127 159.348 146.356 159.052 146.518 158.719C146.681 158.386 146.776 158.024 146.796 157.654C146.807 156.903 146.523 156.178 146.005 155.634C145.487 155.09 144.776 154.77 144.026 154.744C143.656 154.709 143.282 154.749 142.928 154.861C142.574 154.974 142.246 155.158 141.965 155.401C141.683 155.644 141.454 155.941 141.291 156.275C141.128 156.609 141.034 156.973 141.016 157.344Z" fill="#263238"/>
<path d="M168.405 153.784C168.765 154.154 170.955 152.534 174.055 152.544C177.155 152.554 179.425 154.104 179.765 153.724C179.925 153.554 179.565 152.884 178.575 152.154C177.231 151.229 175.636 150.737 174.005 150.744C172.39 150.746 170.817 151.253 169.505 152.194C168.555 152.934 168.235 153.614 168.405 153.784Z" fill="#263238"/>
<path d="M157.146 176.784C157.146 176.614 155.236 176.284 152.146 175.884C151.356 175.794 150.606 175.644 150.476 175.104C150.404 174.286 150.586 173.466 150.996 172.754L153.346 166.754C156.596 158.164 158.956 151.104 158.606 150.974C158.256 150.844 155.336 157.704 152.086 166.294C151.253 168.381 150.503 170.391 149.836 172.324C149.345 173.283 149.2 174.381 149.426 175.434C149.542 175.714 149.721 175.964 149.948 176.165C150.175 176.366 150.444 176.513 150.736 176.594C151.173 176.714 151.623 176.777 152.076 176.784C155.186 176.954 157.136 176.964 157.146 176.784Z" fill="#263238"/>
<path d="M166.277 178.934C165.777 178.934 165.767 182.274 162.887 184.664C160.007 187.054 156.417 186.664 156.387 187.154C156.387 187.364 157.187 187.804 158.707 187.854C160.679 187.879 162.598 187.21 164.127 185.964C165.591 184.76 166.533 183.037 166.757 181.154C166.887 179.754 166.507 178.914 166.277 178.934Z" fill="#263238"/>
<path d="M167.606 143.694C167.916 144.534 171.006 144.134 174.606 144.574C178.206 145.014 181.196 146.004 181.676 145.254C181.896 144.894 181.376 144.094 180.196 143.254C178.618 142.239 176.822 141.612 174.956 141.424C173.094 141.198 171.204 141.421 169.446 142.074C168.146 142.634 167.476 143.294 167.606 143.694Z" fill="#263238"/>
<path d="M138.646 144.894C139.196 145.604 141.336 144.894 143.906 144.834C146.476 144.774 148.646 145.314 149.156 144.574C149.366 144.214 149.026 143.504 148.076 142.844C146.8 142.041 145.313 141.637 143.806 141.684C142.299 141.73 140.84 142.224 139.616 143.104C138.706 143.824 138.406 144.554 138.646 144.894Z" fill="#263238"/>
<path d="M201.257 164.424C201.607 164.274 215.137 160.324 214.697 174.124C214.257 187.924 200.487 184.634 200.477 184.244C200.467 183.854 201.257 164.424 201.257 164.424Z" fill="#FFBE9D"/>
<path d="M204.836 179.114C204.896 179.114 205.076 179.294 205.476 179.494C206.038 179.755 206.68 179.788 207.266 179.584C208.746 179.094 210.046 176.824 210.186 174.334C210.265 173.153 210.074 171.97 209.626 170.874C209.51 170.438 209.291 170.037 208.986 169.704C208.681 169.371 208.3 169.117 207.876 168.964C207.601 168.882 207.306 168.899 207.043 169.012C206.78 169.126 206.565 169.328 206.436 169.584C206.236 169.964 206.316 170.244 206.246 170.264C206.176 170.284 205.956 170.024 206.086 169.454C206.178 169.116 206.378 168.818 206.656 168.604C207.045 168.33 207.526 168.218 207.996 168.294C208.559 168.426 209.079 168.699 209.508 169.088C209.937 169.476 210.259 169.967 210.446 170.514C210.992 171.732 211.235 173.063 211.156 174.394C210.976 177.174 209.466 179.724 207.456 180.244C207.081 180.339 206.69 180.349 206.311 180.273C205.932 180.196 205.575 180.036 205.266 179.804C204.836 179.424 204.836 179.144 204.836 179.114Z" fill="#EB996E"/>
<path d="M208.935 163.924C206.835 163.414 203.195 165.364 202.295 167.334C201.395 169.304 201.195 171.534 200.295 173.504C199.395 175.474 197.375 177.264 195.295 176.764C194.582 176.539 193.94 176.129 193.436 175.576C192.932 175.023 192.583 174.346 192.425 173.614C192.135 172.145 192.135 170.633 192.425 169.164C193.235 162.714 194.585 156.324 194.845 149.834C195.105 143.344 194.185 136.594 190.775 131.064C187.365 125.534 181.105 121.464 174.625 121.984C170.335 122.334 166.405 124.574 162.145 125.164C159.61 125.5 157.032 125.254 154.607 124.445C152.181 123.636 149.971 122.285 148.145 120.494C147.675 120.034 145.525 118.604 145.525 118.604C145.525 118.274 145.835 115.394 146.975 114.344C155.425 106.524 170.665 104.344 181.835 107.154C193.005 109.964 203.475 117.844 208.275 128.314C213.075 138.784 211.655 153.314 209.005 163.924" fill="#263238"/>
<path d="M132.217 129.314C134.027 133.504 138.647 135.944 143.217 136.404C147.787 136.864 152.297 135.684 156.687 134.404C161.077 133.124 172.867 131.204 177.437 131.344C178.117 131.344 178.937 131.344 179.307 130.774C179.787 130.004 179.017 129.074 178.307 128.524C172.307 123.804 157.737 120.914 150.097 120.594C142.457 120.274 134.447 123.594 130.307 129.984" fill="#263238"/>
<path d="M134.205 129.834C134.205 129.834 187.205 112.834 210.085 158.624C210.085 158.624 213.505 147.154 213.505 141.004C213.505 136.904 211.055 112.444 185.895 104.754C185.895 104.754 147.985 90.2943 134.205 129.834Z" fill="#034498"/>
<g opacity="0.4">
<path opacity="0.4" d="M134.205 129.834C138.611 125.194 144.652 122.454 151.045 122.194C166.675 121.494 195.915 130.284 210.045 158.624C210.045 158.624 213.465 147.154 213.465 141.004C213.465 136.904 211.015 112.444 185.855 104.754C185.895 104.754 147.985 90.2943 134.205 129.834Z" fill="black"/>
</g>
<path d="M207.835 153.254C199.801 141.293 189.273 131.212 176.975 123.704C164.835 116.094 144.705 108.574 130.835 104.884C126.675 103.784 122.335 102.814 118.085 103.554C113.835 104.294 109.675 107.114 108.625 111.294C107.305 116.524 116.625 124.594 120.955 127.764C125.229 130.613 129.656 133.227 134.215 135.594C134.215 135.594 134.095 125.894 149.625 123.894C170.735 121.174 207.835 153.254 207.835 153.254Z" fill="#034498"/>
<path d="M164.437 113.674C164.437 113.674 156.797 109.454 149.137 108.474C150.412 107.469 151.81 106.629 153.297 105.974C157.458 106.664 161.482 108.014 165.217 109.974L164.437 113.674Z" fill="#FAFAFA"/>
<path d="M230.976 251.264C230.976 251.264 216.496 267.814 218.096 290.844C218.316 294.034 218.476 298.484 218.866 301.664C221.306 321.424 225.086 339.764 225.086 339.764H226.466L276.956 327.294C276.956 327.294 269.346 283.464 267.596 277.644C262.006 259.014 242.836 248.764 242.836 248.764L230.976 251.264Z" fill="#034498"/>
<path d="M174.046 470.834C174.046 470.834 174.046 470.584 174.046 470.094C174.046 469.604 174.046 468.854 174.046 467.894C174.046 465.954 174.046 463.114 174.046 459.444C174.046 452.074 174.046 441.444 174.106 428.124C174.196 401.534 174.326 364.534 174.476 322.804L174.796 323.054L155.596 328.054L136.736 332.944L136.926 332.694C137.186 353.614 137.116 373.354 137.016 391.194C136.916 409.034 136.816 424.964 136.736 438.284C136.656 451.604 136.736 462.284 136.736 469.684C136.736 473.364 136.736 476.214 136.736 478.164V480.364C136.736 480.854 136.736 481.104 136.736 481.104C136.736 481.104 136.736 480.854 136.736 480.364C136.736 479.874 136.736 479.124 136.736 478.164C136.736 476.164 136.666 473.364 136.606 469.684C136.516 462.314 136.456 451.604 136.466 438.284C136.476 424.964 136.576 409.024 136.636 391.194C136.696 373.364 136.756 353.614 136.486 332.704V332.494L136.686 332.444L155.536 327.554L174.746 322.554L175.076 322.464V322.804C174.856 364.534 174.666 401.544 174.536 428.124C174.446 441.404 174.366 452.074 174.316 459.444C174.316 463.114 174.256 465.954 174.236 467.894C174.236 468.894 174.236 469.584 174.236 470.094C174.236 470.604 174.046 470.834 174.046 470.834Z" fill="#263238"/>
<path d="M150.665 221.504C150.665 221.504 148.665 240.714 155.125 243.704C162.415 247.064 169.685 243.774 174.125 240.924C186.035 233.324 203.735 212.214 203.735 212.214L215.735 227.794C215.735 227.794 185.515 264.114 179.445 263.874C175.445 263.724 169.295 259.874 165.445 257.164C163.338 255.693 161.461 253.917 159.875 251.894L154.645 245.244C148.115 248.464 142.835 252.594 139.185 257.884C139.185 257.884 137.445 244.434 140.575 238.334C143.705 232.234 149.945 221.704 149.945 221.704L150.665 221.504Z" fill="#034498"/>
<path d="M140.206 238.854C140.182 238.969 140.141 239.08 140.086 239.184C139.996 239.424 139.866 239.734 139.696 240.124C139.281 241.367 138.983 242.646 138.806 243.944C138.226 248.727 138.226 253.562 138.806 258.344L138.446 258.274C140.128 255.433 142.326 252.93 144.926 250.894C147.87 248.501 151.085 246.464 154.506 244.824L154.666 244.744L154.786 244.884C156.896 247.334 159.126 249.884 161.476 252.474C163.826 255.188 166.473 257.629 169.366 259.754C170.748 260.733 172.251 261.529 173.836 262.124C174.616 262.408 175.419 262.626 176.236 262.774C177.036 262.904 177.849 262.934 178.656 262.864C181.906 262.564 184.656 260.704 186.936 258.744L207.626 236.684L213.626 230.354L215.236 228.684L215.656 228.254L215.816 228.124L215.696 228.284L215.296 228.744L213.746 230.464L207.846 236.894L187.306 259.074C186.122 260.129 184.827 261.055 183.446 261.834C182 262.654 180.4 263.165 178.746 263.334C177.892 263.404 177.033 263.374 176.186 263.244C175.338 263.095 174.505 262.871 173.696 262.574C172.063 261.963 170.513 261.147 169.086 260.144C166.151 257.999 163.468 255.53 161.086 252.784C158.726 250.184 156.496 247.624 154.396 245.164L154.686 245.224C151.298 246.851 148.11 248.864 145.186 251.224C142.649 253.218 140.497 255.658 138.836 258.424L138.536 258.944L138.476 258.354C137.917 253.54 137.971 248.675 138.636 243.874C138.841 242.574 139.176 241.298 139.636 240.064C139.816 239.644 139.976 239.344 140.076 239.134C140.113 239.038 140.157 238.945 140.206 238.854Z" fill="#263238"/>
<g opacity="0.3">
<path opacity="0.3" d="M140.946 255.044C140.744 255.548 140.707 256.103 140.84 256.629C140.973 257.156 141.269 257.626 141.686 257.974C142.103 258.134 142.555 258.176 142.994 258.097C143.433 258.018 143.842 257.82 144.176 257.524C144.831 256.925 145.397 256.234 145.856 255.474C147.052 253.75 148.49 252.208 150.126 250.894C151.736 249.594 153.946 248.494 155.796 249.414C156.953 250.179 157.83 251.298 158.296 252.604C160.806 257.734 163.816 262.954 168.726 265.884C173.636 268.814 179.946 268.944 185.356 267.034C190.734 264.941 195.466 261.467 199.076 256.964C202.658 252.474 205.834 247.676 208.566 242.624C210.826 238.714 213.116 234.684 213.816 230.224C213.196 230.574 211.736 232.824 211.116 233.174C211.116 233.174 187.806 258.844 185.616 260.174C183.426 261.504 177.386 270.364 160.276 251.174L154.616 245.034C154.616 245.034 143.836 250.264 140.946 255.044Z" fill="black"/>
</g>
<path d="M203.378 310.427L177.748 306.496L176.561 314.235L202.191 318.166L203.378 310.427Z" fill="white"/>
<path d="M272.715 328.264L232.715 337.934L237.335 375.664L160.735 433.194C157.675 433.624 154.535 434.114 152.795 434.554C148.605 435.554 141.205 446.104 139.115 447.154L124.185 458.674C124.185 458.674 122.875 463.914 129.685 462.864C136.495 461.814 144.085 456.584 144.875 456.584C145.665 456.584 148.045 458.174 146.875 461.584C145.875 464.584 141.775 474.904 141.775 474.904L136.705 484.204C136.705 484.204 158.625 484.924 164.705 476.794C168.865 471.274 181.705 455.624 181.705 455.624C181.705 455.624 271.875 411.264 277.285 401.974C284.655 389.334 272.715 328.264 272.715 328.264Z" fill="#FFBE9D"/>
<path d="M254.276 391.924C254.33 390.548 254.27 389.17 254.096 387.804C253.612 384.506 251.995 381.478 249.522 379.241C247.05 377.004 243.876 375.697 240.546 375.544C239.168 375.507 237.79 375.584 236.426 375.774C236.767 375.611 237.131 375.5 237.506 375.444C238.511 375.231 239.539 375.141 240.566 375.174C244.013 375.231 247.321 376.539 249.876 378.853C252.431 381.167 254.059 384.33 254.456 387.754C254.579 388.774 254.579 389.805 254.456 390.824C254.45 391.198 254.389 391.568 254.276 391.924Z" fill="#EB996E"/>
<path d="M154.715 470.114C154.637 470.971 154.462 471.816 154.195 472.634C153.683 474.657 152.938 476.613 151.975 478.464C151.016 480.357 149.556 481.952 147.755 483.074C147.205 483.402 146.608 483.645 145.985 483.794C145.761 483.872 145.521 483.896 145.285 483.864C146.074 483.561 146.837 483.193 147.565 482.764C149.25 481.597 150.623 480.035 151.565 478.214C152.487 476.388 153.247 474.484 153.835 472.524C154.058 471.697 154.352 470.891 154.715 470.114Z" fill="#EB996E"/>
<path d="M165.336 466.624C165.185 467.464 164.926 468.281 164.566 469.054C163.814 470.969 162.939 472.832 161.946 474.634C160.951 476.436 159.842 478.173 158.626 479.834C158.165 480.567 157.614 481.238 156.986 481.834C157.372 481.075 157.82 480.349 158.326 479.664C159.186 478.354 160.326 476.514 161.486 474.424C162.646 472.334 163.576 470.424 164.226 468.954C164.528 468.147 164.899 467.367 165.336 466.624Z" fill="#EB996E"/>
<path d="M165.046 401.324C165.155 401.743 165.215 402.172 165.226 402.604C165.316 403.424 165.386 404.604 165.426 406.094C165.614 413.813 164.498 421.507 162.126 428.854C161.666 430.254 161.266 431.384 160.946 432.144C160.809 432.551 160.632 432.943 160.416 433.314C160.483 432.89 160.597 432.474 160.756 432.074C161.016 431.294 161.366 430.154 161.756 428.744C162.83 425.069 163.645 421.323 164.196 417.534C164.737 413.745 165.018 409.922 165.036 406.094C165.036 404.624 165.036 403.434 165.036 402.614C164.999 402.185 165.002 401.753 165.046 401.324Z" fill="#263238"/>
<path d="M143.375 413.334C143.861 414.356 144.282 415.409 144.635 416.484C145.375 418.484 146.405 421.144 147.635 424.094C148.865 427.044 150.005 429.694 150.855 431.604C151.356 432.62 151.793 433.665 152.165 434.734C151.52 433.791 150.971 432.786 150.525 431.734C149.585 429.854 148.375 427.224 147.155 424.264C145.935 421.304 144.965 418.574 144.315 416.574C143.903 415.525 143.588 414.441 143.375 413.334Z" fill="#263238"/>
<path d="M137.566 439.224C137.364 439.31 137.152 439.371 136.936 439.404L135.106 439.844C134.306 440.034 133.336 440.254 132.186 440.444C131.036 440.634 129.746 440.914 128.286 441.094C126.826 441.274 125.286 441.524 123.536 441.674C121.786 441.824 119.976 441.954 118.046 442.064C109.639 442.437 101.219 441.796 92.9657 440.154C91.0757 439.744 89.2657 439.384 87.6057 438.924C85.9457 438.464 84.3957 438.064 82.9957 437.634C81.5957 437.204 80.3357 436.774 79.2357 436.404C78.1357 436.034 77.2357 435.674 76.4457 435.404L74.6957 434.704C74.4893 434.625 74.2887 434.532 74.0957 434.424C74.3161 434.455 74.5314 434.516 74.7357 434.604L76.5157 435.214C77.2757 435.494 78.2257 435.834 79.3257 436.214C80.4257 436.594 81.6857 436.994 83.0957 437.364C84.5057 437.734 86.0357 438.204 87.7057 438.584C89.3757 438.964 91.1657 439.374 93.0557 439.764C97.1677 440.531 101.317 441.086 105.486 441.424C109.659 441.724 113.844 441.804 118.026 441.664C119.956 441.564 121.786 441.494 123.496 441.324C125.206 441.154 126.786 440.994 128.236 440.814C129.686 440.634 130.986 440.414 132.136 440.234C133.286 440.054 134.266 439.884 135.066 439.724L136.916 439.384C137.126 439.306 137.344 439.253 137.566 439.224Z" fill="#263238"/>
<path d="M133.756 421.834C132.101 421.229 130.51 420.462 129.006 419.544C127.422 418.776 125.915 417.858 124.506 416.804C126.164 417.402 127.756 418.17 129.256 419.094C130.843 419.855 132.351 420.773 133.756 421.834Z" fill="#263238"/>
<path d="M276.956 327.294L276.706 327.374L275.966 327.574L273.106 328.304L262.346 330.964L225.146 339.964L224.876 340.024V339.754C223.826 332.884 222.386 325.474 220.996 317.754C220.086 312.604 219.296 307.554 218.756 302.654C218.216 297.754 217.976 292.984 217.906 288.444C217.796 284.147 218.047 279.849 218.656 275.594C219.198 271.872 220.304 268.253 221.936 264.864C223.333 262.087 225.2 259.573 227.456 257.434C229.153 255.817 231.102 254.487 233.226 253.494C234.577 252.891 235.993 252.444 237.446 252.164L238.586 252.024C238.716 252.011 238.846 252.011 238.976 252.024C238.85 252.066 238.719 252.092 238.586 252.104L237.466 252.304C236.034 252.613 234.642 253.083 233.316 253.704C231.23 254.73 229.32 256.08 227.656 257.704C225.453 259.84 223.63 262.336 222.266 265.084C220.679 268.448 219.607 272.032 219.086 275.714C218.499 279.951 218.265 284.229 218.386 288.504C218.466 293.024 218.726 297.764 219.266 302.654C219.806 307.544 220.606 312.584 221.516 317.724C222.896 325.434 224.326 332.854 225.376 339.724L225.066 339.514L262.316 330.664L273.106 328.144L275.986 327.494L276.736 327.334C276.808 327.314 276.882 327.301 276.956 327.294Z" fill="#263238"/>
</svg>
