<svg width="31" height="36" viewBox="0 0 31 36" fill="none" xmlns="http://www.w3.org/2000/svg">
<path fill-rule="evenodd" clip-rule="evenodd" d="M14.7556 0.388407C14.5963 0.474853 14.1733 0.807231 13.8156 1.12711C10.7717 3.84891 7.23558 5.1963 2.629 5.38952C1.11563 5.45306 0.89546 5.51884 0.560149 6.00805C0.389281 6.25733 0.385929 6.28994 0.330347 8.25628C0.250255 11.0853 0.31261 15.641 0.450729 17.0597C0.837573 21.032 1.67885 24.0971 3.08057 26.6408C5.04104 30.1986 8.08964 32.9348 12.1937 34.8202C13.4534 35.3988 15.0113 35.9829 15.2949 35.9829C15.4162 35.9829 15.9398 35.8239 16.4585 35.6295C19.8377 34.3631 22.6051 32.6194 24.7216 30.4227C27.9132 27.1102 29.5547 23.0614 30.1391 17.0597C30.2772 15.641 30.3396 11.0853 30.2595 8.25628C30.2039 6.28994 30.2006 6.25733 30.0297 6.00805C29.6944 5.51884 29.4742 5.45306 27.9608 5.38952C23.2984 5.19393 19.6505 3.77888 16.5918 0.979286C15.7427 0.202037 15.3387 0.0720883 14.7556 0.388407ZM15.963 3.73503C17.6702 5.10678 19.7285 6.21173 21.8488 6.89451C23.3323 7.37227 24.6844 7.63286 26.5999 7.81029C27.1913 7.86504 27.6941 7.92879 27.7171 7.95183C27.8049 8.03961 27.7614 16.0245 27.6684 16.92C27.296 20.5051 26.703 22.7705 25.539 25.0549C23.6815 28.6999 20.5003 31.3779 15.9059 33.1639L15.2949 33.4013L14.6839 33.1639C10.5411 31.5534 7.39011 29.0817 5.57774 26.0206C4.0821 23.4945 3.3404 20.9535 2.92143 16.92C2.82842 16.0245 2.78499 8.03961 2.87269 7.95183C2.89574 7.92879 3.39849 7.86504 3.98993 7.81029C5.90544 7.63286 7.25751 7.37227 8.74106 6.89451C10.8628 6.21125 12.8938 5.1204 14.6269 3.73314C14.97 3.45858 15.2706 3.23387 15.295 3.23387C15.3194 3.23387 15.62 3.45942 15.963 3.73503ZM19.9734 13.5057C19.8773 13.5432 18.3934 14.9779 16.6757 16.6939L13.5526 19.814L12.102 18.3739C10.7205 17.0024 10.6358 16.9315 10.325 16.8849C9.35526 16.7395 8.60357 17.6589 8.94391 18.5739C9.04111 18.8352 12.7531 22.5627 13.0408 22.6878C13.4234 22.8543 13.8978 22.8135 14.2513 22.5839C14.7478 22.2614 21.4841 15.4658 21.6114 15.1591C21.9666 14.3029 21.3898 13.4211 20.4824 13.4331C20.2984 13.4355 20.0694 13.4682 19.9734 13.5057Z" fill="black"/>
</svg>
