<svg width="673" height="449" viewBox="0 0 673 449" fill="none" xmlns="http://www.w3.org/2000/svg">
<path d="M651.59 414.709C651.59 414.844 510.951 414.942 337.523 414.942C164.095 414.942 23.4023 414.844 23.4023 414.709C23.4023 414.575 164.015 414.476 337.523 414.476C511.031 414.476 651.59 414.584 651.59 414.709Z" fill="#263238"/>
<path d="M148.831 410.767C160.927 402.389 163.718 386.781 163.287 372.741C163.215 370.402 163.484 367.929 162.389 365.868C161.295 363.808 158.684 362.401 156.575 363.378C154.834 364.193 154.062 366.209 153.084 367.858C151.776 370.086 149.862 371.9 147.566 373.09C146.067 373.852 144.218 374.318 142.738 373.502C140.719 372.382 140.495 369.587 140.512 367.23C140.56 362.888 140.602 358.545 140.638 354.202C140.789 351.894 140.568 349.577 139.983 347.339C139.265 345.126 137.668 343.065 135.443 342.429C133.217 341.793 130.48 343.074 130.005 345.35C129.91 346.315 129.883 347.285 129.924 348.253C129.937 348.736 129.807 349.213 129.55 349.622C129.293 350.032 128.92 350.357 128.479 350.556C127.582 350.825 126.613 350.162 125.922 349.481C123.517 347.115 121.893 344.105 120.376 341.058C118.86 338.012 117.388 334.947 115.208 332.376C113.027 329.804 110.012 327.753 106.674 327.555C103.336 327.358 99.7646 329.401 98.9031 332.672C98.0417 335.942 99.953 339.302 102.035 341.963C105.106 345.918 108.732 349.41 112.803 352.33C113.593 352.775 114.222 353.459 114.597 354.283C115.091 355.842 113.619 357.374 112.076 357.867C110.335 358.441 108.487 358.252 106.629 358.458C104.772 358.665 102.833 359.462 102.143 361.146C101.182 363.53 103.165 366.03 105.122 367.669C109.043 370.963 113.506 373.555 118.312 375.33C120.078 375.827 121.738 376.641 123.212 377.731C124.594 378.941 125.419 381.038 124.576 382.677C123.732 384.317 121.588 384.837 119.784 384.469C117.98 384.102 116.383 383.152 114.669 382.498C111.466 381.28 107.32 381.486 105.256 384.245C104.627 385.197 104.227 386.281 104.086 387.412C103.946 388.544 104.07 389.692 104.449 390.768C105.223 392.907 106.419 394.869 107.966 396.538C113.029 402.654 119.628 407.317 127.088 410.05C134.518 412.658 141.446 413.374 148.813 410.704" fill="#034498"/>
<path d="M148.06 414.718C147.576 409.154 147.324 409.038 145.26 401.95C142.957 394.293 140.212 386.775 137.041 379.434C136.203 377.481 135.384 375.551 134.582 373.646C133.766 371.746 132.967 369.865 132.061 368.073C130.315 364.641 128.38 361.308 126.264 358.091C124.281 354.991 122.28 352.133 120.386 349.463C118.493 346.793 116.68 344.355 114.931 342.196C112.196 338.776 109.196 335.576 105.957 332.627C104.809 331.578 103.893 330.835 103.265 330.279L102.547 329.697C102.386 329.562 102.296 329.5 102.287 329.509C102.361 329.587 102.439 329.662 102.52 329.733L103.211 330.351C103.822 330.889 104.719 331.686 105.85 332.752C109.044 335.741 112.01 338.963 114.724 342.393C116.456 344.553 118.251 347.008 120.108 349.678C121.966 352.348 123.967 355.215 125.95 358.306C128.036 361.527 129.944 364.859 131.666 368.288C132.563 370.08 133.362 371.943 134.169 373.843C134.977 375.742 135.794 377.678 136.628 379.631C139.791 386.959 142.541 394.459 144.866 402.094C146.938 409.154 147.217 409.262 147.746 414.772" fill="#263238"/>
<path d="M131.907 368.055C132.017 367.732 132.093 367.399 132.131 367.06C132.257 366.415 132.409 365.483 132.58 364.318C132.912 361.998 133.271 358.781 133.657 355.233C134.043 351.685 134.437 348.477 134.805 346.165C134.994 345.01 135.146 344.078 135.272 343.433C135.355 343.101 135.397 342.761 135.397 342.42C135.27 342.736 135.171 343.063 135.101 343.397C134.94 344.033 134.733 344.965 134.509 346.085C134.06 348.387 133.612 351.604 133.226 355.152C132.84 358.7 132.526 361.827 132.275 364.256C132.158 365.349 132.05 366.272 131.97 367.006C131.903 367.351 131.882 367.704 131.907 368.055Z" fill="#263238"/>
<path d="M101.918 362.347C102.313 362.437 102.716 362.488 103.12 362.5C103.883 362.571 105.005 362.661 106.378 362.831C109.124 363.136 112.901 363.727 117.047 364.489C121.193 365.25 124.908 366.173 127.582 366.89C128.919 367.239 129.996 367.553 130.74 367.786C131.123 367.914 131.517 368.01 131.916 368.073C131.556 367.888 131.18 367.736 130.794 367.616C130.058 367.356 128.999 366.997 127.662 366.612C124.97 365.815 121.282 364.883 117.128 364.076C113.568 363.379 109.973 362.868 106.36 362.544C104.978 362.419 103.856 362.365 103.084 362.347C102.696 362.313 102.306 362.313 101.918 362.347Z" fill="#263238"/>
<path d="M144.865 401.404C144.953 401.291 145.025 401.168 145.081 401.036C145.215 400.741 145.386 400.382 145.592 399.952C146.041 399.011 146.642 397.632 147.387 395.92C148.84 392.489 150.716 387.695 152.699 382.364C154.682 377.033 156.513 372.23 157.895 368.78L159.555 364.695C159.725 364.247 159.878 363.879 159.994 363.584C160.111 363.288 160.138 363.189 160.12 363.18C160.036 363.294 159.967 363.417 159.914 363.548L159.402 364.623C158.953 365.573 158.343 366.953 157.607 368.664C156.145 372.087 154.278 376.889 152.295 382.211C150.312 387.534 148.481 392.345 147.091 395.804C146.418 397.479 145.852 398.859 145.44 399.881C145.26 400.329 145.116 400.696 145 401.001C144.941 401.13 144.896 401.265 144.865 401.404Z" fill="#263238"/>
<path d="M105.031 388.43C105.157 388.498 105.289 388.552 105.426 388.591L106.584 388.985L110.855 390.383C114.444 391.557 119.407 393.25 124.88 395.114C130.354 396.978 135.334 398.635 138.959 399.737C140.754 400.293 142.244 400.723 143.267 401.001L144.451 401.323C144.586 401.362 144.724 401.389 144.864 401.404C144.864 401.404 144.738 401.332 144.469 401.234L143.32 400.848L139.085 399.45C135.496 398.268 130.533 396.583 125.051 394.711C119.568 392.838 114.606 391.189 110.981 390.087C109.186 389.532 107.696 389.102 106.673 388.824L105.489 388.51C105.343 388.454 105.188 388.427 105.031 388.43Z" fill="#263238"/>
<path d="M294.541 414.709H169.659C154.575 414.647 141.842 401.798 141.887 386.727L143.215 72.6704C143.229 69.0859 143.95 65.5395 145.338 62.2335C146.725 58.9276 148.751 55.927 151.3 53.4033C153.849 50.8796 156.872 48.8821 160.194 47.5251C163.517 46.1681 167.075 45.4782 170.664 45.4947L296.12 46.0771C299.708 46.0923 303.258 46.8132 306.567 48.1986C309.875 49.5839 312.878 51.6066 315.404 54.151C317.93 56.6954 319.929 59.7117 321.287 63.0277C322.645 66.3437 323.335 69.8943 323.319 73.4768L321.991 387.534C321.976 391.118 321.255 394.665 319.868 397.971C318.48 401.276 316.454 404.277 313.905 406.801C311.356 409.325 308.334 411.322 305.011 412.679C301.689 414.036 298.131 414.726 294.541 414.709Z" fill="#263238"/>
<path d="M295.951 58.0028L271.624 57.9311C270.831 57.9451 270.049 58.115 269.321 58.431C268.594 58.7471 267.936 59.2031 267.385 59.773C266.834 60.343 266.401 61.0157 266.111 61.7528C265.821 62.4898 265.679 63.2768 265.693 64.0687V68.477C265.719 70.0757 265.11 71.6196 263.998 72.7701C262.886 73.9207 261.362 74.584 259.762 74.6146L212.346 74.3906C211.553 74.3697 210.772 74.193 210.047 73.8705C209.323 73.548 208.669 73.086 208.123 72.511C207.577 71.936 207.15 71.2593 206.866 70.5195C206.582 69.7796 206.447 68.9912 206.469 68.1993V63.7999C206.507 62.1994 205.91 60.6488 204.807 59.4869C203.704 58.325 202.185 57.6465 200.582 57.5996H192.031L170.737 57.501C168.224 57.4904 165.733 57.9742 163.406 58.9249C161.08 59.8756 158.964 61.2744 157.179 63.0416C155.394 64.8088 153.976 66.9098 153.004 69.2245C152.032 71.5392 151.527 74.0223 151.516 76.5321L150.215 383.009C150.194 388.076 152.188 392.944 155.761 396.543C159.333 400.142 164.191 402.177 169.265 402.201L294.47 402.775C296.985 402.788 299.477 402.305 301.805 401.356C304.133 400.406 306.251 399.007 308.037 397.24C309.823 395.472 311.242 393.371 312.214 391.055C313.186 388.739 313.691 386.254 313.7 383.744L314.965 77.1951C314.985 72.1348 312.994 67.2733 309.43 63.6758C305.866 60.0783 301.019 58.0383 295.951 58.0028Z" fill="#F5F5F5"/>
<path d="M242.811 344.848C242.667 348.549 242.533 352.016 242.416 354.91H260.363L258.164 343.872L242.811 344.848Z" fill="#F5F5F5"/>
<path d="M169.713 349.463L169.865 354.91H240.62C240.737 351.846 240.871 348.459 241.006 344.965L169.713 349.463Z" fill="#F5F5F5"/>
<path d="M259.105 343.818L261.313 354.901H294.478L294.075 341.614L259.105 343.818Z" fill="#F5F5F5"/>
<path d="M244.604 188.819L250.876 152.522L234.455 151.303V188.819H244.604Z" fill="#F5F5F5"/>
<path d="M168.232 329.312L150.411 336.283L150.357 348.889L168.762 347.724L168.232 329.312Z" fill="#F5F5F5"/>
<path d="M168.151 326.48L167.182 292.674H167.164V280.748L150.635 282.496L150.42 333.397L168.142 326.462L168.151 326.48Z" fill="#F5F5F5"/>
<path d="M167.165 254.137L150.771 251.969L150.654 279.799L167.165 278.051V254.137Z" fill="#F5F5F5"/>
<path d="M289.372 281.25L288.681 290.945L269.316 293.024L270.815 300.693L292.791 299.036L292.468 288.042L294.217 280.766L289.372 281.25Z" fill="#F5F5F5"/>
<path d="M254.466 301.921L269.909 300.756L266.544 283.553L253.066 284.915L254.466 301.921Z" fill="#F5F5F5"/>
<path d="M254.619 303.713L255.795 318.058L257.885 337.734L258.747 342.044L294.021 339.822L292.846 300.828L254.619 303.713Z" fill="#F5F5F5"/>
<path d="M193.905 235.966L195.26 238.287L168.062 254.155V291.742L196.776 289.708L252.151 284.108L250.123 259.477L197.261 252.578L197.611 249.89L249.898 256.709L246.471 215.018L194.712 219.982L194.542 218.19L246.318 213.226L244.523 191.471H194.721L151.012 199.41L150.797 249.227L167.335 251.467L193.905 235.966ZM170.843 288.122C170.843 288.122 171.05 257.139 170.843 255.983L193.043 244.192L195.924 286.545L170.843 288.122Z" fill="#F5F5F5"/>
<path d="M287.551 281.438L267.441 283.463L268.967 291.259L286.994 289.323L287.551 281.438Z" fill="#F5F5F5"/>
<path d="M243.06 338.209C242.997 339.84 242.935 341.452 242.881 343.047L257.848 342.098L257.077 338.245L243.06 338.209Z" fill="#F5F5F5"/>
<path d="M210.82 188.819L213.458 176.875H233.559V151.241L170.718 146.59V170.666L151.094 175.101L151.004 196.713L194.462 188.819H210.82Z" fill="#F5F5F5"/>
<path d="M252.753 117.47L252.215 115.275L276.21 105.795L260.605 74.5071C260.308 74.5551 260.008 74.5791 259.708 74.5788L233.191 74.4534L233.909 118.241L252.753 117.47Z" fill="#F5F5F5"/>
<path d="M289.112 100.688V57.976L271.623 57.9312C270.83 57.9451 270.047 58.115 269.32 58.4311C268.592 58.7471 267.935 59.2031 267.384 59.7731C266.833 60.343 266.4 61.0157 266.11 61.7528C265.819 62.4899 265.677 63.2768 265.691 64.0687V68.4771C265.691 69.4614 265.458 70.4318 265.012 71.3097C264.566 72.1876 263.92 72.9484 263.125 73.5305L278.739 104.837L289.112 100.688Z" fill="#F5F5F5"/>
<path d="M198.912 102.525L196.884 57.5459H192.029L173.051 57.4563L164.975 97.6777L198.912 102.525ZM194.587 62.1065L195.233 98.735L170.009 95.0525L175.527 62.1065H194.587Z" fill="#F5F5F5"/>
<path d="M199.828 102.66V103.036C199.828 106.548 199.935 112.892 199.989 119.621L233.038 118.277L232.32 74.4534L212.318 74.3549C211.525 74.334 210.744 74.1572 210.019 73.8347C209.295 73.5122 208.641 73.0503 208.095 72.4753C207.549 71.9003 207.122 71.2236 206.838 70.4837C206.554 69.7439 206.419 68.9555 206.441 68.1635V63.7642C206.48 62.1637 205.882 60.613 204.779 59.4512C203.676 58.2893 202.157 57.6107 200.554 57.5638H197.764L199.792 102.66H199.828Z" fill="#F5F5F5"/>
<path d="M162.301 97.2745L170.306 57.4473C165.307 57.5362 160.541 59.5757 157.029 63.1293C153.517 66.6828 151.538 71.468 151.516 76.4604L151.426 96.3157L151.516 95.7333L162.301 97.2745Z" fill="#F5F5F5"/>
<path d="M168.027 146.393L151.22 145.148L151.104 172.341L168.027 168.516V146.393Z" fill="#F5F5F5"/>
<path d="M162.121 98.1526L151.425 96.6205L151.236 140.659L153.542 140.829L162.121 98.1526Z" fill="#F5F5F5"/>
<path d="M196.067 325.961L196.345 290.613L168.07 292.611L169.075 327.242L196.067 325.961Z" fill="#F5F5F5"/>
<path d="M201.272 317.771L241.311 336.928C241.796 324.384 242.209 312.736 242.209 311.956L243.106 311.911L243.537 311.069C244.102 311.347 244.102 311.347 243.806 319.886C243.635 324.643 243.402 330.978 243.16 337.313H257.006L254.969 318.103L252.277 284.951L199.953 290.219L201.272 317.771Z" fill="#F5F5F5"/>
<path d="M299.431 259.137L298.973 254.469L250.975 259.459L252.994 284.019L294.441 279.843L299.431 259.137Z" fill="#F5F5F5"/>
<path d="M233.558 179.563H215.62L213.574 188.819H233.558V179.563Z" fill="#F5F5F5"/>
<path d="M292.021 182.69L247.109 179.59L245.314 190.181L247.208 213.172L294.569 208.62L292.021 182.69ZM248.76 190.163L251.174 183.479L290.181 185.943L292.433 205.063L250.079 210.081L248.76 190.163Z" fill="#F5F5F5"/>
<path d="M296.677 230.743L294.703 210.412L247.314 214.955L249.1 236.594L296.677 230.743Z" fill="#F5F5F5"/>
<path d="M168.815 349.525L150.429 350.681L150.357 349.49L150.33 354.901H168.968L168.815 349.525Z" fill="#F5F5F5"/>
<path d="M314.669 90.5903L314.938 91.2802L314.965 77.1951C314.984 72.1286 312.988 67.2617 309.417 63.6632C305.845 60.0647 300.989 58.0289 295.915 58.0028H289.947V100.366L314.669 90.5903Z" fill="#F5F5F5"/>
<path d="M241.275 337.94L200.402 318.38L198.957 290.363L197.252 290.533L196.956 326.821L169.094 328.138V328.944L169.632 347.653L241.051 343.173C241.141 341.426 241.212 339.678 241.275 337.94ZM170.844 330.45L209.842 327.762L235.209 339.508L170.844 342.985V330.45Z" fill="#F5F5F5"/>
<path d="M303.048 137.675L304.726 127.774C290.064 122.551 289.05 107.283 289.095 102.686L279.529 106.468L293.931 135.346L303.048 137.675Z" fill="#F5F5F5"/>
<path d="M250.75 256.78L270.68 254.711L266.759 237.131L249.314 239.281L250.75 256.78Z" fill="#F5F5F5"/>
<path d="M292.083 152.818H254.862L251.775 152.585L247.566 176.929L291.751 179.975L290.728 169.394L295.08 153.767L292.083 152.818Z" fill="#F5F5F5"/>
<path d="M291.177 148.338L291.643 136.69L277.017 107.364L254.332 116.324L262.13 148.293L291.177 148.338ZM276.128 110.965L289.534 136.43L287.596 144.368L264.66 143.472L258.926 119.388L276.128 110.965Z" fill="#F5F5F5"/>
<path d="M296.965 288.508L297.656 311.329L313.781 310.424L313.835 311.32L297.683 312.225L298.499 339.535L313.754 338.567L313.862 340.359L298.553 341.327L298.966 354.901H313.826L314.149 278.759L298.948 280.292L296.965 288.508Z" fill="#F5F5F5"/>
<path d="M198.939 103.43L164.787 98.5378L156.244 141.026L199.092 144.198C199.262 137.675 199.11 117.587 198.939 103.43Z" fill="#F5F5F5"/>
<path d="M255.113 148.338H260.282L252.968 118.357L233.963 119.137L234.421 146.805L255.113 148.338Z" fill="#F5F5F5"/>
<path d="M199.963 144.261L233.514 146.743L233.066 119.173L200.008 120.517C200.106 129.844 200.106 139.79 199.963 144.261Z" fill="#F5F5F5"/>
<path d="M296.937 233.422L267.648 237.024L271.588 254.612L298.714 251.799L296.937 233.422Z" fill="#F5F5F5"/>
<path d="M304.878 126.834L306.753 115.723L314.829 116.35L314.937 92.4182L290 102.274C289.489 119.11 300.086 125.033 304.878 126.834Z" fill="#F5F5F5"/>
<path d="M295.277 169.788L296.291 180.289L314.561 181.552L314.651 159.932L299.36 155.111L295.277 169.788Z" fill="#F5F5F5"/>
<path d="M303.964 259.45L299.172 279.369L314.148 277.854L314.238 256.969C309.644 255.759 305.633 254.773 303.47 254.361L303.964 259.45Z" fill="#F5F5F5"/>
<path d="M293.859 148.678L314.668 155.246L314.722 143.427L294.281 138.15L293.859 148.678Z" fill="#F5F5F5"/>
<path d="M303.209 251.629C304.888 251.879 308.064 252.525 314.247 254.182L314.444 208.486L299.189 209.956L303.209 251.629Z" fill="#F5F5F5"/>
<path d="M299 208.199L314.453 206.712L314.542 184.249L296.551 183.004L299 208.199Z" fill="#F5F5F5"/>
<path d="M306.602 127.398C309.29 128.23 312.018 128.927 314.776 129.486V118.142L308.199 117.632L306.602 127.398Z" fill="#F5F5F5"/>
<path d="M304.797 138.087L314.73 140.65L314.775 130.409C312.2 129.889 309.391 129.19 306.448 128.294L304.797 138.087Z" fill="#F5F5F5"/>
<path d="M168.816 349.516L168.969 354.892H169.866L169.713 349.445L241.006 344.965C240.872 348.459 240.737 351.846 240.621 354.91H242.415C242.532 352.016 242.667 348.549 242.81 344.848L258.199 343.872L260.398 354.91H261.295L259.088 343.818L294.084 341.614L294.488 354.91H298.974L298.561 341.327L313.87 340.359L313.762 338.567L298.508 339.535L297.691 312.225L313.843 311.329L313.789 310.433L297.637 311.329L296.946 288.508L298.929 280.292L314.13 278.759V277.863L299.154 279.378L303.945 259.46L303.452 254.37C305.614 254.782 309.626 255.768 314.22 256.978V254.155C308.037 252.524 304.861 251.852 303.183 251.602L299.145 209.956L314.399 208.486V206.694L298.947 208.181L296.498 182.986L314.444 184.231V181.543L296.174 180.28L295.161 169.779L299.243 155.102L314.498 159.923V155.237L293.689 148.669L294.111 138.141L314.552 143.419V140.641L304.618 138.078L306.27 128.285C309.249 129.181 312.021 129.88 314.597 130.4V129.504C311.839 128.945 309.11 128.248 306.422 127.416L308.064 117.65L314.642 118.16V116.368L306.566 115.741L304.69 126.852C299.898 125.06 289.301 119.128 289.812 102.283L314.749 92.4272V91.2893L314.48 90.5993L289.821 100.348V57.9849H288.924V100.697L278.533 104.81L262.919 73.5037C262.178 74.0369 261.32 74.3842 260.416 74.5161L276.02 105.804L252.214 115.275L252.753 117.47L233.909 118.241L233.191 74.4534H232.293L233.011 118.277L199.962 119.621C199.909 112.865 199.837 106.548 199.801 103.036V102.659L197.773 57.5638H196.876L198.904 102.543L164.957 97.6777L173.033 57.4563H170.718H170.288L162.283 97.2835L151.515 95.7424L151.426 96.3248V96.6294L162.122 98.1616L153.543 140.838L151.237 140.668V145.148L168.044 146.393V168.516L151.121 172.341V175.101L170.745 170.621V146.635L233.559 151.285V176.929H213.458L210.82 188.864H194.462L151.004 196.757V199.49L194.722 191.507H244.506L246.301 213.262L194.525 218.226L194.695 220.018L246.453 215.054L249.881 256.745L197.593 249.926L197.244 252.614L250.105 259.513L252.151 284.108L196.813 289.682L168.098 291.716V254.155L195.296 238.314L193.941 235.993L167.335 251.467L150.753 249.263V251.951L167.165 254.155V278.069L150.654 279.817V282.505L167.183 280.757V292.683L168.161 326.489L150.439 333.424V336.309L168.26 329.339L168.789 347.751L150.385 348.916V349.516L150.457 350.708L168.816 349.516ZM242.882 343.047C242.936 341.452 242.999 339.84 243.061 338.209H257.078L257.849 342.062L242.882 343.047ZM258.747 342.044L257.849 337.734L255.759 318.022L254.583 303.686L292.81 300.801L293.985 339.786L258.747 342.044ZM267.406 283.463L287.524 281.438L286.959 289.323L268.931 291.259L267.406 283.463ZM266.509 283.553L269.874 300.756L254.431 301.921L253.031 284.897L266.509 283.553ZM292.756 299.036L270.78 300.693L269.281 293.024L288.646 290.945L289.337 281.25L294.182 280.766L292.433 288.042L292.756 299.036ZM266.733 237.131L270.654 254.711L250.725 256.78L249.289 239.282L266.733 237.131ZM271.561 254.612L267.621 237.024L296.91 233.44L298.705 251.817L271.561 254.612ZM291.724 179.975L247.539 176.92L251.748 152.585L254.834 152.818H292.065L295.053 153.767L290.737 169.394L291.724 179.975ZM289.032 102.624C288.987 107.247 290.001 122.515 304.663 127.712L303.048 137.675L293.931 135.319L279.529 106.405L289.032 102.624ZM276.954 107.399L291.634 136.725L291.167 148.373H262.13L254.332 116.404L276.954 107.399ZM252.905 118.357L260.218 148.338H255.113L234.42 146.814L233.962 119.137L252.905 118.357ZM233.002 119.173L233.451 146.743L199.9 144.261C200.043 139.781 200.016 129.844 199.9 120.517L233.002 119.173ZM164.724 98.5648L198.877 103.457C199.047 117.614 199.2 137.684 199.029 144.225L156.182 141.053L164.724 98.5648ZM250.814 152.549L244.533 188.846H234.456V151.303L250.814 152.549ZM215.558 179.599H233.505V188.846H213.566L215.558 179.599ZM245.17 190.208L246.965 179.617L291.876 182.717L294.389 208.647L247.028 213.199L245.17 190.208ZM294.595 210.439L296.569 230.77L249.011 236.629L247.216 214.982L294.595 210.439ZM250.868 259.486L298.867 254.496L299.324 259.164L294.335 279.87L252.887 284.046L250.868 259.486ZM254.798 318.165L256.835 337.376H243.097C243.34 331.041 243.573 324.706 243.743 319.948C244.039 311.41 244.039 311.41 243.474 311.132L243.043 311.974L242.146 312.019C242.146 312.763 241.76 324.473 241.249 336.99L201.273 317.771L199.855 290.237L252.151 285.004L254.798 318.165ZM196.239 290.64L195.96 325.988L168.969 327.269L167.964 292.638L196.239 290.64ZM169.013 328.989V328.183L196.876 326.866L197.172 290.578L198.877 290.407L200.321 318.425L241.195 337.985C241.132 339.723 241.06 341.47 240.997 343.209L169.579 347.689L169.013 328.989Z" fill="white"/>
<path d="M209.842 327.717L170.844 330.441V342.949L235.218 339.463L209.842 327.717Z" fill="#EBEBEB"/>
<path d="M290.181 185.943L251.174 183.479L248.76 190.163L250.079 210.081L292.433 205.063L290.181 185.943Z" fill="#EBEBEB"/>
<path d="M169.264 402.201L294.469 402.775C296.983 402.788 299.476 402.305 301.804 401.356C304.131 400.406 306.249 399.007 308.035 397.24C309.821 395.472 311.24 393.371 312.212 391.055C313.184 388.739 313.689 386.255 313.698 383.744L313.824 354.91H150.33L150.24 376.719V383.582C150.366 388.546 152.422 393.265 155.974 396.741C159.525 400.216 164.291 402.175 169.264 402.201Z" fill="#EBEBEB"/>
<path d="M195.234 98.7351L194.588 62.1066H175.537L170.01 95.0525L195.234 98.7351Z" fill="#EBEBEB"/>
<path d="M287.596 144.368L289.534 136.43L276.128 110.965L258.926 119.424L264.66 143.508L287.596 144.368Z" fill="#EBEBEB"/>
<path d="M170.844 255.947C171.05 257.103 170.844 288.087 170.844 288.087L195.969 286.51L193.089 244.156L170.844 255.947Z" fill="#EBEBEB"/>
<path d="M254.475 281.143L253.146 261.941L296.156 256.422V259.737L290.951 277.397L254.475 281.143Z" fill="#EBEBEB"/>
<path d="M222.664 121.897C222.664 122.931 222.357 123.943 221.781 124.804C221.205 125.664 220.387 126.335 219.429 126.731C218.472 127.127 217.418 127.231 216.402 127.029C215.385 126.827 214.451 126.328 213.718 125.597C212.986 124.865 212.486 123.932 212.284 122.917C212.082 121.902 212.186 120.85 212.582 119.894C212.979 118.938 213.651 118.121 214.513 117.546C215.374 116.971 216.388 116.664 217.424 116.664C218.814 116.664 220.147 117.215 221.13 118.197C222.112 119.178 222.664 120.509 222.664 121.897Z" fill="#034498"/>
<g opacity="0.6">
<path opacity="0.6" d="M222.656 121.673C222.701 122.707 222.438 123.731 221.9 124.616C221.362 125.501 220.573 126.207 219.633 126.644C218.693 127.081 217.645 127.23 216.62 127.072C215.595 126.914 214.641 126.456 213.877 125.756C213.113 125.056 212.574 124.145 212.329 123.14C212.083 122.134 212.142 121.078 212.498 120.105C212.854 119.133 213.49 118.288 214.327 117.677C215.164 117.066 216.164 116.716 217.2 116.673C218.587 116.615 219.941 117.108 220.964 118.046C221.986 118.983 222.595 120.288 222.656 121.673Z" fill="white"/>
</g>
<path d="M217.425 125.194C219.348 125.194 220.907 123.637 220.907 121.717C220.907 119.797 219.348 118.241 217.425 118.241C215.502 118.241 213.943 119.797 213.943 121.717C213.943 123.637 215.502 125.194 217.425 125.194Z" fill="#034498"/>
<path d="M298.391 330.799C298.384 331.239 298.247 331.668 297.997 332.031C297.748 332.394 297.396 332.675 296.987 332.84C296.578 333.005 296.13 333.046 295.698 332.957C295.266 332.869 294.869 332.656 294.558 332.344C294.247 332.032 294.035 331.635 293.948 331.203C293.861 330.772 293.904 330.324 294.071 329.916C294.237 329.509 294.521 329.159 294.885 328.911C295.25 328.663 295.679 328.528 296.12 328.523C296.42 328.519 296.718 328.576 296.996 328.689C297.273 328.802 297.525 328.97 297.737 329.182C297.949 329.394 298.116 329.647 298.228 329.924C298.34 330.202 298.396 330.5 298.391 330.799Z" fill="#034498"/>
<path d="M294.81 330.073L294.263 317.529L256.467 319.366C255.476 319.412 254.49 319.202 253.605 318.757L199.989 291.715C199.379 291.406 198.861 290.942 198.488 290.37C198.114 289.797 197.899 289.136 197.862 288.454L190.558 147.119C190.54 146.784 190.594 146.45 190.717 146.137C190.839 145.825 191.027 145.542 191.267 145.308C191.507 145.074 191.795 144.894 192.111 144.78C192.426 144.666 192.763 144.62 193.097 144.646L216.078 146.339V121.251H218.77V146.68C218.776 147.005 218.716 147.327 218.593 147.628C218.469 147.928 218.285 148.2 218.052 148.427C217.81 148.646 217.527 148.814 217.218 148.92C216.91 149.026 216.583 149.069 216.258 149.045L193.295 147.352L200.572 288.32C200.585 288.528 200.653 288.729 200.768 288.904C200.882 289.078 201.041 289.22 201.227 289.314L254.843 316.373C255.312 316.61 255.834 316.721 256.359 316.696L294.478 314.841C295.109 314.814 295.724 315.036 296.192 315.46C296.426 315.67 296.616 315.925 296.75 316.209C296.884 316.494 296.96 316.803 296.973 317.117L297.52 329.957L294.81 330.073Z" fill="#034498"/>
<path d="M194.956 215.278C198.702 215.278 201.74 212.245 201.74 208.504C201.74 204.763 198.702 201.73 194.956 201.73C191.209 201.73 188.172 204.763 188.172 208.504C188.172 212.245 191.209 215.278 194.956 215.278Z" fill="#034498"/>
<path d="M194.955 213.208C197.557 213.208 199.666 211.102 199.666 208.504C199.666 205.906 197.557 203.8 194.955 203.8C192.353 203.8 190.244 205.906 190.244 208.504C190.244 211.102 192.353 213.208 194.955 213.208Z" fill="#FAFAFA"/>
<path d="M194.956 213.548C193.956 213.55 192.978 213.256 192.146 212.703C191.314 212.149 190.665 211.362 190.282 210.441C189.898 209.519 189.797 208.504 189.991 207.525C190.184 206.546 190.665 205.647 191.371 204.94C192.077 204.234 192.977 203.752 193.958 203.557C194.938 203.362 195.954 203.461 196.878 203.843C197.801 204.224 198.591 204.871 199.146 205.7C199.702 206.53 199.999 207.506 199.999 208.504C199.996 209.84 199.464 211.12 198.519 212.065C197.574 213.01 196.293 213.544 194.956 213.548ZM194.956 204.131C194.089 204.13 193.242 204.385 192.52 204.864C191.799 205.343 191.236 206.026 190.903 206.824C190.571 207.623 190.483 208.503 190.651 209.351C190.819 210.2 191.235 210.98 191.847 211.593C192.459 212.205 193.239 212.622 194.089 212.792C194.939 212.961 195.82 212.875 196.62 212.544C197.421 212.214 198.105 211.653 198.587 210.934C199.068 210.215 199.326 209.369 199.326 208.504C199.323 207.347 198.862 206.237 198.044 205.418C197.225 204.599 196.115 204.136 194.956 204.131Z" fill="#034498"/>
<path d="M234.914 180.092H202.61C201.856 180.092 201.132 180.391 200.599 180.924C200.065 181.456 199.766 182.179 199.766 182.932V194.58C199.766 195.333 200.065 196.056 200.599 196.589C201.132 197.121 201.856 197.42 202.61 197.42H202.987V200.207L206.226 197.42H234.941C235.696 197.42 236.419 197.121 236.952 196.589C237.486 196.056 237.786 195.333 237.786 194.58V182.932C237.786 182.557 237.711 182.185 237.567 181.839C237.422 181.493 237.21 181.178 236.943 180.914C236.676 180.65 236.359 180.441 236.011 180.3C235.663 180.159 235.29 180.088 234.914 180.092Z" fill="#034498"/>
<g opacity="0.4">
<path opacity="0.4" d="M234.914 180.092H202.61C201.856 180.092 201.132 180.391 200.599 180.924C200.065 181.456 199.766 182.179 199.766 182.932V194.58C199.766 195.333 200.065 196.056 200.599 196.589C201.132 197.121 201.856 197.42 202.61 197.42H202.987V200.207L206.226 197.42H234.941C235.696 197.42 236.419 197.121 236.952 196.589C237.486 196.056 237.786 195.333 237.786 194.58V182.932C237.786 182.557 237.711 182.185 237.567 181.839C237.422 181.493 237.21 181.178 236.943 180.914C236.676 180.65 236.359 180.441 236.011 180.3C235.663 180.159 235.29 180.088 234.914 180.092Z" fill="white"/>
</g>
<path d="M207.033 188.586C207.018 188.201 207.119 187.82 207.323 187.493C207.527 187.165 207.824 186.906 208.176 186.748C208.528 186.591 208.919 186.541 209.3 186.607C209.68 186.673 210.032 186.85 210.311 187.117C210.589 187.384 210.782 187.727 210.864 188.104C210.945 188.481 210.913 188.873 210.77 189.231C210.627 189.589 210.38 189.896 210.061 190.113C209.742 190.33 209.366 190.447 208.98 190.45C208.728 190.462 208.476 190.422 208.239 190.334C208.003 190.246 207.787 190.11 207.605 189.936C207.422 189.762 207.278 189.552 207.179 189.32C207.081 189.088 207.031 188.838 207.033 188.586ZM210.389 188.586C210.39 188.305 210.308 188.03 210.153 187.796C209.998 187.562 209.777 187.379 209.518 187.271C209.258 187.162 208.972 187.134 208.696 187.188C208.421 187.242 208.167 187.377 207.968 187.576C207.769 187.774 207.634 188.027 207.58 188.303C207.525 188.578 207.554 188.864 207.663 189.123C207.771 189.382 207.954 189.603 208.189 189.758C208.423 189.913 208.699 189.994 208.98 189.993C209.166 189.999 209.352 189.967 209.526 189.898C209.7 189.83 209.858 189.726 209.99 189.594C210.122 189.463 210.225 189.305 210.294 189.131C210.363 188.958 210.395 188.772 210.389 188.586Z" fill="white"/>
<path d="M214.464 189.034C214.474 189.22 214.445 189.406 214.379 189.58C214.313 189.754 214.211 189.912 214.08 190.045C213.949 190.177 213.792 190.281 213.619 190.349C213.445 190.417 213.259 190.448 213.073 190.441C212.883 190.45 212.693 190.412 212.521 190.331C212.349 190.25 212.2 190.127 212.086 189.975V190.414H211.602V186.543H212.104V188.066C212.22 187.923 212.368 187.808 212.536 187.732C212.705 187.656 212.889 187.62 213.073 187.627C213.259 187.619 213.445 187.651 213.619 187.719C213.792 187.787 213.949 187.891 214.08 188.023C214.211 188.156 214.313 188.314 214.379 188.488C214.445 188.662 214.474 188.848 214.464 189.034ZM213.962 189.034C213.948 188.86 213.883 188.695 213.777 188.557C213.67 188.419 213.525 188.316 213.361 188.259C213.196 188.202 213.018 188.194 212.849 188.236C212.68 188.279 212.527 188.369 212.409 188.497C212.29 188.624 212.212 188.784 212.182 188.955C212.153 189.127 212.175 189.303 212.244 189.463C212.314 189.623 212.428 189.758 212.574 189.854C212.72 189.95 212.89 190.001 213.064 190.002C213.191 190.007 213.318 189.985 213.436 189.938C213.554 189.891 213.661 189.819 213.749 189.728C213.838 189.636 213.905 189.527 213.948 189.408C213.991 189.288 214.008 189.16 213.997 189.034H213.962Z" fill="white"/>
<path d="M214.238 191.283L214.4 190.898C214.517 190.991 214.663 191.038 214.813 191.032C215.073 191.032 215.225 190.862 215.225 190.548V187.654H215.719V190.539C215.73 190.66 215.714 190.781 215.673 190.895C215.632 191.008 215.566 191.112 215.481 191.197C215.395 191.283 215.291 191.348 215.178 191.389C215.064 191.431 214.942 191.446 214.822 191.435C214.616 191.446 214.412 191.393 214.238 191.283ZM215.136 186.803C215.136 186.76 215.144 186.717 215.161 186.677C215.178 186.638 215.202 186.602 215.233 186.571C215.264 186.541 215.301 186.518 215.341 186.502C215.381 186.486 215.424 186.479 215.468 186.48C215.511 186.478 215.554 186.484 215.595 186.499C215.635 186.513 215.673 186.536 215.705 186.565C215.736 186.594 215.762 186.63 215.78 186.669C215.798 186.708 215.808 186.751 215.809 186.794C215.81 186.839 215.802 186.883 215.785 186.924C215.768 186.966 215.743 187.003 215.711 187.034C215.679 187.066 215.641 187.09 215.599 187.105C215.557 187.121 215.512 187.128 215.468 187.125C215.423 187.128 215.379 187.121 215.338 187.105C215.296 187.09 215.258 187.065 215.227 187.034C215.196 187.003 215.171 186.965 215.156 186.924C215.14 186.882 215.133 186.838 215.136 186.794V186.803Z" fill="white"/>
<path d="M219.165 189.195H216.922C216.933 189.315 216.968 189.431 217.025 189.537C217.082 189.642 217.159 189.736 217.253 189.811C217.347 189.886 217.455 189.942 217.57 189.975C217.686 190.007 217.807 190.016 217.927 190.002C218.076 190.007 218.224 189.98 218.362 189.923C218.5 189.865 218.624 189.779 218.725 189.67L219.003 189.993C218.798 190.198 218.538 190.339 218.254 190.401C217.971 190.463 217.675 190.442 217.403 190.341C217.131 190.24 216.894 190.063 216.719 189.832C216.545 189.6 216.441 189.323 216.419 189.034C216.412 188.849 216.442 188.664 216.509 188.491C216.576 188.318 216.678 188.161 216.809 188.029C216.939 187.897 217.095 187.793 217.268 187.724C217.44 187.655 217.624 187.622 217.81 187.627C217.995 187.622 218.179 187.655 218.351 187.725C218.523 187.795 218.678 187.9 218.806 188.033C218.934 188.167 219.034 188.325 219.097 188.499C219.16 188.673 219.186 188.858 219.174 189.043C219.175 189.094 219.172 189.145 219.165 189.195ZM216.922 188.837H218.716C218.716 188.599 218.622 188.371 218.453 188.203C218.285 188.035 218.057 187.941 217.819 187.941C217.581 187.941 217.353 188.035 217.184 188.203C217.016 188.371 216.922 188.599 216.922 188.837Z" fill="white"/>
<path d="M219.614 189.034C219.61 188.843 219.645 188.654 219.718 188.478C219.791 188.302 219.899 188.143 220.037 188.011C220.174 187.879 220.337 187.776 220.516 187.71C220.695 187.644 220.886 187.616 221.076 187.627C221.299 187.613 221.521 187.659 221.718 187.762C221.916 187.865 222.082 188.02 222.198 188.21L221.821 188.46C221.739 188.336 221.627 188.234 221.495 188.163C221.364 188.093 221.217 188.057 221.067 188.057C220.825 188.081 220.6 188.193 220.437 188.373C220.273 188.552 220.183 188.787 220.183 189.029C220.183 189.272 220.273 189.506 220.437 189.686C220.6 189.866 220.825 189.978 221.067 190.002C221.216 190.003 221.362 189.968 221.494 189.899C221.625 189.831 221.738 189.73 221.821 189.607L222.198 189.849C222.082 190.04 221.917 190.196 221.719 190.301C221.522 190.405 221.299 190.453 221.076 190.441C220.886 190.45 220.696 190.421 220.518 190.355C220.339 190.288 220.177 190.186 220.039 190.054C219.902 189.922 219.794 189.764 219.721 189.588C219.647 189.413 219.611 189.224 219.614 189.034Z" fill="white"/>
<path d="M224.442 190.252C224.265 190.381 224.051 190.447 223.832 190.441C223.71 190.461 223.584 190.451 223.466 190.414C223.348 190.376 223.241 190.31 223.153 190.223C223.065 190.135 223 190.028 222.962 189.91C222.924 189.792 222.914 189.667 222.935 189.545V188.021H222.459V187.618H222.935V187.009H223.437V187.618H224.227V188.021H223.437V189.518C223.427 189.578 223.431 189.64 223.449 189.698C223.467 189.757 223.498 189.81 223.539 189.855C223.581 189.9 223.632 189.935 223.689 189.957C223.746 189.979 223.807 189.988 223.868 189.984C224.007 189.986 224.143 189.942 224.254 189.858L224.442 190.252Z" fill="white"/>
<path d="M224.953 186.794C224.954 186.75 224.964 186.707 224.982 186.668C225 186.628 225.025 186.592 225.057 186.562C225.088 186.532 225.126 186.509 225.166 186.493C225.207 186.478 225.251 186.47 225.294 186.471C225.337 186.469 225.38 186.475 225.421 186.49C225.462 186.504 225.499 186.527 225.531 186.556C225.563 186.585 225.588 186.621 225.606 186.66C225.624 186.699 225.634 186.742 225.635 186.785C225.635 186.875 225.599 186.962 225.535 187.026C225.471 187.09 225.385 187.125 225.294 187.125C225.204 187.125 225.117 187.09 225.053 187.026C224.989 186.962 224.953 186.875 224.953 186.785V186.794ZM225.043 187.69H225.545V190.45H225.043V187.69Z" fill="white"/>
<path d="M228.946 187.654L227.735 190.414H227.223L226.012 187.654H226.541L227.439 189.867L228.408 187.654H228.946Z" fill="white"/>
<path d="M231.827 189.195H229.584C229.595 189.315 229.63 189.431 229.687 189.537C229.744 189.642 229.821 189.736 229.915 189.811C230.009 189.886 230.117 189.942 230.233 189.975C230.348 190.007 230.469 190.016 230.589 190.002C230.738 190.007 230.886 189.98 231.024 189.923C231.162 189.865 231.286 189.779 231.387 189.67L231.657 189.993C231.521 190.144 231.353 190.263 231.165 190.34C230.977 190.418 230.774 190.452 230.571 190.441C230.378 190.454 230.185 190.428 230.004 190.363C229.822 190.298 229.656 190.197 229.516 190.064C229.376 189.932 229.265 189.772 229.19 189.595C229.115 189.417 229.078 189.226 229.081 189.034C229.074 188.849 229.104 188.664 229.171 188.491C229.239 188.318 229.34 188.161 229.471 188.029C229.601 187.897 229.757 187.793 229.93 187.724C230.102 187.655 230.286 187.622 230.472 187.627C230.657 187.622 230.842 187.655 231.013 187.725C231.185 187.795 231.34 187.9 231.468 188.033C231.597 188.167 231.696 188.325 231.759 188.499C231.822 188.673 231.849 188.858 231.836 189.043C231.837 189.094 231.834 189.145 231.827 189.195ZM229.584 188.837H231.378C231.378 188.599 231.284 188.371 231.116 188.203C230.947 188.035 230.719 187.941 230.481 187.941C230.243 187.941 230.015 188.035 229.846 188.203C229.678 188.371 229.584 188.599 229.584 188.837Z" fill="white"/>
<path d="M224.244 104.326C224.252 103.292 224.02 102.269 223.567 101.339C223.113 100.409 222.45 99.5966 221.629 98.9651C220.809 98.3337 219.853 97.9005 218.836 97.6996C217.82 97.4986 216.771 97.5353 215.771 97.8068C214.771 98.0782 213.848 98.5771 213.074 99.2643C212.299 99.9516 211.695 100.808 211.307 101.768C210.92 102.727 210.76 103.763 210.841 104.795C210.921 105.826 211.24 106.825 211.771 107.713C212.032 108.143 212.355 108.457 212.669 108.914L216.572 114.066C216.685 114.216 216.831 114.338 216.999 114.422C217.168 114.506 217.353 114.549 217.541 114.549C217.729 114.549 217.915 114.506 218.083 114.422C218.251 114.338 218.397 114.216 218.51 114.066L222.342 108.994C222.692 108.583 223.019 108.152 223.32 107.704C223.923 106.68 224.242 105.514 224.244 104.326ZM217.532 107.211C216.946 107.213 216.373 107.041 215.885 106.717C215.396 106.393 215.015 105.932 214.79 105.392C214.564 104.852 214.505 104.257 214.618 103.683C214.731 103.109 215.012 102.581 215.426 102.167C215.84 101.752 216.368 101.47 216.942 101.355C217.517 101.24 218.113 101.298 218.654 101.522C219.196 101.745 219.659 102.124 219.985 102.611C220.311 103.097 220.484 103.669 220.484 104.254C220.484 105.037 220.174 105.788 219.62 106.342C219.067 106.896 218.316 107.209 217.532 107.211Z" fill="#034498"/>
<path d="M180.759 368.53H179.512V368.073H182.527V368.53H181.262V371.719H180.741L180.759 368.53Z" fill="#263238"/>
<path d="M182.481 370.339C182.478 370.056 182.559 369.777 182.714 369.539C182.869 369.301 183.091 369.115 183.353 369.003C183.614 368.892 183.903 368.86 184.183 368.913C184.462 368.965 184.72 369.099 184.922 369.298C185.125 369.497 185.265 369.752 185.323 370.03C185.38 370.308 185.354 370.597 185.248 370.86C185.141 371.123 184.958 371.348 184.723 371.508C184.488 371.667 184.21 371.753 183.926 371.755C183.736 371.765 183.546 371.736 183.368 371.668C183.19 371.601 183.028 371.498 182.892 371.365C182.756 371.232 182.649 371.072 182.579 370.895C182.508 370.719 182.475 370.529 182.481 370.339ZM184.85 370.339C184.85 370.094 184.752 369.858 184.578 369.684C184.404 369.51 184.168 369.412 183.921 369.412C183.675 369.412 183.439 369.51 183.265 369.684C183.091 369.858 182.993 370.094 182.993 370.339C182.993 370.585 183.091 370.821 183.265 370.995C183.439 371.169 183.675 371.267 183.921 371.267C184.168 371.267 184.404 371.169 184.578 370.995C184.752 370.821 184.85 370.585 184.85 370.339Z" fill="#263238"/>
<path d="M187.606 371.531C187.436 371.668 187.222 371.738 187.005 371.728C186.883 371.746 186.758 371.736 186.641 371.697C186.524 371.658 186.417 371.593 186.33 371.506C186.243 371.419 186.177 371.312 186.138 371.195C186.1 371.079 186.089 370.954 186.107 370.832V369.318H185.641V368.906H186.107V368.306H186.646V368.906H187.435V369.318H186.646V370.814C186.636 370.875 186.64 370.936 186.658 370.995C186.675 371.053 186.706 371.107 186.748 371.152C186.789 371.197 186.84 371.232 186.897 371.254C186.954 371.276 187.015 371.285 187.076 371.28C187.219 371.278 187.357 371.231 187.471 371.146L187.606 371.531Z" fill="#263238"/>
<path d="M190.406 370.053V371.719H189.93V371.361C189.824 371.495 189.687 371.6 189.53 371.669C189.374 371.738 189.203 371.767 189.033 371.755C188.405 371.755 188.01 371.424 188.01 370.94C188.01 370.456 188.297 370.133 189.113 370.133H189.912V370.035C189.912 369.614 189.67 369.363 189.167 369.363C188.841 369.352 188.522 369.461 188.27 369.668L188.055 369.291C188.385 369.043 188.79 368.917 189.203 368.933C189.36 368.906 189.521 368.915 189.674 368.961C189.826 369.006 189.966 369.086 190.083 369.195C190.199 369.303 190.289 369.437 190.345 369.586C190.401 369.735 190.422 369.895 190.406 370.053ZM189.903 370.877V370.492H189.131C188.638 370.492 188.494 370.689 188.494 370.922C188.494 371.155 188.719 371.37 189.105 371.37C189.273 371.382 189.441 371.342 189.584 371.253C189.727 371.165 189.839 371.033 189.903 370.877Z" fill="#263238"/>
<path d="M191.33 367.858H191.833V371.719H191.33V367.858Z" fill="#263238"/>
<path d="M196.795 367.858V371.719H196.32V371.28C196.206 371.434 196.057 371.557 195.885 371.64C195.713 371.722 195.523 371.762 195.332 371.755C194.977 371.727 194.645 371.566 194.404 371.304C194.162 371.043 194.027 370.7 194.027 370.344C194.027 369.988 194.162 369.645 194.404 369.384C194.645 369.122 194.977 368.961 195.332 368.933C195.518 368.925 195.703 368.962 195.871 369.04C196.04 369.117 196.187 369.234 196.302 369.381V367.858H196.795ZM196.302 370.34C196.286 370.167 196.22 370.002 196.113 369.866C196.005 369.729 195.86 369.627 195.695 369.571C195.531 369.516 195.353 369.509 195.185 369.552C195.016 369.595 194.864 369.686 194.747 369.814C194.629 369.942 194.551 370.102 194.523 370.273C194.494 370.444 194.516 370.62 194.586 370.779C194.655 370.938 194.77 371.074 194.915 371.169C195.06 371.264 195.23 371.315 195.404 371.316C195.529 371.317 195.653 371.291 195.767 371.241C195.882 371.191 195.985 371.118 196.069 371.026C196.154 370.934 196.218 370.825 196.258 370.707C196.298 370.589 196.313 370.464 196.302 370.34Z" fill="#263238"/>
<path d="M197.656 368.108C197.656 368.064 197.665 368.02 197.682 367.979C197.7 367.939 197.725 367.902 197.757 367.871C197.788 367.84 197.826 367.816 197.867 367.799C197.909 367.783 197.953 367.776 197.997 367.777C198.045 367.769 198.093 367.771 198.14 367.784C198.186 367.797 198.23 367.82 198.266 367.851C198.303 367.882 198.333 367.921 198.353 367.965C198.373 368.008 198.384 368.056 198.384 368.104C198.384 368.152 198.373 368.2 198.353 368.243C198.333 368.287 198.303 368.326 198.266 368.357C198.23 368.388 198.186 368.411 198.14 368.423C198.093 368.436 198.045 368.439 197.997 368.431C197.954 368.432 197.91 368.425 197.869 368.409C197.829 368.394 197.791 368.37 197.76 368.34C197.728 368.31 197.703 368.274 197.685 368.235C197.667 368.195 197.657 368.152 197.656 368.108ZM197.746 368.96H198.248V371.719H197.746V368.96Z" fill="#263238"/>
<path d="M198.85 371.433L199.065 371.029C199.352 371.219 199.69 371.318 200.034 371.316C200.501 371.316 200.689 371.182 200.689 370.949C200.689 370.322 198.894 370.859 198.894 369.766C198.894 369.264 199.343 368.933 200.052 368.933C200.403 368.929 200.749 369.016 201.057 369.184L200.842 369.578C200.602 369.43 200.324 369.356 200.043 369.363C199.603 369.363 199.397 369.524 199.397 369.739C199.397 370.393 201.192 369.865 201.192 370.931C201.192 371.433 200.734 371.755 199.998 371.755C199.592 371.763 199.192 371.651 198.85 371.433Z" fill="#263238"/>
<path d="M203.372 371.531C203.2 371.67 202.982 371.74 202.762 371.728C202.64 371.746 202.515 371.736 202.398 371.697C202.281 371.658 202.174 371.593 202.087 371.506C202 371.419 201.934 371.312 201.895 371.195C201.857 371.079 201.846 370.954 201.864 370.832V369.318H201.389V368.906H201.9V368.306H202.403V368.906H203.192V369.318H202.403V370.814C202.393 370.875 202.397 370.936 202.415 370.995C202.432 371.053 202.463 371.107 202.505 371.152C202.546 371.197 202.597 371.232 202.654 371.254C202.711 371.276 202.772 371.285 202.833 371.28C202.973 371.28 203.109 371.232 203.219 371.146L203.372 371.531Z" fill="#263238"/>
<path d="M206.171 370.053V371.719H205.696V371.361C205.589 371.494 205.452 371.599 205.295 371.668C205.139 371.737 204.969 371.767 204.798 371.755C204.179 371.755 203.775 371.424 203.775 370.94C203.775 370.456 204.063 370.133 204.888 370.133H205.687V370.035C205.687 369.614 205.435 369.363 204.942 369.363C204.616 369.356 204.299 369.464 204.045 369.667L203.838 369.291C204.168 369.043 204.574 368.917 204.987 368.933C205.142 368.909 205.301 368.921 205.452 368.967C205.602 369.014 205.74 369.095 205.854 369.203C205.968 369.311 206.056 369.444 206.111 369.591C206.166 369.738 206.187 369.896 206.171 370.053ZM205.669 370.877V370.492H204.897C204.395 370.492 204.26 370.689 204.26 370.922C204.26 371.155 204.484 371.37 204.87 371.37C205.038 371.382 205.206 371.342 205.35 371.253C205.493 371.164 205.605 371.033 205.669 370.877Z" fill="#263238"/>
<path d="M209.716 370.133V371.719H209.222V370.187C209.222 369.65 208.944 369.381 208.468 369.381C208.348 369.37 208.226 369.385 208.112 369.426C207.998 369.468 207.895 369.533 207.809 369.619C207.724 369.704 207.658 369.808 207.617 369.921C207.575 370.035 207.56 370.156 207.571 370.277V371.692H207.068V368.933H207.544V369.354C207.663 369.204 207.817 369.085 207.992 369.007C208.167 368.929 208.358 368.894 208.549 368.906C208.712 368.889 208.877 368.909 209.03 368.966C209.184 369.022 209.323 369.114 209.435 369.232C209.548 369.351 209.632 369.494 209.681 369.65C209.729 369.806 209.741 369.972 209.716 370.133Z" fill="#263238"/>
<path d="M210.407 370.339C210.403 370.149 210.438 369.96 210.511 369.784C210.584 369.608 210.692 369.448 210.829 369.316C210.967 369.184 211.13 369.082 211.309 369.016C211.488 368.95 211.679 368.922 211.869 368.933C212.094 368.92 212.317 368.969 212.516 369.073C212.715 369.177 212.882 369.333 213 369.524L212.614 369.766C212.531 369.643 212.418 369.543 212.287 369.474C212.155 369.405 212.009 369.37 211.86 369.372C211.618 369.395 211.393 369.507 211.23 369.687C211.066 369.867 210.976 370.101 210.976 370.344C210.976 370.587 211.066 370.821 211.23 371.001C211.393 371.18 211.618 371.293 211.86 371.316C212.009 371.318 212.155 371.283 212.287 371.214C212.418 371.145 212.531 371.045 212.614 370.922L213 371.155C212.883 371.347 212.716 371.504 212.517 371.61C212.318 371.715 212.094 371.765 211.869 371.755C211.678 371.765 211.487 371.736 211.308 371.668C211.13 371.601 210.966 371.498 210.829 371.365C210.692 371.233 210.583 371.073 210.511 370.896C210.438 370.72 210.403 370.53 210.407 370.339Z" fill="#263238"/>
<path d="M216.087 370.51H213.843C213.855 370.629 213.89 370.745 213.947 370.851C214.003 370.957 214.081 371.05 214.175 371.126C214.269 371.201 214.377 371.256 214.492 371.289C214.608 371.322 214.729 371.331 214.848 371.316C214.998 371.321 215.146 371.294 215.284 371.237C215.422 371.18 215.546 371.094 215.647 370.985L215.925 371.307C215.786 371.456 215.616 371.573 215.427 371.651C215.238 371.728 215.035 371.764 214.831 371.755C214.637 371.769 214.444 371.742 214.261 371.677C214.079 371.612 213.913 371.509 213.773 371.376C213.632 371.243 213.522 371.082 213.447 370.903C213.373 370.725 213.337 370.533 213.341 370.34C213.333 370.154 213.364 369.97 213.431 369.797C213.498 369.624 213.6 369.467 213.731 369.335C213.861 369.203 214.017 369.099 214.189 369.03C214.362 368.961 214.546 368.928 214.732 368.933C214.918 368.927 215.103 368.961 215.275 369.031C215.447 369.102 215.603 369.208 215.731 369.342C215.86 369.476 215.959 369.636 216.022 369.811C216.084 369.986 216.11 370.172 216.096 370.357C216.097 370.408 216.094 370.459 216.087 370.51ZM213.843 370.151H215.638C215.638 369.914 215.544 369.686 215.375 369.518C215.207 369.35 214.979 369.255 214.741 369.255C214.503 369.255 214.275 369.35 214.106 369.518C213.938 369.686 213.843 369.914 213.843 370.151Z" fill="#263238"/>
<path d="M184.043 375.814V384.505H182.024V377.427H180.283V375.814H184.043Z" fill="#263238"/>
<path d="M187.91 383.394C187.891 383.826 187.778 384.248 187.578 384.631L186.86 386.423H185.631L186.178 384.452C185.97 384.366 185.794 384.219 185.673 384.03C185.553 383.84 185.494 383.618 185.505 383.394C185.505 383.076 185.632 382.77 185.857 382.545C186.083 382.32 186.389 382.194 186.708 382.194C187.027 382.194 187.332 382.32 187.558 382.545C187.783 382.77 187.91 383.076 187.91 383.394Z" fill="#263238"/>
<path d="M192.029 375.814V384.505H189.965V377.427H188.225V375.814H192.029Z" fill="#263238"/>
<path d="M193.502 380.16C193.502 377.292 195.09 375.68 197.235 375.68C199.38 375.68 200.968 377.31 200.968 380.16C200.968 383.009 199.388 384.64 197.235 384.64C195.081 384.64 193.502 383.027 193.502 380.16ZM198.94 380.16C198.94 378.188 198.24 377.364 197.235 377.364C196.23 377.364 195.539 378.188 195.539 380.16C195.539 382.131 196.239 382.955 197.235 382.955C198.231 382.955 198.94 382.14 198.94 380.16Z" fill="#263238"/>
<path d="M201.945 380.16C201.945 377.292 203.543 375.68 205.687 375.68C207.832 375.68 209.42 377.31 209.42 380.16C209.42 383.009 207.841 384.64 205.687 384.64C203.534 384.64 201.945 383.027 201.945 380.16ZM207.392 380.16C207.392 378.188 206.692 377.364 205.687 377.364C204.682 377.364 203.991 378.188 203.991 380.16C203.991 382.131 204.691 382.955 205.687 382.955C206.683 382.955 207.392 382.14 207.392 380.16Z" fill="#263238"/>
<path d="M225.644 380.679V384.505H223.706V380.984C223.706 379.9 223.221 379.398 222.432 379.398C221.642 379.398 220.951 379.962 220.951 381.19V384.541H219.013V381.02C219.013 379.936 218.555 379.434 217.748 379.434C216.94 379.434 216.276 379.998 216.276 381.226V384.577H214.338V377.803H216.186V378.574C216.45 378.279 216.776 378.045 217.141 377.89C217.505 377.736 217.899 377.663 218.295 377.678C218.725 377.655 219.153 377.744 219.538 377.935C219.924 378.127 220.253 378.415 220.494 378.771C220.786 378.418 221.156 378.135 221.574 377.946C221.992 377.757 222.448 377.665 222.907 377.678C224.505 377.722 225.644 378.645 225.644 380.679Z" fill="#263238"/>
<path d="M174.931 376.828C175.881 372.796 173.377 368.759 169.339 367.811C165.301 366.863 161.258 369.363 160.309 373.395C159.359 377.427 161.863 381.464 165.901 382.412C169.939 383.36 173.982 380.86 174.931 376.828Z" fill="#034498"/>
<path d="M164.589 376.495C165.228 376.403 165.873 376.364 166.518 376.378C167.748 376.378 169.507 376.316 171.606 376.298L171.454 376.629C170.853 375.948 170.215 375.196 169.533 374.416L169.417 374.282L169.533 374.129L171.427 371.773L171.606 372.149H170.709H164.544L164.76 371.943C164.76 374.219 164.706 376.137 164.67 377.481C164.685 378.191 164.643 378.901 164.544 379.604C164.451 378.9 164.409 378.19 164.419 377.481C164.419 376.137 164.356 374.219 164.338 371.943V371.737H164.544H170.709H172.046L171.741 372.113L169.83 374.47V374.183L171.714 376.423L172.001 376.755H171.561C169.462 376.755 167.703 376.701 166.474 376.674C165.841 376.669 165.211 376.609 164.589 376.495Z" fill="#FAFAFA"/>
<path d="M289.139 362.329H266.436C265.282 362.329 264.175 362.787 263.359 363.602C262.543 364.417 262.084 365.522 262.084 366.675V384.523C262.086 385.674 262.546 386.777 263.362 387.59C264.178 388.403 265.283 388.86 266.436 388.86H267.01V393.116L271.955 388.86H289.139C290.291 388.86 291.397 388.403 292.213 387.59C293.029 386.777 293.488 385.674 293.491 384.523V366.675C293.491 365.522 293.032 364.417 292.216 363.602C291.4 362.787 290.293 362.329 289.139 362.329Z" fill="#034498"/>
<path d="M268.6 370.519V379.676C268.6 379.771 268.637 379.862 268.705 379.929C268.772 379.996 268.863 380.034 268.959 380.034H288.179C288.227 380.033 288.273 380.023 288.316 380.004C288.359 379.984 288.398 379.957 288.431 379.923C288.463 379.889 288.489 379.849 288.505 379.805C288.522 379.761 288.531 379.714 288.529 379.667L288.484 376.316C288.486 376.242 288.464 376.17 288.422 376.11L285.658 372.427C285.626 372.383 285.585 372.347 285.536 372.322C285.488 372.297 285.434 372.284 285.38 372.284H282.203C282.109 372.284 282.02 372.247 281.952 372.182C281.885 372.117 281.847 372.028 281.844 371.934V370.546C281.845 370.499 281.837 370.452 281.82 370.409C281.803 370.366 281.778 370.326 281.745 370.293C281.712 370.259 281.673 370.233 281.63 370.215C281.587 370.196 281.541 370.187 281.494 370.187H268.932C268.846 370.193 268.765 370.23 268.704 370.291C268.643 370.352 268.606 370.433 268.6 370.519Z" fill="#FAFAFA"/>
<path d="M282.74 373.063V376.011C282.74 376.066 282.762 376.118 282.801 376.157C282.84 376.195 282.892 376.217 282.947 376.217L287.191 376.146C287.228 376.144 287.264 376.133 287.295 376.113C287.326 376.093 287.351 376.065 287.367 376.032C287.384 375.999 287.391 375.962 287.389 375.925C287.386 375.889 287.374 375.853 287.353 375.823L285.352 372.884C285.334 372.855 285.309 372.832 285.279 372.816C285.249 372.8 285.215 372.793 285.181 372.794L282.92 372.857C282.869 372.862 282.822 372.886 282.789 372.924C282.755 372.963 282.738 373.012 282.74 373.063Z" fill="#034498"/>
<path d="M288.914 380.312H268.213V380.948H288.914V380.312Z" fill="#FAFAFA"/>
<path d="M275.059 380.554C275.061 380.96 274.942 381.358 274.716 381.697C274.491 382.036 274.17 382.3 273.795 382.457C273.419 382.613 273.005 382.654 272.605 382.576C272.206 382.497 271.839 382.301 271.551 382.014C271.263 381.726 271.067 381.36 270.988 380.961C270.909 380.562 270.951 380.149 271.107 379.773C271.264 379.398 271.529 379.078 271.868 378.853C272.207 378.628 272.606 378.509 273.013 378.511C273.556 378.511 274.076 378.726 274.46 379.109C274.843 379.492 275.059 380.012 275.059 380.554Z" fill="#034498"/>
<path d="M274.216 380.554C274.218 380.794 274.148 381.029 274.015 381.229C273.883 381.429 273.694 381.586 273.472 381.679C273.25 381.771 273.006 381.796 272.77 381.75C272.534 381.703 272.318 381.588 272.148 381.418C271.978 381.248 271.862 381.032 271.816 380.797C271.769 380.561 271.794 380.317 271.887 380.096C271.98 379.874 272.136 379.686 272.337 379.553C272.538 379.421 272.773 379.351 273.013 379.353C273.332 379.353 273.638 379.48 273.864 379.705C274.089 379.93 274.216 380.235 274.216 380.554Z" fill="#FAFAFA"/>
<path d="M281.835 380.034C281.781 380.034 281.736 377.821 281.736 375.097C281.736 372.373 281.736 370.16 281.835 370.16C281.934 370.16 281.925 372.373 281.925 375.097C281.925 377.821 281.88 380.034 281.835 380.034Z" fill="#034498"/>
<path d="M286.25 380.554C286.25 380.958 286.13 381.353 285.905 381.689C285.68 382.025 285.361 382.287 284.987 382.441C284.613 382.596 284.202 382.636 283.805 382.557C283.408 382.479 283.044 382.284 282.757 381.998C282.471 381.713 282.276 381.349 282.198 380.952C282.119 380.556 282.159 380.145 282.314 379.772C282.469 379.399 282.731 379.08 283.067 378.855C283.404 378.631 283.799 378.511 284.204 378.511C284.747 378.511 285.267 378.726 285.651 379.109C286.035 379.492 286.25 380.012 286.25 380.554Z" fill="#034498"/>
<path d="M285.352 380.554C285.354 380.793 285.285 381.028 285.153 381.228C285.021 381.428 284.832 381.585 284.611 381.678C284.39 381.771 284.146 381.796 283.91 381.75C283.675 381.705 283.458 381.59 283.288 381.421C283.117 381.253 283.001 381.037 282.954 380.802C282.906 380.567 282.93 380.324 283.021 380.102C283.112 379.88 283.268 379.691 283.467 379.558C283.667 379.424 283.901 379.353 284.141 379.353C284.461 379.353 284.768 379.479 284.995 379.704C285.221 379.929 285.35 380.235 285.352 380.554Z" fill="#FAFAFA"/>
<path d="M284.177 376.782C284.177 376.835 283.881 376.871 283.522 376.871C283.163 376.871 282.867 376.871 282.867 376.782C282.867 376.692 283.163 376.683 283.522 376.683C283.881 376.683 284.177 376.728 284.177 376.782Z" fill="#034498"/>
<path d="M498.326 226.496C498.326 226.496 512.8 228.933 513.966 229.246C515.133 229.56 519.718 231.728 519.952 233.126C520.073 234.961 520.073 236.802 519.952 238.636C519.952 238.636 519.117 239.308 518.606 237.964C518.262 236.658 518.114 235.309 518.166 233.959L515.6 232.974L516.999 235.456L517.233 241.271C517.233 241.271 515.438 241.109 515.088 239.721C514.868 238.753 514.754 237.765 514.747 236.773L512.881 235.196L514.28 237.086L514.747 241.271C514.747 241.271 513.383 241.719 512.952 240.787C512.637 239.579 512.48 238.335 512.486 237.086L507.209 235.241L503.719 237.185L497.195 233.547L498.326 226.496Z" fill="#FFBE9D"/>
<path d="M447.644 190.772C447.716 191.059 465.088 214.964 465.088 214.964L499.994 225.806L498.406 238.896L455.63 230.295L440.447 212.894L447.644 190.772Z" fill="#034498"/>
<g opacity="0.2">
<path opacity="0.2" d="M447.644 190.772C447.716 191.059 465.088 214.964 465.088 214.964L499.994 225.806L498.406 238.896L455.63 230.295L440.447 212.894L447.644 190.772Z" fill="black"/>
</g>
<path d="M386.84 223.646H315.52C314.009 223.646 312.783 224.87 312.783 226.379V234.793C312.783 236.302 314.009 237.525 315.52 237.525H386.84C388.352 237.525 389.577 236.302 389.577 234.793V226.379C389.577 224.87 388.352 223.646 386.84 223.646Z" fill="#F5F5F5"/>
<path d="M386.849 237.525C386.849 237.525 387.001 237.525 387.298 237.463C387.868 237.358 388.389 237.072 388.784 236.647C389.178 236.223 389.425 235.682 389.487 235.106C389.487 234.264 389.487 233.26 389.487 232.149C389.487 231.038 389.487 229.793 389.487 228.44C389.487 227.759 389.487 227.051 389.487 226.316C389.475 225.953 389.39 225.595 389.235 225.266C389.081 224.936 388.861 224.641 388.59 224.399C388.295 224.15 387.949 223.97 387.576 223.87C387.178 223.784 386.77 223.757 386.364 223.79H383.744H378.046L315.583 223.861C315.233 223.861 314.888 223.933 314.568 224.074C314.248 224.214 313.961 224.419 313.725 224.677C313.492 224.937 313.315 225.242 313.204 225.574C313.092 225.905 313.05 226.255 313.079 226.603C313.079 228.108 313.079 229.605 313.079 231.083V234.443C313.062 234.786 313.092 235.13 313.169 235.465C313.303 235.949 313.578 236.383 313.96 236.71C314.342 237.037 314.814 237.243 315.313 237.301C315.627 237.301 316.013 237.301 316.372 237.301H332.955L361.033 237.355L379.966 237.427L385.117 237.472H386.454H386.912H386.454H385.117L379.966 237.516L361.033 237.588L332.955 237.642H316.309C315.942 237.642 315.601 237.642 315.197 237.642C314.806 237.595 314.428 237.473 314.084 237.284C313.741 237.093 313.439 236.837 313.196 236.529C312.952 236.222 312.772 235.869 312.666 235.492C312.57 235.117 312.533 234.73 312.559 234.345V231.02C312.559 229.542 312.559 228.046 312.559 226.54C312.535 226.134 312.591 225.727 312.725 225.343C312.859 224.958 313.068 224.604 313.339 224.3C313.617 223.994 313.956 223.749 314.335 223.582C314.714 223.416 315.124 223.331 315.538 223.333L378.001 223.404H386.319C386.75 223.387 387.181 223.423 387.603 223.512C388.013 223.623 388.394 223.825 388.715 224.103C389.019 224.366 389.264 224.689 389.436 225.051C389.607 225.414 389.701 225.808 389.711 226.209C389.711 226.944 389.711 227.66 389.711 228.341C389.711 229.694 389.711 230.931 389.711 232.051C389.711 233.171 389.711 234.147 389.666 235.026C389.567 235.769 389.177 236.442 388.581 236.898C388.218 237.17 387.792 237.346 387.342 237.409C387.185 237.474 387.019 237.513 386.849 237.525Z" fill="#263238"/>
<path d="M580.497 414.874C600.738 413.904 616.358 396.732 615.386 376.521C614.414 356.31 597.217 340.713 576.976 341.684C556.735 342.655 541.114 359.826 542.087 380.037C543.059 400.248 560.256 415.845 580.497 414.874Z" fill="#263238"/>
<path d="M542.062 377.66C542.062 377.66 542.062 377.723 542.062 377.758C541.98 387.437 545.738 396.754 552.513 403.675C559.288 410.597 568.531 414.56 578.223 414.7C587.915 414.839 597.269 411.144 604.241 404.421C611.214 397.697 615.239 388.492 615.437 378.816C615.437 378.816 615.437 378.753 615.437 378.717L542.062 377.66Z" fill="#263238"/>
<path d="M552.981 377.911C552.907 382.998 554.346 387.993 557.115 392.264C559.884 396.535 563.859 399.89 568.538 401.905C573.217 403.92 578.389 404.505 583.401 403.584C588.412 402.664 593.038 400.281 596.692 396.735C600.347 393.19 602.867 388.642 603.933 383.667C604.999 378.691 604.564 373.512 602.682 368.784C600.8 364.056 597.556 359.991 593.361 357.104C589.165 354.216 584.207 352.636 579.112 352.563C572.28 352.465 565.69 355.08 560.789 359.834C555.889 364.587 553.08 371.09 552.981 377.911Z" fill="#FAFAFA"/>
<path d="M579.113 352.563C572.281 352.465 565.691 355.08 560.791 359.834C555.89 364.587 553.082 371.09 552.982 377.911L604.498 378.654C604.597 371.833 601.977 365.252 597.217 360.359C592.456 355.466 585.944 352.662 579.113 352.563Z" fill="#E0E0E0"/>
<path d="M563.049 378.054C563.003 381.153 563.878 384.197 565.565 386.799C567.251 389.401 569.673 391.446 572.523 392.674C575.373 393.902 578.524 394.259 581.578 393.698C584.631 393.138 587.449 391.687 589.676 389.527C591.903 387.367 593.438 384.597 594.088 381.566C594.738 378.535 594.473 375.379 593.327 372.499C592.18 369.618 590.204 367.142 587.648 365.383C585.092 363.623 582.071 362.661 578.967 362.616C574.806 362.556 570.792 364.149 567.807 367.044C564.822 369.939 563.11 373.899 563.049 378.054Z" fill="#263238"/>
<path d="M561.326 324.563C561.326 324.563 598.888 313.219 614.421 353.97L535.814 378.287L561.326 324.563Z" fill="#034498"/>
<path d="M354.118 414.878C374.359 413.907 389.979 396.736 389.007 376.525C388.035 356.314 370.838 340.716 350.597 341.687C330.356 342.658 314.735 359.829 315.708 380.04C316.68 400.251 333.877 415.849 354.118 414.878Z" fill="#263238"/>
<path d="M315.673 377.66C315.673 377.66 315.673 377.723 315.673 377.758C315.592 387.437 319.349 396.754 326.124 403.675C332.9 410.597 342.142 414.56 351.834 414.7C361.526 414.839 370.88 411.144 377.852 404.421C384.825 397.697 388.85 388.492 389.048 378.816V378.699L315.673 377.66Z" fill="#263238"/>
<path d="M326.63 377.911C326.556 382.998 327.994 387.993 330.763 392.264C333.532 396.535 337.508 399.89 342.187 401.905C346.866 403.92 352.038 404.505 357.049 403.584C362.061 402.664 366.686 400.281 370.341 396.735C373.996 393.19 376.515 388.642 377.582 383.667C378.648 378.691 378.212 373.512 376.33 368.784C374.449 364.056 371.205 359.991 367.009 357.104C362.814 354.216 357.855 352.636 352.76 352.563C345.929 352.465 339.338 355.08 334.438 359.834C329.538 364.587 326.729 371.09 326.63 377.911Z" fill="#FAFAFA"/>
<path d="M352.723 352.563C345.898 352.474 339.317 355.094 334.424 359.846C329.532 364.599 326.728 371.096 326.629 377.911L378.145 378.654C378.193 375.274 377.574 371.917 376.323 368.776C375.071 365.634 373.212 362.77 370.851 360.347C368.49 357.924 365.673 355.989 362.563 354.653C359.453 353.318 356.109 352.607 352.723 352.563Z" fill="#E0E0E0"/>
<path d="M336.662 378.054C336.616 381.153 337.492 384.197 339.178 386.799C340.865 389.401 343.286 391.446 346.136 392.674C348.987 393.902 352.138 394.259 355.191 393.698C358.244 393.138 361.062 391.687 363.289 389.527C365.516 387.367 367.051 384.597 367.701 381.566C368.351 378.535 368.086 375.379 366.94 372.499C365.794 369.618 363.817 367.142 361.262 365.383C358.706 363.623 355.685 362.661 352.581 362.616C348.42 362.556 344.405 364.149 341.42 367.044C338.435 369.939 336.723 373.899 336.662 378.054Z" fill="#263238"/>
<path d="M404.546 363.575C404.339 363.682 385.235 360.627 385.235 360.627C384.202 361.973 382.887 363.078 381.382 363.864C379.878 364.65 378.219 365.099 376.522 365.179C368.267 365.573 360.2 365.94 353.191 366.254C350.06 366.393 347.112 367.767 344.993 370.072C342.874 372.378 341.756 375.429 341.885 378.556C342.011 381.524 343.25 384.336 345.356 386.434C347.462 388.532 350.282 389.763 353.254 389.881L393.93 391.485C400.616 391.745 409.499 387.695 413.672 382.471L404.546 363.575Z" fill="#455A64"/>
<path d="M304.717 347.339C304.717 347.339 302.976 311.634 336.581 304.197V299.618H454.293V310.603C454.293 310.603 437.019 331.382 442.628 348.63C448.236 365.878 450.031 367.643 450.031 367.643H517.026C522.312 360.224 525.259 351.397 525.487 342.295C525.846 327.152 519.547 301.267 514.836 284.718C510.583 269.62 507.891 257.04 507.891 257.04L527.991 250.347C527.991 250.347 565.185 298.955 566.702 301.643C568.218 304.331 573.387 310.747 572.176 324.706C570.964 338.666 537.503 381.728 528.727 386.584C519.951 391.44 512.018 391.745 504.113 392.955C497.257 394.012 446.54 393.313 433.268 393.107C428.657 393.078 424.135 391.826 420.167 389.478C416.201 387.077 413.222 383.099 409.929 376.576L402.903 362.921L304.717 347.339Z" fill="#034498"/>
<path d="M313.726 344.884L298.902 368.073C298.462 368.715 298.243 369.484 298.279 370.261C298.315 371.039 298.604 371.784 299.102 372.383C299.6 372.982 300.279 373.404 301.038 373.583C301.797 373.762 302.594 373.69 303.308 373.377C305.152 372.554 306.838 371.413 308.288 370.008C315.063 363.566 327.132 346.596 327.132 346.596L313.726 344.884Z" fill="#455A64"/>
<path d="M420.05 349.06C420.05 349.06 420.05 348.943 420.139 348.719L420.436 347.742C420.792 346.489 421.053 345.21 421.216 343.916C421.713 339.13 420.92 334.298 418.919 329.921C417.573 326.9 415.726 324.128 413.454 321.723C410.846 318.975 407.817 316.659 404.481 314.859C400.784 312.866 396.828 311.394 392.726 310.487C388.303 309.534 383.79 309.068 379.266 309.098C374.762 309.131 370.265 309.463 365.806 310.092C361.463 310.675 357.299 311.392 353.369 312.288C346.391 313.767 339.666 316.251 333.403 319.662C329.198 321.992 325.355 324.923 321.998 328.362C320.814 329.58 319.961 330.593 319.396 331.283L318.759 332.08C318.691 332.175 318.612 332.262 318.525 332.34C319.515 330.877 320.632 329.504 321.863 328.236C325.192 324.732 329.027 321.745 333.242 319.375C339.515 315.903 346.267 313.373 353.279 311.867C357.209 310.971 361.355 310.227 365.743 309.636C370.238 309 374.771 308.665 379.311 308.632C383.859 308.602 388.398 309.074 392.843 310.039C396.985 310.978 400.977 312.485 404.705 314.519C408.088 316.344 411.157 318.697 413.795 321.49C416.083 323.936 417.937 326.754 419.278 329.822C421.271 334.258 422.021 339.151 421.449 343.979C421.261 345.278 420.961 346.558 420.552 347.805C420.409 348.217 420.301 348.531 420.211 348.773C420.166 348.873 420.112 348.969 420.05 349.06Z" fill="#263238"/>
<path d="M413.275 341.067C413.221 341.067 413.463 340.503 413.714 339.481C414.051 338.011 414.096 336.489 413.849 335.001C413.5 332.814 412.758 330.707 411.66 328.783C411.038 327.631 410.311 326.54 409.488 325.522C408.627 324.414 407.649 323.402 406.572 322.502C404.472 320.776 402.109 319.396 399.572 318.416C397.497 317.603 395.344 317.003 393.148 316.624C391.662 316.374 390.164 316.203 388.661 316.114C388.108 316.106 387.557 316.064 387.01 315.988C387.153 315.967 387.298 315.967 387.44 315.988C387.719 315.988 388.131 315.988 388.67 315.988C390.172 316.01 391.671 316.133 393.157 316.356C395.389 316.675 397.579 317.237 399.689 318.031C402.291 319.009 404.716 320.404 406.868 322.162C407.966 323.085 408.965 324.121 409.847 325.253C410.672 326.3 411.402 327.418 412.027 328.595C413.138 330.567 413.863 332.732 414.163 334.974C414.386 336.489 414.291 338.032 413.885 339.508C413.779 339.906 413.634 340.293 413.454 340.664C413.414 340.806 413.353 340.942 413.275 341.067Z" fill="#F5F5F5"/>
<g opacity="0.4">
<path opacity="0.4" d="M390.223 309.761C396.558 310.916 402.59 313.356 407.945 316.929C413.329 320.499 417.476 325.644 419.817 331.659C422.168 337.698 421.818 345.699 419.341 350.699L427.659 351.389C430.459 342.062 427.417 330.62 420.687 323.317C416.836 319.059 412.138 315.651 406.892 313.311C401.646 310.97 395.968 309.749 390.223 309.725" fill="black"/>
</g>
<path d="M387.567 236.827H314.803C310.551 236.827 307.104 240.268 307.104 244.514V291.957C307.104 296.203 310.551 299.645 314.803 299.645H387.567C391.82 299.645 395.267 296.203 395.267 291.957V244.514C395.267 240.268 391.82 236.827 387.567 236.827Z" fill="#455A64"/>
<path d="M395.266 250.84C395.266 250.974 375.444 251.073 351.001 251.073C326.558 251.073 306.727 250.974 306.727 250.84C306.727 250.706 326.54 250.607 351.001 250.607C375.462 250.607 395.266 250.715 395.266 250.84Z" fill="#263238"/>
<path d="M454.239 303.803C454.239 303.928 427.777 304.035 395.15 304.035C362.523 304.035 336.061 303.928 336.061 303.803C336.061 303.677 362.514 303.57 395.15 303.57C427.786 303.57 454.239 303.677 454.239 303.803Z" fill="#263238"/>
<path d="M454.293 299.645C455.493 298.128 456.233 296.3 456.429 294.377C456.608 291.429 455.262 287.737 452.077 287.737H411.428C408.265 287.737 405.231 288.992 402.995 291.225C400.758 293.458 399.502 296.487 399.502 299.645H454.293Z" fill="#455A64"/>
<path d="M507.89 257.04L500.819 242.319C499.875 240.298 499.72 237.998 500.384 235.869C501.048 233.74 502.483 231.934 504.409 230.805L525.55 218.217C526.653 217.554 527.915 217.204 529.202 217.204H533.769L535.564 246.96L528.529 249.675L533.016 256.915L507.89 257.04Z" fill="#034498"/>
<path d="M533.832 218.315C533.832 218.315 541.065 219.973 541.971 231.101C542.877 242.229 535.591 245.706 535.591 245.706L533.832 218.315Z" fill="#EBEBEB"/>
<path d="M510.359 236.549C510.359 236.549 495.742 243.466 493.956 244.613C492.718 245.401 491.659 246.781 492.628 249.209C494.279 253.34 501.117 249.451 501.117 249.451L514.729 242.66C514.729 242.66 519.961 240.196 518.022 237.104C515.86 233.646 510.359 236.549 510.359 236.549Z" fill="#263238"/>
<path d="M489.667 234.031C489.667 234.031 503.405 236.379 504.571 236.719C505.738 237.059 510.314 239.201 510.547 240.599C510.668 242.434 510.668 244.274 510.547 246.109C510.547 246.109 509.722 246.781 509.201 245.437C508.863 244.127 508.715 242.775 508.762 241.423L506.195 240.437L507.595 242.919L507.829 248.743C507.829 248.743 506.034 248.582 505.693 247.184C505.473 246.22 505.358 245.235 505.352 244.245L503.476 242.66L504.876 244.55L505.352 248.743C505.352 248.743 503.988 249.182 503.557 248.251C503.242 247.042 503.085 245.799 503.091 244.55L497.814 242.713L494.324 244.658L488.832 241.611L489.667 234.031Z" fill="#FFBE9D"/>
<path d="M511.059 214.928C511.059 220.484 508.501 224.981 505.352 224.981C502.202 224.981 499.645 220.501 499.645 214.928C499.645 209.355 502.193 204.875 505.352 204.875C508.51 204.875 511.059 209.355 511.059 214.928Z" fill="#263238"/>
<path d="M506.283 221.837L509.424 232.696C509.997 232.408 510.455 231.933 510.721 231.349C510.987 230.766 511.045 230.109 510.887 229.488C510.097 225.77 509.648 223.127 508.787 219.865C508.679 219.543 506.283 221.837 506.283 221.837Z" fill="#263238"/>
<g opacity="0.4">
<path opacity="0.4" d="M444.18 353.226C443.875 352.33 443.552 351.434 443.282 350.475C443.013 349.517 442.672 348.683 442.439 347.787C442.077 346.443 441.813 345.075 441.649 343.693C436.355 365.197 444.44 380.366 458.313 381.432C478.593 382.991 503.314 384.12 513.31 381.504C531.535 376.728 538.22 361.55 539.818 359.05C541.415 356.55 555.907 330.091 546.996 304.618C538.086 279.145 522.634 252.094 522.634 252.094L507.89 257.04C507.89 257.04 510.582 269.584 514.863 284.673C519.574 301.222 525.873 327.108 525.514 342.25C525.286 351.352 522.339 360.179 517.052 367.598H450.066C450.066 367.598 448.631 366.164 444.207 353.262" fill="black"/>
</g>
<path d="M302.042 341.766L302.517 336.659L424.806 350.726C426.44 350.918 428.018 351.442 429.442 352.264C430.867 353.087 432.108 354.192 433.089 355.511C434.071 356.83 434.772 358.335 435.15 359.934C435.528 361.534 435.574 363.193 435.287 364.811L434.739 367.902L308.215 349.543C306.38 349.293 304.713 348.343 303.563 346.894C302.412 345.445 301.867 343.607 302.042 341.766Z" fill="#034498"/>
<g opacity="0.6">
<path opacity="0.6" d="M302.042 341.766L302.517 336.659L424.806 350.726C426.44 350.918 428.018 351.442 429.442 352.264C430.867 353.087 432.108 354.192 433.089 355.511C434.071 356.83 434.772 358.335 435.15 359.934C435.528 361.534 435.574 363.193 435.287 364.811L434.739 367.902L308.215 349.543C306.38 349.293 304.713 348.343 303.563 346.894C302.412 345.445 301.867 343.607 302.042 341.766Z" fill="black"/>
</g>
<g opacity="0.3">
<path opacity="0.3" d="M539.818 375.922C539.818 375.922 566.738 346.354 572.293 323.111C575.084 323.095 577.871 323.302 580.629 323.73C580.629 323.73 564.71 366.944 539.818 375.922Z" fill="black"/>
</g>
<path d="M571.898 312.7C571.968 312.943 572.016 313.192 572.042 313.444C572.114 313.936 572.257 314.662 572.347 315.603C572.609 318.289 572.54 320.997 572.14 323.667C571.508 327.609 570.299 331.437 568.551 335.028C566.419 339.4 564.04 343.648 561.426 347.751C556.736 355.24 551.467 362.352 545.669 369.022C543.48 371.612 541.667 373.673 540.411 375.088L538.957 376.71C538.792 376.903 538.615 377.085 538.428 377.257C538.561 377.043 538.714 376.842 538.885 376.656L540.276 374.972L545.418 368.816C551.125 362.095 556.343 354.974 561.031 347.509C563.648 343.42 566.044 339.193 568.21 334.849C569.935 331.293 571.144 327.51 571.799 323.613C572.212 320.982 572.329 318.314 572.149 315.657C572.087 314.716 571.97 313.99 571.934 313.488C571.896 313.227 571.884 312.963 571.898 312.7Z" fill="#263238"/>
<path d="M525.361 375.707C523.819 374.529 522.376 373.228 521.045 371.818C519.608 370.518 518.276 369.107 517.061 367.598C520.042 370.073 522.817 372.785 525.361 375.707Z" fill="#263238"/>
<path d="M445.463 374.802C445.896 373.421 446.567 372.126 447.446 370.976C448.194 369.738 449.151 368.638 450.273 367.723C450.371 367.822 449.142 369.291 447.832 371.236C446.522 373.18 445.589 374.855 445.463 374.802Z" fill="#263238"/>
<path d="M393.742 391.87C395.214 390.53 396.454 388.956 397.412 387.211C398.416 385.306 399.027 383.219 399.206 381.074C399.478 378.458 399.021 375.818 397.884 373.446C396.746 371.074 394.974 369.063 392.764 367.634C390.981 366.425 388.973 365.587 386.859 365.17C384.9 364.816 382.896 364.789 380.928 365.089C381.054 365.035 381.187 364.996 381.323 364.973C381.712 364.871 382.108 364.793 382.507 364.74C383.975 364.543 385.465 364.58 386.922 364.847C389.095 365.23 391.167 366.057 393.006 367.275C395.305 368.733 397.146 370.809 398.319 373.263C399.492 375.718 399.949 378.452 399.637 381.154C399.431 383.356 398.771 385.491 397.699 387.426C396.994 388.727 396.085 389.906 395.007 390.921C394.725 391.2 394.425 391.46 394.11 391.7C393.994 391.772 393.871 391.829 393.742 391.87Z" fill="#263238"/>
<path d="M349.062 382.507C348.754 381.095 348.606 379.652 348.622 378.206C348.467 376.765 348.467 375.311 348.622 373.87C349.07 376.726 349.208 379.622 349.035 382.507H349.062Z" fill="#263238"/>
<path d="M352.328 382.516C351.657 379.678 351.287 376.777 351.225 373.861C351.633 375.264 351.895 376.705 352.005 378.162C352.265 379.598 352.374 381.057 352.328 382.516Z" fill="#263238"/>
<path d="M402.768 299.645C402.768 299.771 387.899 299.878 369.567 299.878C351.234 299.878 336.365 299.771 336.365 299.645C336.365 299.52 351.234 299.412 369.567 299.412C387.899 299.412 402.768 299.511 402.768 299.645Z" fill="#263238"/>
<path d="M354.618 299.6C354.483 299.6 354.385 282.576 354.385 261.628C354.385 240.679 354.448 223.691 354.618 223.691C354.789 223.691 354.851 240.715 354.851 261.673C354.851 282.63 354.744 299.6 354.618 299.6Z" fill="#263238"/>
<path d="M345.473 299.538C345.347 299.538 345.984 282.514 346.9 261.583C347.815 240.652 348.694 223.637 348.784 223.646C348.874 223.655 348.281 240.67 347.366 261.601C346.451 282.531 345.643 299.547 345.473 299.538Z" fill="#263238"/>
<path d="M324.915 403.16C324.77 403.039 324.638 402.904 324.52 402.757C324.287 402.488 323.901 402.103 323.479 401.556C322.238 400.035 321.131 398.41 320.168 396.7C316.92 391.038 315.224 384.621 315.25 378.096C315.277 371.571 317.026 365.169 320.32 359.534C321.293 357.83 322.413 356.214 323.667 354.704C324.098 354.158 324.484 353.808 324.726 353.504C324.968 353.199 325.112 353.101 325.121 353.118C325.032 353.28 324.924 353.431 324.798 353.566C324.583 353.862 324.215 354.256 323.811 354.821C319.208 360.676 316.435 367.755 315.838 375.175C315.241 382.594 316.847 390.025 320.455 396.539C321.384 398.251 322.443 399.889 323.622 401.44C324.017 402.004 324.376 402.407 324.592 402.703C324.807 402.999 324.933 403.142 324.915 403.16Z" fill="#455A64"/>
<path d="M453.467 334.894L453.189 335.413L447.769 345.547L440.195 352.823L455.333 372.947L467.941 370.859C467.941 370.859 466.532 367.983 460.197 367.428L457.801 355.403L466.694 341.641" fill="#455A64"/>
<path d="M440.213 352.85L455.351 372.974L467.958 370.886L466.227 369.229L455.88 370.357L441.828 351.3L440.213 352.85Z" fill="#E0E0E0"/>
<path d="M459.211 361.926C459.139 362.069 458.313 361.774 457.416 361.971C456.519 362.168 455.792 362.679 455.675 362.571C455.559 362.464 456.124 361.621 457.308 361.415C458.493 361.209 459.309 361.81 459.211 361.926Z" fill="#263238"/>
<path d="M458.538 358.987C458.43 359.095 457.739 358.45 456.743 358.414C455.747 358.378 454.949 358.978 454.868 358.862C454.787 358.745 454.931 358.584 455.254 358.324C455.69 358.006 456.221 357.842 456.761 357.858C457.302 357.872 457.822 358.072 458.233 358.423C458.475 358.674 458.538 358.916 458.538 358.987Z" fill="#263238"/>
<path d="M457.954 355.09C457.828 355.188 457.272 354.534 456.347 354.373C455.423 354.212 454.678 354.633 454.553 354.498C454.427 354.364 454.634 354.238 454.966 354.05C455.404 353.819 455.907 353.74 456.395 353.828C456.883 353.916 457.328 354.164 457.658 354.534C457.963 354.821 458.017 355.054 457.954 355.09Z" fill="#263238"/>
<path d="M460.826 351.55C460.691 351.622 460.216 350.968 459.345 350.592C458.475 350.215 457.685 350.269 457.649 350.117C457.614 349.965 458.547 349.597 459.579 350.117C460.611 350.637 460.979 351.506 460.826 351.55Z" fill="#263238"/>
<path d="M462.045 348.692C461.982 348.737 461.489 348.307 460.726 347.554L459.434 346.219C459.141 345.958 458.887 345.656 458.68 345.323C458.62 345.203 458.584 345.073 458.575 344.939C458.565 344.805 458.583 344.671 458.626 344.544C458.677 344.399 458.77 344.272 458.893 344.179C459.016 344.087 459.163 344.033 459.317 344.024C459.776 344.03 460.223 344.174 460.6 344.436C460.929 344.646 461.23 344.896 461.498 345.18C461.943 345.67 462.272 346.255 462.458 346.891C462.694 347.465 462.694 348.109 462.458 348.683C462.366 348.129 462.241 347.582 462.081 347.044C461.862 346.492 461.536 345.99 461.121 345.565C460.876 345.323 460.602 345.112 460.304 344.938C460.019 344.752 459.692 344.638 459.353 344.606C459.306 344.607 459.26 344.622 459.222 344.649C459.183 344.676 459.154 344.715 459.138 344.759C459.089 344.876 459.089 345.008 459.138 345.126C459.312 345.414 459.524 345.679 459.766 345.915L460.995 347.339C461.415 347.731 461.77 348.188 462.045 348.692Z" fill="#263238"/>
<path d="M462.557 348.988C462.494 348.988 462.431 348.325 462.988 347.456C463.366 346.882 463.92 346.446 464.566 346.212C465.213 345.978 465.918 345.958 466.577 346.157C466.649 346.204 466.71 346.266 466.757 346.338C466.803 346.411 466.834 346.492 466.846 346.578C466.858 346.724 466.827 346.87 466.756 346.999C466.656 347.178 466.525 347.339 466.371 347.474C466.121 347.715 465.851 347.933 465.563 348.128C465.078 348.454 464.545 348.701 463.984 348.862C463.482 349.065 462.93 349.106 462.404 348.979C462.404 348.889 462.988 348.836 463.858 348.486C464.359 348.288 464.833 348.026 465.267 347.707C465.523 347.518 465.763 347.308 465.985 347.079C466.094 346.984 466.188 346.872 466.263 346.748C466.308 346.622 466.263 346.658 466.263 346.631C466.141 346.579 466.01 346.552 465.877 346.551C465.719 346.537 465.56 346.537 465.401 346.551C465.093 346.578 464.791 346.65 464.504 346.766C464.019 346.954 463.59 347.263 463.257 347.662C462.994 348.088 462.76 348.531 462.557 348.988Z" fill="#263238"/>
<path d="M450.21 350.798C450.259 351.093 450.219 351.397 450.096 351.67C449.972 351.943 449.77 352.173 449.516 352.332C449.261 352.49 448.965 352.57 448.665 352.56C448.365 352.55 448.074 352.452 447.831 352.278C447.587 352.103 447.4 351.86 447.294 351.58C447.189 351.299 447.169 350.994 447.237 350.702C447.305 350.41 447.459 350.145 447.678 349.94C447.897 349.736 448.173 349.601 448.469 349.552C448.865 349.49 449.269 349.586 449.595 349.819C449.921 350.052 450.141 350.403 450.21 350.798Z" fill="#E0E0E0"/>
<path d="M499.41 344.571L503.457 370.805L536.183 365.949C535.519 362.858 517.662 359.104 517.662 359.104L515.76 342.187L499.41 344.571Z" fill="#455A64"/>
<path d="M507.335 359.193C507.034 359.334 506.796 359.582 506.666 359.888C506.537 360.194 506.526 360.537 506.635 360.851C506.768 361.155 507.011 361.397 507.316 361.528C507.621 361.66 507.965 361.67 508.277 361.559C508.602 361.406 508.857 361.137 508.992 360.805C509.126 360.473 509.131 360.102 509.004 359.767C508.835 359.46 508.553 359.232 508.218 359.13C507.883 359.028 507.521 359.06 507.209 359.22" fill="#E0E0E0"/>
<path d="M503.457 370.805L503.152 368.117L534.64 364.453C534.64 364.453 536.192 364.874 536.183 365.922L503.457 370.805Z" fill="#E0E0E0"/>
<path d="M518.166 358.862C518.166 359.023 517.403 359.211 516.685 359.838C515.967 360.466 515.662 361.2 515.5 361.165C515.339 361.129 515.447 360.161 516.317 359.417C517.188 358.674 518.184 358.709 518.166 358.862Z" fill="#263238"/>
<path d="M521.808 359.767C521.871 359.919 521.216 360.286 520.776 361.048C520.337 361.81 520.283 362.535 520.121 362.553C519.96 362.571 519.727 361.657 520.292 360.761C520.857 359.865 521.781 359.614 521.808 359.767Z" fill="#263238"/>
<path d="M524.375 363.575C524.231 363.637 523.89 362.867 524.168 361.935C524.447 361.003 525.147 360.537 525.236 360.663C525.326 360.788 524.931 361.326 524.707 362.096C524.483 362.867 524.527 363.539 524.375 363.575Z" fill="#263238"/>
<path d="M517.303 355.054C517.303 355.206 516.496 355.099 515.598 355.287C514.701 355.475 514.046 355.878 513.938 355.753C513.83 355.627 514.432 354.955 515.482 354.74C516.532 354.525 517.366 354.91 517.303 355.054Z" fill="#263238"/>
<path d="M515.967 351.291C515.45 351.515 514.883 351.596 514.324 351.524C513.718 351.507 513.115 351.416 512.53 351.255C512.172 351.169 511.822 351.059 511.48 350.923C511.28 350.852 511.095 350.746 510.933 350.61C510.809 350.514 510.722 350.379 510.686 350.228C510.65 350.076 510.668 349.917 510.735 349.776C510.799 349.653 510.89 349.545 511.002 349.463C511.114 349.38 511.244 349.325 511.381 349.301C511.586 349.27 511.795 349.27 512 349.301C512.365 349.328 512.726 349.394 513.077 349.499C513.667 349.666 514.226 349.922 514.737 350.26C515.635 350.852 515.949 351.407 515.895 351.452C515.841 351.497 515.383 351.067 514.531 350.601C514.031 350.331 513.496 350.129 512.943 350C512.62 349.916 512.289 349.865 511.956 349.848C511.597 349.848 511.3 349.848 511.238 350.018C511.175 350.188 511.238 350.099 511.3 350.197C511.424 350.291 511.56 350.366 511.704 350.421C512.012 350.56 512.326 350.683 512.646 350.789C513.193 350.963 513.755 351.086 514.324 351.156C514.874 351.162 515.423 351.207 515.967 351.291Z" fill="#263238"/>
<path d="M515.777 351.55C515.723 351.55 515.32 351.058 515.104 350.036C515.007 349.443 515.007 348.838 515.104 348.244C515.162 347.884 515.252 347.531 515.374 347.187C515.427 346.961 515.538 346.753 515.695 346.582C515.852 346.411 516.05 346.283 516.271 346.21C516.417 346.192 516.565 346.215 516.698 346.276C516.832 346.338 516.945 346.436 517.025 346.56C517.138 346.741 517.225 346.937 517.285 347.142C517.395 347.499 517.449 347.871 517.446 348.244C517.446 348.869 517.292 349.485 516.998 350.036C516.486 350.932 515.849 351.264 515.831 351.21C515.813 351.156 516.271 350.753 516.639 349.866C516.853 349.356 516.951 348.805 516.926 348.253C516.917 347.933 516.86 347.615 516.755 347.312C516.657 346.972 516.486 346.712 516.361 346.766C516.235 346.819 515.957 347.088 515.867 347.384C515.746 347.691 515.653 348.009 515.589 348.334C515.487 348.886 515.463 349.45 515.517 350.009C515.598 350.923 515.858 351.515 515.777 351.55Z" fill="#263238"/>
<path d="M473.667 282.944L445.607 343.997L464.137 355.107L502.938 281.644" fill="#263238"/>
<path d="M519.941 356.496L499.814 359.722L487.763 287.917L428.225 292.226C426.65 292.335 425.068 292.187 423.541 291.787C406.823 287.209 409.085 265.92 410.7 262.506L493.084 260.149C497.4 260.024 501.611 261.494 504.909 264.276C508.208 267.059 510.362 270.959 510.959 275.229L519.941 356.496Z" fill="#263238"/>
<path d="M409.865 265.875L410.161 235.518C410.161 235.518 406.24 215.806 405.074 208.02C403.279 195.978 400.802 190.253 420.561 181.696L424.887 180.029L431.572 180.119C439.54 180.719 447.939 187.914 448.137 192.663L455.845 261.09L409.865 265.875Z" fill="#034498"/>
<path d="M411.104 188.747C411.104 188.747 405.522 200.736 406.617 211.658L427.408 231.585C432.065 236.764 437.898 238.968 445.355 239.416L488.373 244.111L489.566 232.875L448.666 221.299C447.033 220.994 446.216 219.301 444.969 218.208L411.104 188.747Z" fill="#034498"/>
<path d="M407.738 192.206C407.98 191.975 408.259 191.787 408.564 191.65C409.45 191.261 410.386 190.998 411.346 190.871C412.885 190.619 414.455 190.619 415.994 190.871C416.469 190.957 416.929 191.114 417.358 191.337C417.796 191.611 418.218 191.91 418.623 192.233C419.448 192.878 420.283 193.621 421.135 194.428C422.858 196.032 424.491 198.066 426.403 200.126C428.314 202.187 430.405 204.4 432.684 206.721C434.963 209.042 437.413 211.47 440.033 213.979C441.352 215.233 442.725 216.505 444.152 217.751C444.879 218.342 445.597 219.041 446.288 219.695C446.939 220.368 447.761 220.851 448.666 221.093L489.647 232.651L489.835 232.705V232.902C489.755 233.7 489.656 234.551 489.566 235.42C489.252 238.403 488.938 241.36 488.669 244.138V244.371H488.435L470.202 242.346L461.587 241.405L453.341 240.572C450.649 240.276 448.055 239.972 445.534 239.604C443.071 239.302 440.646 238.741 438.301 237.929C436.14 237.107 434.095 236.008 432.218 234.658C430.423 233.395 428.736 232.078 427.183 230.779C421.037 225.546 416.523 220.86 413.391 217.67C411.839 216.066 410.646 214.803 409.847 213.943L408.95 212.957L408.654 212.608C408.654 212.608 408.77 212.706 408.986 212.921C409.201 213.136 409.515 213.468 409.883 213.88L413.472 217.554C416.64 220.699 421.189 225.349 427.345 230.537C428.897 231.818 430.557 233.126 432.361 234.372C434.226 235.693 436.252 236.771 438.391 237.579C440.72 238.372 443.126 238.919 445.57 239.21C448.091 239.568 450.694 239.873 453.368 240.16L461.614 240.966L470.229 241.907L488.444 243.887L488.184 244.093C488.48 241.315 488.794 238.359 489.082 235.366C489.18 234.47 489.27 233.646 489.351 232.848L489.521 233.099L448.603 221.496C447.604 221.248 446.695 220.723 445.983 219.982C445.256 219.292 444.601 218.647 443.856 218.028C442.411 216.774 441.056 215.493 439.737 214.238C437.117 211.721 434.676 209.275 432.406 206.945C430.136 204.615 428.054 202.393 426.125 200.306C424.195 198.218 422.616 196.193 420.911 194.589C420.127 193.812 419.3 193.079 418.434 192.394C418.044 192.066 417.63 191.767 417.196 191.498C416.79 191.277 416.35 191.123 415.895 191.041C414.381 190.764 412.832 190.74 411.31 190.969C410.357 191.076 409.424 191.314 408.537 191.677C408.258 191.833 407.991 192.009 407.738 192.206Z" fill="#263238"/>
<path d="M418.479 153.696L420.561 183.264C420.727 185.588 421.769 187.764 423.478 189.352C425.186 190.94 427.434 191.822 429.768 191.821C431.03 191.821 432.279 191.562 433.437 191.061C434.595 190.56 435.638 189.827 436.501 188.908C437.364 187.988 438.029 186.901 438.454 185.715C438.88 184.528 439.057 183.267 438.974 182.009C438.786 179.196 438.624 176.893 438.624 176.893C438.624 176.893 445.803 175.782 445.875 168.623C445.929 164.493 445.211 155.12 444.601 147.934C444.4 145.587 443.322 143.401 441.582 141.811C439.841 140.22 437.565 139.342 435.206 139.351H430.872C429.107 139.458 427.381 139.917 425.796 140.7C424.212 141.484 422.8 142.576 421.645 143.913C420.49 145.25 419.615 146.805 419.071 148.485C418.528 150.165 418.326 151.937 418.479 153.696Z" fill="#FFBE9D"/>
<path d="M438.634 176.777C435.327 176.839 432.076 175.919 429.293 174.133C429.293 174.133 431.5 179.276 438.652 178.613L438.634 176.777Z" fill="#EB996E"/>
<path d="M442.995 157.118C442.998 157.385 442.896 157.641 442.712 157.834C442.527 158.026 442.275 158.139 442.008 158.149C441.879 158.161 441.749 158.147 441.626 158.109C441.503 158.07 441.388 158.007 441.289 157.924C441.191 157.84 441.11 157.738 441.051 157.623C440.993 157.507 440.958 157.382 440.949 157.253C440.947 156.986 441.048 156.728 441.232 156.534C441.417 156.34 441.669 156.225 441.936 156.213C442.197 156.194 442.455 156.278 442.653 156.447C442.852 156.617 442.975 156.858 442.995 157.118Z" fill="#263238"/>
<path d="M443.373 155.102C443.238 155.237 442.475 154.663 441.363 154.663C440.25 154.663 439.46 155.219 439.335 155.085C439.209 154.95 439.407 154.78 439.766 154.529C440.238 154.197 440.803 154.022 441.381 154.027C441.955 154.026 442.515 154.208 442.978 154.547C443.283 154.798 443.427 155.04 443.373 155.102Z" fill="#263238"/>
<path d="M432.657 157.118C432.662 157.385 432.561 157.643 432.376 157.836C432.191 158.029 431.938 158.142 431.67 158.149C431.541 158.161 431.412 158.147 431.288 158.109C431.165 158.07 431.05 158.007 430.952 157.924C430.853 157.84 430.772 157.738 430.714 157.623C430.655 157.507 430.62 157.382 430.611 157.253C430.609 156.986 430.71 156.728 430.894 156.534C431.079 156.34 431.331 156.225 431.598 156.213C431.859 156.194 432.117 156.278 432.315 156.447C432.514 156.617 432.637 156.858 432.657 157.118Z" fill="#263238"/>
<path d="M432.514 155.308C432.388 155.443 431.616 154.869 430.504 154.869C429.391 154.869 428.601 155.425 428.485 155.291C428.368 155.156 428.547 154.986 428.906 154.735C429.379 154.403 429.944 154.228 430.522 154.233C431.095 154.229 431.654 154.408 432.119 154.744C432.514 155.004 432.612 155.246 432.514 155.308Z" fill="#263238"/>
<path d="M436.543 163.462C437.125 163.28 437.728 163.172 438.337 163.14C438.616 163.14 438.885 163.05 438.93 162.862C438.959 162.571 438.893 162.278 438.741 162.028L437.898 159.896C437.124 158.086 436.5 156.216 436.031 154.305C436.942 156.049 437.716 157.862 438.346 159.726L439.136 161.876C439.315 162.214 439.369 162.604 439.289 162.978C439.247 163.078 439.184 163.167 439.103 163.238C439.022 163.31 438.926 163.362 438.822 163.39C438.667 163.43 438.507 163.451 438.346 163.453C437.748 163.532 437.142 163.535 436.543 163.462Z" fill="#263238"/>
<path d="M433.304 164.224C433.483 164.224 433.483 165.406 434.506 166.249C435.529 167.091 436.804 166.965 436.813 167.145C436.822 167.324 436.525 167.369 435.987 167.387C435.288 167.395 434.608 167.157 434.067 166.715C433.559 166.284 433.238 165.674 433.169 165.012C433.089 164.555 433.223 164.215 433.304 164.224Z" fill="#263238"/>
<path d="M432.83 150.999C432.722 151.294 431.627 151.16 430.335 151.312C429.043 151.465 427.993 151.823 427.822 151.554C427.652 151.286 427.93 151.142 428.352 150.855C428.913 150.498 429.548 150.275 430.21 150.202C430.871 150.129 431.54 150.208 432.165 150.434C432.641 150.622 432.883 150.855 432.83 150.999Z" fill="#263238"/>
<path d="M442.959 151.922C442.771 152.172 442.008 151.922 441.102 151.922C440.195 151.922 439.415 152.083 439.235 151.823C439.056 151.563 439.28 151.447 439.621 151.214C440.07 150.92 440.601 150.775 441.138 150.802C441.671 150.813 442.188 150.988 442.618 151.303C442.941 151.545 443.049 151.796 442.959 151.922Z" fill="#263238"/>
<path d="M420.894 159.072C420.768 159.018 415.967 157.611 416.129 162.503C416.291 167.395 421.163 166.231 421.172 166.087C421.181 165.944 420.894 159.072 420.894 159.072Z" fill="#FFBE9D"/>
<path d="M419.611 164.286C419.611 164.286 419.53 164.349 419.386 164.421C419.181 164.499 418.954 164.499 418.749 164.421C418.428 164.23 418.163 163.959 417.982 163.633C417.801 163.307 417.709 162.939 417.717 162.566C417.691 162.147 417.759 161.728 417.915 161.339C417.955 161.184 418.033 161.041 418.141 160.922C418.248 160.804 418.383 160.713 418.534 160.658C418.632 160.63 418.736 160.637 418.83 160.678C418.923 160.719 418.999 160.791 419.045 160.882C419.117 161.016 419.09 161.114 419.117 161.123C419.144 161.132 419.216 161.034 419.171 160.837C419.141 160.714 419.068 160.606 418.964 160.532C418.896 160.484 418.819 160.45 418.737 160.431C418.656 160.413 418.571 160.41 418.489 160.425C418.283 160.465 418.091 160.559 417.933 160.698C417.776 160.836 417.658 161.014 417.592 161.213C417.395 161.642 417.309 162.113 417.34 162.584C417.328 163.02 417.446 163.45 417.68 163.818C417.913 164.187 418.251 164.478 418.65 164.654C418.782 164.688 418.92 164.693 419.054 164.666C419.188 164.64 419.314 164.584 419.422 164.501C419.611 164.403 419.629 164.295 419.611 164.286Z" fill="#EB996E"/>
<path d="M418.157 158.901C418.623 158.871 419.089 158.968 419.504 159.181C419.92 159.394 420.27 159.715 420.517 160.111C420.831 160.81 420.903 161.598 421.217 162.297C421.353 162.657 421.6 162.963 421.923 163.171C422.247 163.379 422.628 163.478 423.012 163.453C423.266 163.374 423.495 163.228 423.675 163.031C423.854 162.834 423.979 162.594 424.035 162.333C424.138 161.813 424.138 161.277 424.035 160.756C423.748 158.471 423.272 156.213 423.182 153.911C422.99 151.6 423.494 149.286 424.627 147.262C425.202 146.26 426.037 145.432 427.045 144.866C428.053 144.299 429.196 144.016 430.352 144.046C431.877 144.171 433.268 144.942 434.785 145.175C435.685 145.292 436.6 145.204 437.461 144.917C438.323 144.63 439.107 144.151 439.756 143.517C440.042 143.277 440.342 143.052 440.653 142.845C440.634 142.304 440.456 141.781 440.142 141.34C437.136 138.562 431.734 137.756 427.768 138.786C425.753 139.282 423.871 140.21 422.252 141.505C420.632 142.8 419.315 144.431 418.39 146.286C416.686 149.995 417.188 155.147 418.13 158.901" fill="#263238"/>
<path d="M444.683 146.823C444.683 146.823 425.893 140.784 417.763 157.02C417.136 154.978 416.727 152.876 416.543 150.748C416.543 149.296 417.44 140.632 426.342 137.908C426.342 137.944 439.793 132.819 444.683 146.823Z" fill="#034498"/>
<path d="M428.53 147.227C428.863 147.765 429.318 148.219 429.858 148.552C430.397 148.886 431.007 149.089 431.639 149.146C432.271 149.204 432.908 149.113 433.498 148.883C434.089 148.652 434.619 148.288 435.044 147.818C435.23 148.285 435.557 148.681 435.98 148.953C436.403 149.224 436.901 149.356 437.403 149.33C437.905 149.305 438.386 149.122 438.779 148.809C439.172 148.496 439.457 148.068 439.594 147.585C440.095 148.147 440.706 148.601 441.388 148.92C441.74 149.069 442.129 149.107 442.503 149.029C442.877 148.95 443.218 148.759 443.479 148.481C443.693 148.156 443.796 147.771 443.772 147.383C443.747 146.995 443.598 146.626 443.345 146.331C442.836 145.742 442.179 145.3 441.442 145.049C439.216 144.072 436.77 143.701 434.353 143.974C431.924 144.266 429.699 145.474 428.135 147.352" fill="#263238"/>
<g opacity="0.4">
<path opacity="0.4" d="M444.683 146.823C443.116 145.186 440.973 144.222 438.707 144.135C433.162 143.893 422.788 147.003 417.763 157.038C417.136 154.996 416.727 152.894 416.543 150.766C416.543 149.314 417.44 140.65 426.342 137.926C426.342 137.944 439.793 132.819 444.683 146.823Z" fill="black"/>
</g>
<path d="M418.543 155.12C421.392 150.883 425.127 147.313 429.49 144.655C433.816 141.967 440.958 139.279 445.876 137.989C447.335 137.507 448.88 137.345 450.407 137.514C451.168 137.61 451.886 137.918 452.48 138.403C453.073 138.888 453.518 139.53 453.763 140.256C454.23 142.11 450.937 144.969 449.384 146.089C447.869 147.1 446.3 148.027 444.682 148.866C444.682 148.866 444.727 145.426 439.217 144.718C431.725 143.759 418.543 155.12 418.543 155.12Z" fill="#034498"/>
<g opacity="0.3">
<path opacity="0.3" d="M411.93 216.093C413.868 220.761 415.824 226.523 418.633 230.725C421.441 234.927 425.192 238.663 429.858 240.581C435.727 243.036 442.663 243.43 448.496 240.921C448.972 240.715 449.905 240.455 449.815 239.945C449.815 239.945 447.886 239.721 447.285 239.622C435.503 237.669 434.219 236.235 428.575 231.755C425.058 228.987 417.26 220.591 411.93 216.093Z" fill="black"/>
</g>
<path d="M449.402 250.087C449.283 250.471 449.117 250.838 448.909 251.181C448.385 252.15 447.746 253.052 447.006 253.869C444.509 256.482 441.369 258.395 437.898 259.415C434.44 260.398 430.869 260.931 427.274 261.001C425.901 261.054 424.788 261.063 424.026 261.063C423.627 261.08 423.228 261.062 422.832 261.01C423.22 260.92 423.618 260.875 424.017 260.875L427.256 260.669C430.812 260.505 434.338 259.934 437.764 258.967C441.174 257.954 444.277 256.106 446.791 253.591C447.771 252.508 448.645 251.335 449.402 250.087Z" fill="#263238"/>
<path d="M500.164 361.863C500.125 361.775 500.101 361.681 500.092 361.586C500.092 361.38 500.002 361.102 499.93 360.761C499.796 360.009 499.598 358.969 499.356 357.589C498.863 354.794 498.172 350.807 497.31 345.888C495.632 335.978 493.317 322.332 490.76 307.261C489.62 300.434 488.534 293.911 487.538 287.952L487.772 288.141L462.009 289.995L454.615 290.497L452.641 290.613H452.138H451.959H452.129L452.641 290.551L454.606 290.372L461.991 289.744L487.736 287.693H487.933V287.89C488.938 293.848 490.042 300.371 491.19 307.189C493.694 322.269 495.955 335.924 497.606 345.843C498.396 350.771 499.042 354.803 499.5 357.563L499.984 360.761C500.038 361.102 500.074 361.38 500.101 361.586C500.133 361.675 500.154 361.769 500.164 361.863Z" fill="#455A64"/>
<path d="M493.803 281.519C493.884 281.627 492.313 282.971 490.537 284.78C488.76 286.59 487.432 288.176 487.324 288.087C488.979 285.452 491.19 283.211 493.803 281.519Z" fill="#455A64"/>
<path d="M438.796 182.627C438.796 182.627 438.85 182.726 438.904 182.923C438.993 183.215 439.05 183.515 439.075 183.819C439.179 184.925 439.032 186.04 438.644 187.081C438.064 188.636 437.033 189.984 435.683 190.951C433.997 192.104 431.968 192.648 429.931 192.492C427.902 192.355 425.958 191.626 424.34 190.396C423.036 189.395 421.954 188.135 421.164 186.695C420.628 185.736 420.218 184.712 419.943 183.649C419.854 183.273 419.791 182.977 419.764 182.753C419.737 182.529 419.764 182.439 419.764 182.439C420.18 183.853 420.749 185.217 421.46 186.507C422.272 187.873 423.341 189.069 424.61 190.028C426.178 191.188 428.047 191.872 429.994 192C431.929 192.148 433.859 191.646 435.476 190.575C436.768 189.663 437.771 188.401 438.366 186.937C438.772 185.946 438.965 184.881 438.931 183.81C438.868 183.058 438.796 182.645 438.796 182.627Z" fill="#263238"/>
<path d="M451.457 221.756C451.355 221.466 451.288 221.166 451.26 220.86C451.161 220.152 451.044 219.292 450.901 218.297C450.604 216.013 450.219 213.074 449.797 209.821C449.375 206.569 449.07 203.549 448.9 201.327C448.801 200.243 448.738 199.356 448.702 198.747C448.659 198.431 448.659 198.112 448.702 197.797C448.796 198.088 448.859 198.388 448.891 198.693C448.989 199.401 449.106 200.252 449.241 201.255C449.528 203.54 449.896 206.479 450.299 209.732C450.703 212.984 451.053 216.004 451.269 218.217C451.367 219.31 451.439 220.188 451.484 220.806C451.512 221.123 451.503 221.441 451.457 221.756Z" fill="#263238"/>
</svg>
