<svg width="33" height="33" viewBox="0 0 33 33" fill="none" xmlns="http://www.w3.org/2000/svg">
<path d="M32.0711 16.6126C32.0711 25.2477 25.0574 32.2614 16.4223 32.2614C7.78711 32.2614 0.773438 25.2477 0.773438 16.6126C0.773438 7.97741 7.78711 0.963745 16.4223 0.963745C25.0574 0.963745 32.0711 7.97741 32.0711 16.6126ZM2.13516 16.6126C2.13516 24.5122 8.52265 30.8997 16.4223 30.8997C24.3219 30.8997 30.7094 24.5122 30.7094 16.6126C30.7094 8.71296 24.3219 2.32546 16.4223 2.32546C8.52265 2.32546 2.13516 8.71296 2.13516 16.6126ZM16.9035 4.55398C17.032 4.68523 17.1059 4.86296 17.1031 5.04617V14.6903C17.918 14.9801 18.4621 15.7485 18.4621 16.6126C18.4621 17.7391 17.5488 18.6524 16.4223 18.6524C16.1187 18.6524 15.818 18.584 15.5445 18.4528L11.4594 22.538C11.2898 22.7157 11.0355 22.7868 10.7977 22.7239C10.5598 22.661 10.3738 22.4751 10.3109 22.2372C10.248 21.9993 10.3191 21.745 10.4969 21.5755L14.582 17.4903C14.4508 17.2169 14.3824 16.9161 14.3824 16.6126C14.3824 15.7485 14.9266 14.9774 15.7414 14.6903V5.04617C15.7359 4.67156 16.0367 4.36257 16.4113 4.3571C16.5945 4.35437 16.7723 4.42546 16.9035 4.55398Z" fill="black" stroke="black" stroke-width="1.41279" stroke-miterlimit="10" stroke-linejoin="round"/>
<path d="M16.4223 0.963745C7.78711 0.963745 0.773438 7.97742 0.773438 16.6126C0.773438 25.2477 7.78711 32.2614 16.4223 32.2614C25.0574 32.2614 32.0711 25.2477 32.0711 16.6126C32.0711 7.97742 25.0574 0.963745 16.4223 0.963745ZM16.4223 2.32546C24.3219 2.32546 30.7094 8.71296 30.7094 16.6126C30.7094 24.5122 24.3219 30.8997 16.4223 30.8997C8.52266 30.8997 2.13516 24.5122 2.13516 16.6126C2.13516 8.71296 8.52266 2.32546 16.4223 2.32546ZM16.4113 4.35711C16.0367 4.36257 15.7359 4.67156 15.7414 5.04617V14.6903C14.9266 14.9774 14.3824 15.7485 14.3824 16.6126C14.3824 16.9161 14.4508 17.2169 14.582 17.4903L10.4969 21.5755C10.3191 21.745 10.248 21.9993 10.3109 22.2372C10.3738 22.4751 10.5598 22.661 10.7977 22.7239C11.0355 22.7868 11.2898 22.7157 11.4594 22.538L15.5445 18.4528C15.818 18.5841 16.1188 18.6524 16.4223 18.6524C17.5488 18.6524 18.4621 17.7391 18.4621 16.6126C18.4621 15.7485 17.918 14.9802 17.1031 14.6903V5.04617C17.1059 4.86296 17.032 4.68523 16.9035 4.55398C16.7723 4.42546 16.5945 4.35437 16.4113 4.35711Z" fill="black"/>
</svg>
