<?xml version="1.0" standalone="no"?>
<!DOCTYPE svg PUBLIC "-//W3C//DTD SVG 20010904//EN"
 "http://www.w3.org/TR/2001/REC-SVG-20010904/DTD/svg10.dtd">
<svg version="1.0" xmlns="http://www.w3.org/2000/svg"
 width="656.000000pt" height="656.000000pt" viewBox="0 0 656.000000 656.000000"
 preserveAspectRatio="xMidYMid meet">
<metadata>
Created by potrace 1.14, written by Peter Selinger 2001-2017
</metadata>
<g transform="translate(0.000000,656.000000) scale(0.100000,-0.100000)"
fill="#000000" stroke="none">
<path d="M2127 5974 c-72 -18 -150 -60 -202 -106 -99 -89 -182 -255 -204 -411
-9 -59 -8 -234 2 -287 13 -79 50 -209 66 -235 3 -5 6 -12 6 -15 0 -3 15 -33
33 -68 42 -83 103 -165 169 -227 70 -67 80 -75 93 -75 5 0 10 -4 10 -9 0 -15
143 -79 205 -92 54 -11 145 -14 185 -6 8 2 40 11 70 22 176 59 303 225 357
465 9 40 9 299 1 345 -61 325 -273 602 -525 686 -78 26 -196 32 -266 13z"/>
<path d="M4156 5963 c-246 -56 -473 -305 -552 -607 -27 -101 -28 -116 -28
-246 0 -128 7 -198 23 -228 5 -9 9 -21 9 -25 -1 -21 39 -108 71 -157 52 -79
126 -146 199 -180 34 -17 70 -31 80 -33 9 -1 22 -5 27 -8 17 -10 168 -3 215
10 49 14 168 71 197 95 82 66 189 186 225 249 3 7 17 30 30 52 12 22 23 45 24
51 1 6 9 27 17 45 30 69 38 98 56 195 18 100 20 205 7 303 -9 60 -52 198 -70
221 -7 8 -18 28 -26 44 -19 37 -121 146 -138 146 -6 0 -12 4 -12 8 0 10 -56
38 -118 59 -58 19 -165 22 -236 6z"/>
<path d="M660 4465 c-93 -23 -125 -40 -190 -105 -63 -63 -101 -130 -117 -210
-9 -43 -10 -163 -2 -200 4 -19 11 -48 14 -65 9 -45 7 -38 48 -138 14 -33 74
-130 102 -165 146 -182 383 -308 564 -301 59 2 143 18 155 30 6 5 17 9 26 9 9
0 26 9 38 20 12 11 25 20 29 20 4 0 26 20 49 45 79 87 114 189 109 325 -3 95
-7 118 -36 204 -116 344 -498 601 -789 531z"/>
<path d="M5675 4408 c-172 -45 -324 -143 -449 -289 -42 -49 -113 -177 -127
-229 -7 -25 -16 -49 -19 -55 -4 -5 -7 -59 -6 -120 1 -101 4 -115 32 -175 74
-155 207 -232 404 -233 99 0 194 20 293 62 26 11 50 20 54 20 3 0 9 3 12 8 3
4 32 25 63 45 348 228 460 662 225 874 -117 106 -295 140 -482 92z"/>
<path d="M2968 3844 c-2 -1 -23 -5 -48 -8 -106 -15 -129 -19 -200 -43 -84 -28
-196 -82 -249 -121 -78 -56 -261 -259 -261 -289 0 -3 -6 -14 -14 -22 -8 -9
-60 -97 -117 -196 -107 -189 -196 -333 -215 -350 -6 -5 -17 -19 -25 -31 -17
-25 -105 -126 -169 -193 -259 -272 -412 -449 -493 -571 -20 -30 -41 -60 -47
-67 -5 -7 -10 -14 -10 -17 0 -3 -13 -27 -29 -53 -38 -65 -87 -193 -106 -273
-17 -78 -17 -304 0 -406 24 -140 79 -307 113 -346 8 -10 11 -18 6 -18 -5 0 -4
-4 1 -8 6 -4 23 -27 39 -52 33 -52 160 -178 202 -200 16 -8 31 -17 34 -20 13
-15 130 -63 204 -84 147 -43 317 -50 551 -22 76 9 219 43 335 79 19 6 37 12
40 12 20 3 117 40 128 48 6 5 12 7 12 4 0 -8 66 19 230 96 153 71 171 76 257
73 73 -3 89 -8 237 -75 142 -64 377 -155 424 -165 9 -1 24 -6 32 -9 37 -15
214 -54 290 -63 25 -3 61 -7 80 -10 19 -3 80 -6 135 -7 88 -2 123 1 235 17
100 15 279 86 340 135 77 61 130 110 151 141 13 19 32 44 41 55 10 11 18 25
18 30 1 6 7 17 14 25 31 37 97 225 112 315 3 20 8 47 11 59 10 44 12 342 2
386 -13 57 -30 121 -37 140 -3 8 -6 17 -6 20 -13 50 -162 299 -213 355 -10 11
-36 43 -57 70 -43 54 -74 88 -241 270 -147 159 -152 165 -212 232 -57 64 -163
200 -163 209 0 3 -13 24 -28 47 -16 23 -46 74 -67 112 -22 39 -50 88 -63 110
-13 22 -28 52 -35 68 -6 15 -15 27 -19 27 -4 0 -8 5 -8 10 0 18 -106 175 -166
245 -64 76 -110 120 -158 150 -17 10 -33 22 -36 26 -11 15 -142 78 -202 97
-135 43 -214 54 -410 57 -92 1 -169 1 -170 -1z"/>
</g>
</svg>
